<svg width="19" height="29" viewBox="0 0 19 29" fill="none" xmlns="http://www.w3.org/2000/svg">
<g clip-path="url(#clip0_259_3660)">
<path d="M10.285 28.6464L18.6517 20.1639C18.8668 19.9356 18.9854 19.6308 18.9824 19.3146C18.9793 18.9985 18.8547 18.6961 18.6353 18.4722C18.4159 18.2484 18.1191 18.1208 17.8084 18.1168C17.4977 18.1129 17.1979 18.2328 16.973 18.451L10.6857 24.8265L10.6857 1.20963C10.6956 1.04483 10.6723 0.879702 10.6172 0.72442C10.562 0.569137 10.4762 0.426984 10.365 0.306714C10.2539 0.186445 10.1197 0.0906029 9.97077 0.0250904C9.82183 -0.0404221 9.6613 -0.0742187 9.49905 -0.0742187C9.33679 -0.0742187 9.17626 -0.0404221 9.02732 0.0250904C8.87839 0.0906029 8.74421 0.186445 8.63304 0.306714C8.52188 0.426984 8.43608 0.569137 8.38093 0.72442C8.32578 0.879702 8.30245 1.04483 8.31238 1.20963L8.31238 24.9217L2.02951 18.4556C1.92205 18.3326 1.79106 18.2331 1.64455 18.1634C1.49804 18.0937 1.33909 18.0551 1.17743 18.0501C1.01576 18.045 0.854784 18.0736 0.704344 18.1341C0.553905 18.1945 0.417168 18.2855 0.302496 18.4016C0.187826 18.5177 0.0976372 18.6563 0.0374432 18.8091C-0.0227489 18.9619 -0.0516777 19.1255 -0.0475712 19.2901C-0.0434647 19.4546 -0.0064106 19.6166 0.0613251 19.766C0.129059 19.9155 0.226049 20.0493 0.346361 20.1593L8.60181 28.6418C8.71224 28.7544 8.84342 28.8438 8.98783 28.9048C9.13224 28.9657 9.28704 28.9971 9.44339 28.9971C9.59973 28.9971 9.75453 28.9657 9.89894 28.9048C10.0434 28.8438 10.1745 28.7544 10.285 28.6418V28.6464Z" fill="#EEEEEE" fill-opacity="0.6"/>
</g>
<defs>
<clipPath id="clip0_259_3660">
<rect width="29" height="19" fill="white" transform="translate(19) rotate(90)"/>
</clipPath>
</defs>
</svg>
