<svg width="20" height="29" viewBox="0 0 20 29" fill="none" xmlns="http://www.w3.org/2000/svg">
<g clip-path="url(#clip0_259_3272)">
<path d="M10.8272 28.6464L19.6343 20.1639C19.8607 19.9356 19.9856 19.6308 19.9824 19.3146C19.9791 18.9985 19.848 18.6961 19.617 18.4722C19.3861 18.2484 19.0737 18.1208 18.7466 18.1168C18.4196 18.1129 18.104 18.2328 17.8673 18.451L11.249 24.8265L11.249 1.20963C11.2595 1.04483 11.2349 0.879702 11.1769 0.72442C11.1188 0.569137 11.0285 0.426984 10.9115 0.306714C10.7945 0.186445 10.6532 0.0906029 10.4965 0.0250904C10.3397 -0.0404221 10.1707 -0.0742187 9.99992 -0.0742187C9.82913 -0.0742187 9.66014 -0.0404221 9.50337 0.0250904C9.3466 0.0906029 9.20535 0.186445 9.08834 0.306714C8.97132 0.426984 8.88101 0.569137 8.82296 0.72442C8.76491 0.879702 8.74035 1.04483 8.7508 1.20963L8.7508 24.9217L2.13725 18.4556C2.02414 18.3326 1.88626 18.2331 1.73203 18.1634C1.57781 18.0937 1.41049 18.0551 1.24032 18.0501C1.07015 18.045 0.900698 18.0736 0.742342 18.1341C0.583984 18.1945 0.440048 18.2855 0.319344 18.4016C0.198639 18.5177 0.103701 18.6563 0.0403404 18.8091C-0.0230198 18.9619 -0.0534706 19.1255 -0.0491486 19.2901C-0.0448265 19.4546 -0.00582123 19.6166 0.0654774 19.766C0.136778 19.9155 0.238873 20.0493 0.365517 20.1593L9.05546 28.6418C9.17171 28.7544 9.30979 28.8438 9.4618 28.9048C9.61381 28.9657 9.77676 28.9971 9.94133 28.9971C10.1059 28.9971 10.2689 28.9657 10.4209 28.9048C10.5729 28.8438 10.711 28.7544 10.8272 28.6418V28.6464Z" fill="#EEEEEE" fill-opacity="0.6"/>
</g>
<defs>
<clipPath id="clip0_259_3272">
<rect width="29" height="20" fill="white" transform="translate(20) rotate(90)"/>
</clipPath>
</defs>
</svg>
