<svg width="19" height="30" viewBox="0 0 19 30" fill="none" xmlns="http://www.w3.org/2000/svg">
<g clip-path="url(#clip0_259_3811)">
<path d="M10.285 29.6348L18.6517 20.8598C18.8668 20.6237 18.9854 20.3083 18.9824 19.9813C18.9793 19.6542 18.8547 19.3414 18.6353 19.1098C18.4159 18.8782 18.1191 18.7462 17.8084 18.7422C17.4977 18.7381 17.1979 18.8622 16.973 19.0879L10.6857 25.6832L10.6857 1.25195C10.6956 1.08146 10.6723 0.910643 10.6172 0.750006C10.562 0.589368 10.4762 0.442314 10.365 0.317897C10.2539 0.19348 10.1197 0.0943333 9.97077 0.0265617C9.82183 -0.0412098 9.6613 -0.0761719 9.49905 -0.0761719C9.33679 -0.0761719 9.17626 -0.0412098 9.02732 0.0265617C8.87839 0.0943333 8.74421 0.19348 8.63304 0.317897C8.52188 0.442314 8.43608 0.589368 8.38093 0.750006C8.32578 0.910643 8.30245 1.08146 8.31238 1.25195L8.31238 25.7816L2.02951 19.0926C1.92205 18.9653 1.79106 18.8625 1.64455 18.7904C1.49804 18.7182 1.33909 18.6783 1.17743 18.6731C1.01576 18.6679 0.854784 18.6974 0.704344 18.76C0.553905 18.8225 0.417168 18.9167 0.302496 19.0368C0.187826 19.1568 0.0976372 19.3003 0.0374432 19.4583C-0.0227489 19.6163 -0.0516777 19.7856 -0.0475712 19.9559C-0.0434647 20.1261 -0.0064106 20.2936 0.0613251 20.4482C0.129059 20.6028 0.226049 20.7413 0.346361 20.8551L8.60181 29.6301C8.71224 29.7466 8.84342 29.839 8.98783 29.9021C9.13224 29.9651 9.28704 29.9976 9.44339 29.9976C9.59973 29.9976 9.75453 29.9651 9.89894 29.9021C10.0434 29.839 10.1745 29.7466 10.285 29.6301V29.6348Z" fill="#EEEEEE" fill-opacity="0.6"/>
</g>
<defs>
<clipPath id="clip0_259_3811">
<rect width="30" height="19" fill="white" transform="translate(19) rotate(90)"/>
</clipPath>
</defs>
</svg>
