<svg width="20" height="30" viewBox="0 0 20 30" fill="none" xmlns="http://www.w3.org/2000/svg">
<g clip-path="url(#clip0_259_3669)">
<path d="M10.8272 29.6348L19.6343 20.8598C19.8607 20.6237 19.9856 20.3083 19.9824 19.9813C19.9791 19.6542 19.848 19.3414 19.617 19.1098C19.3861 18.8782 19.0737 18.7462 18.7466 18.7422C18.4196 18.7381 18.104 18.8622 17.8673 19.0879L11.249 25.6832L11.249 1.25195C11.2595 1.08146 11.2349 0.910643 11.1769 0.750006C11.1188 0.589368 11.0285 0.442314 10.9115 0.317897C10.7945 0.19348 10.6532 0.0943333 10.4965 0.0265617C10.3397 -0.0412098 10.1707 -0.0761719 9.99992 -0.0761719C9.82913 -0.0761719 9.66014 -0.0412098 9.50337 0.0265617C9.3466 0.0943333 9.20535 0.19348 9.08834 0.317897C8.97132 0.442314 8.88101 0.589368 8.82296 0.750006C8.76491 0.910643 8.74035 1.08146 8.7508 1.25195L8.7508 25.7816L2.13725 19.0926C2.02414 18.9653 1.88626 18.8625 1.73203 18.7904C1.57781 18.7182 1.41049 18.6783 1.24032 18.6731C1.07015 18.6679 0.900698 18.6974 0.742342 18.76C0.583984 18.8225 0.440048 18.9167 0.319344 19.0368C0.198639 19.1568 0.103701 19.3003 0.0403404 19.4583C-0.0230198 19.6163 -0.0534706 19.7856 -0.0491486 19.9559C-0.0448265 20.1261 -0.00582123 20.2936 0.0654774 20.4482C0.136778 20.6028 0.238873 20.7413 0.365517 20.8551L9.05546 29.6301C9.17171 29.7466 9.30979 29.839 9.4618 29.9021C9.61381 29.9651 9.77676 29.9976 9.94133 29.9976C10.1059 29.9976 10.2689 29.9651 10.4209 29.9021C10.5729 29.839 10.711 29.7466 10.8272 29.6301V29.6348Z" fill="#EEEEEE" fill-opacity="0.6"/>
</g>
<defs>
<clipPath id="clip0_259_3669">
<rect width="30" height="20" fill="white" transform="translate(20) rotate(90)"/>
</clipPath>
</defs>
</svg>
