<svg width="19" height="29" viewBox="0 0 19 29" fill="none" xmlns="http://www.w3.org/2000/svg">
<g clip-path="url(#clip0_259_3262)">
<path d="M10.2859 28.6464L18.6527 20.1639C18.8677 19.9356 18.9864 19.6308 18.9833 19.3146C18.9803 18.9985 18.8557 18.6961 18.6363 18.4722C18.4169 18.2484 18.1201 18.1208 17.8094 18.1168C17.4987 18.1129 17.1989 18.2328 16.974 18.451L10.6867 24.8265L10.6867 1.20963C10.6966 1.04483 10.6733 0.879702 10.6181 0.72442C10.563 0.569137 10.4772 0.426984 10.366 0.306714C10.2549 0.186445 10.1207 0.0906029 9.97174 0.0250904C9.82281 -0.0404221 9.66228 -0.0742187 9.50002 -0.0742187C9.33777 -0.0742187 9.17723 -0.0404221 9.0283 0.0250904C8.87936 0.0906029 8.74518 0.186445 8.63402 0.306714C8.52285 0.426984 8.43705 0.569137 8.38191 0.72442C8.32676 0.879702 8.30343 1.04483 8.31336 1.20963L8.31336 24.9217L2.03049 18.4556C1.92303 18.3326 1.79204 18.2331 1.64553 18.1634C1.49901 18.0937 1.34007 18.0551 1.1784 18.0501C1.01674 18.045 0.855761 18.0736 0.70532 18.1341C0.554882 18.1945 0.418144 18.2855 0.303473 18.4016C0.188803 18.5177 0.0986137 18.6563 0.0384197 18.8091C-0.0217724 18.9619 -0.0507011 19.1255 -0.0465946 19.2901C-0.0424881 19.4546 -0.00543404 19.6166 0.0623016 19.766C0.130035 19.9155 0.227026 20.0493 0.347338 20.1593L8.60279 28.6418C8.71322 28.7544 8.84439 28.8438 8.9888 28.9048C9.13321 28.9657 9.28802 28.9971 9.44436 28.9971C9.60071 28.9971 9.75551 28.9657 9.89992 28.9048C10.0443 28.8438 10.1755 28.7544 10.2859 28.6418V28.6464Z" fill="#EEEEEE" fill-opacity="0.6"/>
</g>
<defs>
<clipPath id="clip0_259_3262">
<rect width="29" height="19" fill="white" transform="translate(19) rotate(90)"/>
</clipPath>
</defs>
</svg>
