<svg width="21" height="30" viewBox="0 0 21 30" fill="none" xmlns="http://www.w3.org/2000/svg">
<g clip-path="url(#clip0_259_3287)">
<path d="M11.5225 29.6348L20.3296 20.8598C20.556 20.6237 20.6809 20.3083 20.6777 19.9813C20.6744 19.6542 20.5433 19.3414 20.3124 19.1098C20.0814 18.8782 19.769 18.7462 19.4419 18.7422C19.1149 18.7381 18.7993 18.8622 18.5626 19.0879L11.9444 25.6832L11.9444 1.25195C11.9548 1.08146 11.9302 0.910643 11.8722 0.750006C11.8141 0.589368 11.7238 0.442314 11.6068 0.317897C11.4898 0.19348 11.3486 0.0943333 11.1918 0.0265617C11.035 -0.0412098 10.866 -0.0761719 10.6952 -0.0761719C10.5244 -0.0761719 10.3555 -0.0412098 10.1987 0.0265617C10.0419 0.0943333 9.90067 0.19348 9.78365 0.317897C9.66663 0.442314 9.57632 0.589368 9.51827 0.750006C9.46022 0.910643 9.43566 1.08146 9.44611 1.25195L9.44611 25.7816L2.83257 19.0926C2.71945 18.9653 2.58157 18.8625 2.42734 18.7904C2.27312 18.7182 2.10581 18.6783 1.93563 18.6731C1.76546 18.6679 1.59601 18.6974 1.43765 18.76C1.2793 18.8225 1.13536 18.9167 1.01466 19.0368C0.893951 19.1568 0.799013 19.3003 0.735653 19.4583C0.672293 19.6163 0.641842 19.7856 0.646164 19.9559C0.650486 20.1261 0.689491 20.2936 0.76079 20.4482C0.83209 20.6028 0.934185 20.7413 1.06083 20.8551L9.75078 29.6301C9.86702 29.7466 10.0051 29.839 10.1571 29.9021C10.3091 29.9651 10.4721 29.9976 10.6366 29.9976C10.8012 29.9976 10.9642 29.9651 11.1162 29.9021C11.2682 29.839 11.4063 29.7466 11.5225 29.6301V29.6348Z" fill="#EEEEEE" fill-opacity="0.6"/>
</g>
<defs>
<clipPath id="clip0_259_3287">
<rect width="30" height="20" fill="white" transform="translate(20.6953) rotate(90)"/>
</clipPath>
</defs>
</svg>
