<svg width="21" height="29" viewBox="0 0 21 29" fill="none" xmlns="http://www.w3.org/2000/svg">
<g clip-path="url(#clip0_259_3659)">
<path d="M11.376 28.6464L20.1832 20.1639C20.4095 19.9356 20.5344 19.6308 20.5312 19.3146C20.528 18.9985 20.3968 18.6961 20.1659 18.4722C19.9349 18.2484 19.6225 18.1208 19.2955 18.1168C18.9684 18.1129 18.6528 18.2328 18.4161 18.451L11.7979 24.8265L11.7979 1.20963C11.8083 1.04483 11.7838 0.879702 11.7257 0.72442C11.6677 0.569137 11.5773 0.426984 11.4603 0.306714C11.3433 0.186445 11.2021 0.0906029 11.0453 0.0250904C10.8885 -0.0404221 10.7195 -0.0742187 10.5487 -0.0742187C10.378 -0.0742187 10.209 -0.0404221 10.0522 0.0250904C9.89542 0.0906029 9.75418 0.186445 9.63717 0.306714C9.52015 0.426984 9.42984 0.569137 9.37179 0.72442C9.31374 0.879702 9.28918 1.04483 9.29963 1.20963L9.29963 24.9217L2.68608 18.4556C2.57297 18.3326 2.43508 18.2331 2.28086 18.1634C2.12664 18.0937 1.95932 18.0551 1.78915 18.0501C1.61898 18.045 1.44953 18.0736 1.29117 18.1341C1.13281 18.1945 0.988876 18.2855 0.868172 18.4016C0.747467 18.5177 0.652529 18.6563 0.589169 18.8091C0.525808 18.9619 0.495358 19.1255 0.49968 19.2901C0.504002 19.4546 0.543007 19.6166 0.614305 19.766C0.685606 19.9155 0.787701 20.0493 0.914345 20.1593L9.60429 28.6418C9.72054 28.7544 9.85861 28.8438 10.0106 28.9048C10.1626 28.9657 10.3256 28.9971 10.4902 28.9971C10.6547 28.9971 10.8177 28.9657 10.9697 28.9048C11.1217 28.8438 11.2598 28.7544 11.376 28.6418V28.6464Z" fill="#EEEEEE" fill-opacity="0.6"/>
</g>
<defs>
<clipPath id="clip0_259_3659">
<rect width="29" height="20" fill="white" transform="translate(20.5488) rotate(90)"/>
</clipPath>
</defs>
</svg>
