<svg width="20" height="30" viewBox="0 0 20 30" fill="none" xmlns="http://www.w3.org/2000/svg">
<g clip-path="url(#clip0_259_3824)">
<path d="M10.9803 29.6348L19.347 20.8598C19.5621 20.6237 19.6807 20.3083 19.6777 19.9813C19.6746 19.6542 19.55 19.3414 19.3306 19.1098C19.1112 18.8782 18.8144 18.7462 18.5037 18.7422C18.1931 18.7381 17.8932 18.8622 17.6683 19.0879L11.381 25.6832L11.381 1.25195C11.3909 1.08146 11.3676 0.910643 11.3125 0.750006C11.2573 0.589368 11.1715 0.442314 11.0604 0.317897C10.9492 0.19348 10.815 0.0943333 10.6661 0.0265617C10.5171 -0.0412098 10.3566 -0.0761719 10.1944 -0.0761719C10.0321 -0.0761719 9.87157 -0.0412098 9.72264 0.0265617C9.5737 0.0943333 9.43952 0.19348 9.32835 0.317897C9.21719 0.442314 9.13139 0.589368 9.07624 0.750006C9.0211 0.910643 8.99777 1.08146 9.00769 1.25195L9.00769 25.7816L2.72482 19.0926C2.61737 18.9653 2.48637 18.8625 2.33986 18.7904C2.19335 18.7182 2.0344 18.6783 1.87274 18.6731C1.71107 18.6679 1.5501 18.6974 1.39966 18.76C1.24922 18.8225 1.11248 18.9167 0.997808 19.0368C0.883139 19.1568 0.79295 19.3003 0.732756 19.4583C0.672564 19.6163 0.643635 19.7856 0.647741 19.9559C0.651848 20.1261 0.688902 20.2936 0.756638 20.4482C0.824371 20.6028 0.921362 20.7413 1.04167 20.8551L9.29712 29.6301C9.40755 29.7466 9.53873 29.839 9.68314 29.9021C9.82755 29.9651 9.98236 29.9976 10.1387 29.9976C10.295 29.9976 10.4498 29.9651 10.5943 29.9021C10.7387 29.839 10.8698 29.7466 10.9803 29.6301V29.6348Z" fill="#EEEEEE" fill-opacity="0.6"/>
</g>
<defs>
<clipPath id="clip0_259_3824">
<rect width="30" height="19" fill="white" transform="translate(19.6953) rotate(90)"/>
</clipPath>
</defs>
</svg>
