<svg width="20" height="30" viewBox="0 0 20 30" fill="none" xmlns="http://www.w3.org/2000/svg">
<g clip-path="url(#clip0_259_3299)">
<path d="M10.9812 29.6348L19.348 20.8598C19.563 20.6237 19.6817 20.3083 19.6787 19.9813C19.6756 19.6542 19.551 19.3414 19.3316 19.1098C19.1122 18.8782 18.8154 18.7462 18.5047 18.7422C18.194 18.7381 17.8942 18.8622 17.6693 19.0879L11.382 25.6832L11.382 1.25195C11.3919 1.08146 11.3686 0.910643 11.3134 0.750006C11.2583 0.589368 11.1725 0.442314 11.0613 0.317897C10.9502 0.19348 10.816 0.0943333 10.6671 0.0265617C10.5181 -0.0412098 10.3576 -0.0761719 10.1953 -0.0761719C10.0331 -0.0761719 9.87255 -0.0412098 9.72361 0.0265617C9.57468 0.0943333 9.4405 0.19348 9.32933 0.317897C9.21817 0.442314 9.13237 0.589368 9.07722 0.750006C9.02207 0.910643 8.99874 1.08146 9.00867 1.25195L9.00867 25.7816L2.7258 19.0926C2.61834 18.9653 2.48735 18.8625 2.34084 18.7904C2.19433 18.7182 2.03538 18.6783 1.87371 18.6731C1.71205 18.6679 1.55107 18.6974 1.40063 18.76C1.25019 18.8225 1.11346 18.9167 0.998785 19.0368C0.884115 19.1568 0.793926 19.3003 0.733732 19.4583C0.67354 19.6163 0.644611 19.7856 0.648718 19.9559C0.652824 20.1261 0.689878 20.2936 0.757614 20.4482C0.825348 20.6028 0.922338 20.7413 1.04265 20.8551L9.2981 29.6301C9.40853 29.7466 9.53971 29.839 9.68412 29.9021C9.82853 29.9651 9.98333 29.9976 10.1397 29.9976C10.296 29.9976 10.4508 29.9651 10.5952 29.9021C10.7396 29.839 10.8708 29.7466 10.9812 29.6301V29.6348Z" fill="#EEEEEE" fill-opacity="0.6"/>
</g>
<defs>
<clipPath id="clip0_259_3299">
<rect width="30" height="19" fill="white" transform="translate(19.6953) rotate(90)"/>
</clipPath>
</defs>
</svg>
