<svg width="19" height="30" viewBox="0 0 19 30" fill="none" xmlns="http://www.w3.org/2000/svg">
<g clip-path="url(#clip0_259_3274)">
<path d="M10.2859 29.6348L18.6527 20.8598C18.8677 20.6237 18.9864 20.3083 18.9833 19.9813C18.9803 19.6542 18.8557 19.3414 18.6363 19.1098C18.4169 18.8782 18.1201 18.7462 17.8094 18.7422C17.4987 18.7381 17.1989 18.8622 16.974 19.0879L10.6867 25.6832L10.6867 1.25195C10.6966 1.08146 10.6733 0.910643 10.6181 0.750006C10.563 0.589368 10.4772 0.442314 10.366 0.317897C10.2549 0.19348 10.1207 0.0943333 9.97174 0.0265617C9.82281 -0.0412098 9.66228 -0.0761719 9.50002 -0.0761719C9.33777 -0.0761719 9.17723 -0.0412098 9.0283 0.0265617C8.87936 0.0943333 8.74518 0.19348 8.63402 0.317897C8.52285 0.442314 8.43705 0.589368 8.38191 0.750006C8.32676 0.910643 8.30343 1.08146 8.31336 1.25195L8.31336 25.7816L2.03049 19.0926C1.92303 18.9653 1.79204 18.8625 1.64553 18.7904C1.49901 18.7182 1.34007 18.6783 1.1784 18.6731C1.01674 18.6679 0.855761 18.6974 0.70532 18.76C0.554882 18.8225 0.418144 18.9167 0.303473 19.0368C0.188803 19.1568 0.0986137 19.3003 0.0384197 19.4583C-0.0217724 19.6163 -0.0507011 19.7856 -0.0465946 19.9559C-0.0424881 20.1261 -0.00543404 20.2936 0.0623016 20.4482C0.130035 20.6028 0.227026 20.7413 0.347338 20.8551L8.60279 29.6301C8.71322 29.7466 8.84439 29.839 8.9888 29.9021C9.13321 29.9651 9.28802 29.9976 9.44436 29.9976C9.60071 29.9976 9.75551 29.9651 9.89992 29.9021C10.0443 29.839 10.1755 29.7466 10.2859 29.6301V29.6348Z" fill="#EEEEEE" fill-opacity="0.6"/>
</g>
<defs>
<clipPath id="clip0_259_3274">
<rect width="30" height="19" fill="white" transform="translate(19) rotate(90)"/>
</clipPath>
</defs>
</svg>
