<svg width="198" height="57" viewBox="0 0 198 57" fill="none" xmlns="http://www.w3.org/2000/svg">
<path d="M196.213 50.4261C196.213 53.4637 193.702 55.9243 190.595 55.9243H6.7217C3.61634 55.9243 1.0957 53.4637 1.0957 50.4261V6.58049C1.0957 3.54432 3.61634 1.0752 6.7217 1.0752H190.593C193.702 1.0752 196.212 3.54432 196.212 6.58049L196.213 50.4261Z" fill="black"/>
<path d="M190.002 1.14178C193.386 1.14178 196.139 3.82613 196.139 7.125V49.875C196.139 53.1739 193.386 55.8582 190.002 55.8582H7.30778C3.92428 55.8582 1.17107 53.1739 1.17107 49.875V7.125C1.17107 3.82613 3.92428 1.14178 7.30778 1.14178H190.002ZM190.002 3.8147e-06H7.30778C3.29033 3.8147e-06 0 3.20804 0 7.125V49.875C0 53.792 3.29033 57 7.30778 57H190.002C194.02 57 197.31 53.792 197.31 49.875V7.125C197.31 3.20804 194.02 3.8147e-06 190.002 3.8147e-06Z" fill="#A6A6A6"/>
<path d="M44.033 28.1923C43.9906 23.5996 47.89 21.3652 48.0683 21.2611C45.8599 18.1219 42.437 17.6929 41.2341 17.6587C38.3592 17.3638 35.5706 19.336 34.1061 19.336C32.6124 19.336 30.3572 17.6872 27.9266 17.7357C24.7989 17.7827 21.8729 19.5483 20.2681 22.29C16.9562 27.8803 19.4262 36.0954 22.5993 40.6141C24.1865 42.8271 26.0412 45.298 28.4689 45.2111C30.8439 45.1156 31.7311 43.7348 34.5972 43.7348C37.437 43.7348 38.2701 45.2111 40.7459 45.1555C43.2949 45.1156 44.8997 42.9325 46.4314 40.6996C48.2656 38.1631 49.0023 35.665 49.0315 35.5368C48.9716 35.5168 44.0812 33.6971 44.033 28.1923Z" fill="white"/>
<path d="M39.356 14.6862C40.6334 13.1287 41.5074 11.0097 41.2648 8.85938C39.4159 8.93917 37.1037 10.1063 35.7723 11.6296C34.5943 12.9719 33.5419 15.1721 33.8138 17.2412C35.8907 17.3923 38.0231 16.2195 39.356 14.6862Z" fill="white"/>
<path d="M71.6903 14.2626C71.6903 15.9399 71.1744 17.2024 70.144 18.0503C69.1896 18.8326 67.8333 19.2245 66.0765 19.2245C65.2054 19.2245 64.46 19.1874 63.8359 19.1133V9.94917C64.65 9.82092 65.527 9.75537 66.474 9.75537C68.1475 9.75537 69.4089 10.1102 70.2595 10.8198C71.2124 11.6221 71.6903 12.7692 71.6903 14.2626ZM70.0753 14.304C70.0753 13.2167 69.7801 12.3831 69.1896 11.8017C68.5992 11.2217 67.7368 10.931 66.6012 10.931C66.1189 10.931 65.7082 10.9623 65.3676 11.0279V17.9947C65.5562 18.0232 65.9011 18.036 66.4024 18.036C67.5746 18.036 68.4793 17.7183 69.1165 17.0827C69.7538 16.4472 70.0753 15.5209 70.0753 14.304Z" fill="white"/>
<path d="M80.2539 15.728C80.2539 16.7612 79.9513 17.6076 79.3462 18.2717C78.7119 18.9542 77.8715 19.2948 76.8221 19.2948C75.8107 19.2948 75.0054 18.9685 74.4047 18.313C73.8055 17.6589 73.5059 16.8338 73.5059 15.8392C73.5059 14.7989 73.8142 13.9454 74.4339 13.2827C75.0536 12.6201 75.8867 12.2881 76.9361 12.2881C77.9475 12.2881 78.7602 12.6144 79.3755 13.2685C79.9601 13.904 80.2539 14.7248 80.2539 15.728ZM78.6652 15.7765C78.6652 15.1566 78.5278 14.6251 78.2545 14.1819C77.9329 13.6461 77.4755 13.3782 76.8806 13.3782C76.2653 13.3782 75.7976 13.6461 75.476 14.1819C75.2013 14.6251 75.0653 15.1652 75.0653 15.8036C75.0653 16.4234 75.2027 16.955 75.476 17.3981C75.8078 17.9339 76.2697 18.2018 76.866 18.2018C77.4506 18.2018 77.9095 17.9297 78.2398 17.3839C78.5234 16.9322 78.6652 16.3964 78.6652 15.7765Z" fill="white"/>
<path d="M91.7363 12.4248L89.5805 19.1423H88.1774L87.2844 16.2253C87.0579 15.4971 86.8737 14.7732 86.7305 14.055H86.7027C86.5697 14.7932 86.3856 15.5156 86.1488 16.2253L85.2002 19.1423H83.7811L81.7539 12.4248H83.328L84.107 15.6182C84.2955 16.3735 84.4505 17.0931 84.5747 17.7743H84.6025C84.7165 17.2128 84.905 16.4975 85.171 15.6325L86.1488 12.4262H87.397L88.3338 15.5641C88.5604 16.3293 88.7445 17.066 88.8863 17.7757H88.9287C89.0324 17.0846 89.1888 16.3478 89.3964 15.5641L90.2324 12.4262H91.7363V12.4248Z" fill="white"/>
<path d="M99.6758 19.1417H98.1441V15.2942C98.1441 14.1086 97.6823 13.5158 96.7557 13.5158C96.3011 13.5158 95.9343 13.6783 95.6493 14.0046C95.3672 14.3309 95.224 14.7157 95.224 15.156V19.1403H93.6922V14.3438C93.6922 13.7538 93.6733 13.114 93.6367 12.4214H94.9828L95.0544 13.4717H95.0968C95.2751 13.1453 95.5411 12.876 95.8904 12.6608C96.3055 12.41 96.7703 12.2832 97.2789 12.2832C97.922 12.2832 98.4569 12.4856 98.8822 12.8917C99.4113 13.389 99.6758 14.1314 99.6758 15.1175V19.1417V19.1417Z" fill="white"/>
<path d="M103.899 19.142H102.369V9.34229H103.899V19.142Z" fill="white"/>
<path d="M112.918 15.7275C112.918 16.7607 112.615 17.6071 112.01 18.2712C111.376 18.9537 110.534 19.2943 109.486 19.2943C108.473 19.2943 107.668 18.968 107.069 18.3125C106.47 17.6584 106.17 16.8333 106.17 15.8387C106.17 14.7984 106.478 13.9449 107.098 13.2822C107.718 12.6196 108.551 12.2876 109.599 12.2876C110.612 12.2876 111.423 12.6139 112.04 13.268C112.624 13.9035 112.918 14.7243 112.918 15.7275ZM111.328 15.776C111.328 15.1561 111.19 14.6246 110.917 14.1814C110.597 13.6456 110.138 13.3777 109.545 13.3777C108.928 13.3777 108.46 13.6456 108.14 14.1814C107.865 14.6246 107.729 15.1647 107.729 15.8031C107.729 16.4229 107.867 16.9545 108.14 17.3976C108.472 17.9334 108.934 18.2013 109.53 18.2013C110.115 18.2013 110.572 17.9292 110.902 17.3834C111.187 16.9317 111.328 16.3959 111.328 15.776Z" fill="white"/>
<path d="M120.33 19.1423H118.955L118.841 18.3686H118.798C118.328 18.9856 117.657 19.2948 116.786 19.2948C116.135 19.2948 115.609 19.091 115.213 18.6863C114.854 18.3187 114.674 17.8613 114.674 17.3183C114.674 16.4975 115.025 15.872 115.731 15.4388C116.435 15.0056 117.426 14.7932 118.702 14.8032V14.6778C118.702 13.7929 118.225 13.3511 117.271 13.3511C116.591 13.3511 115.992 13.5179 115.475 13.8485L115.163 12.8681C115.804 12.4819 116.594 12.2881 117.527 12.2881C119.327 12.2881 120.231 13.2143 120.231 15.0668V17.5406C120.231 18.2118 120.264 18.7462 120.33 19.1423ZM118.74 16.8338V15.7979C117.05 15.7694 116.206 16.2211 116.206 17.1516C116.206 17.5022 116.302 17.7644 116.499 17.9396C116.697 18.1149 116.948 18.2018 117.248 18.2018C117.584 18.2018 117.898 18.0978 118.184 17.8912C118.472 17.6831 118.649 17.4195 118.715 17.096C118.731 17.0234 118.74 16.935 118.74 16.8338Z" fill="white"/>
<path d="M129.034 19.142H127.675L127.603 18.0633H127.561C127.127 18.8841 126.387 19.2945 125.348 19.2945C124.518 19.2945 123.827 18.9767 123.278 18.3412C122.73 17.7056 122.457 16.8805 122.457 15.8674C122.457 14.7801 122.754 13.8994 123.35 13.2268C123.927 12.5998 124.635 12.2863 125.477 12.2863C126.402 12.2863 127.049 12.5899 127.418 13.1983H127.447V9.34229H128.98V17.3323C128.98 17.9863 128.997 18.5891 129.034 19.142ZM127.447 16.3091V15.1891C127.447 14.9953 127.432 14.8385 127.404 14.7188C127.318 14.3597 127.133 14.0576 126.85 13.8139C126.565 13.5703 126.222 13.4477 125.826 13.4477C125.254 13.4477 124.807 13.6686 124.478 14.1118C124.152 14.5549 123.987 15.1207 123.987 15.8118C123.987 16.4758 124.144 17.0145 124.458 17.4292C124.79 17.8709 125.237 18.0918 125.797 18.0918C126.299 18.0918 126.701 17.908 127.007 17.5389C127.302 17.1983 127.447 16.7879 127.447 16.3091Z" fill="white"/>
<path d="M142.135 15.728C142.135 16.7612 141.832 17.6076 141.227 18.2717C140.593 18.9542 139.754 19.2948 138.703 19.2948C137.693 19.2948 136.888 18.9685 136.286 18.313C135.686 17.6589 135.387 16.8338 135.387 15.8392C135.387 14.7989 135.695 13.9454 136.315 13.2827C136.935 12.6201 137.768 12.2881 138.818 12.2881C139.828 12.2881 140.642 12.6144 141.256 13.2685C141.841 13.904 142.135 14.7248 142.135 15.728ZM140.547 15.7765C140.547 15.1566 140.41 14.6251 140.137 14.1819C139.814 13.6461 139.358 13.3782 138.761 13.3782C138.148 13.3782 137.68 13.6461 137.357 14.1819C137.082 14.6251 136.946 15.1652 136.946 15.8036C136.946 16.4234 137.084 16.955 137.357 17.3981C137.689 17.9339 138.151 18.2018 138.747 18.2018C139.331 18.2018 139.792 17.9297 140.122 17.3839C140.404 16.9322 140.547 16.3964 140.547 15.7765Z" fill="white"/>
<path d="M150.37 19.1417H148.839V15.2942C148.839 14.1086 148.378 13.5158 147.45 13.5158C146.995 13.5158 146.628 13.6783 146.345 14.0046C146.061 14.3309 145.919 14.7157 145.919 15.156V19.1403H144.386V14.3438C144.386 13.7538 144.369 13.114 144.332 12.4214H145.677L145.748 13.4717H145.791C145.97 13.1453 146.236 12.876 146.584 12.6608C147.001 12.41 147.464 12.2832 147.974 12.2832C148.616 12.2832 149.151 12.4856 149.576 12.8917C150.107 13.389 150.37 14.1314 150.37 15.1175V19.1417V19.1417Z" fill="white"/>
<path d="M160.679 13.543H158.992V16.8063C158.992 17.6356 159.292 18.0503 159.885 18.0503C160.16 18.0503 160.388 18.0275 160.568 17.9805L160.607 19.1134C160.304 19.2245 159.907 19.2801 159.417 19.2801C158.812 19.2801 158.342 19.1005 158.001 18.7414C157.659 18.3823 157.49 17.7781 157.49 16.9303V13.543H156.483V12.4244H157.49V11.1932L158.991 10.7515V12.423H160.677V13.543H160.679Z" fill="white"/>
<path d="M168.786 19.142H167.253V15.323C167.253 14.1189 166.791 13.5161 165.866 13.5161C165.156 13.5161 164.671 13.8652 164.405 14.5635C164.359 14.7103 164.333 14.8898 164.333 15.1007V19.1406H162.803V9.34229H164.333V13.3907H164.362C164.845 12.654 165.536 12.2863 166.432 12.2863C167.066 12.2863 167.591 12.4887 168.007 12.8948C168.526 13.4007 168.786 14.1531 168.786 15.1477V19.142V19.142Z" fill="white"/>
<path d="M177.153 15.4655C177.153 15.7334 177.132 15.9585 177.096 16.1424H172.502C172.523 16.8064 172.742 17.3123 173.167 17.6628C173.556 17.9763 174.057 18.1331 174.671 18.1331C175.351 18.1331 175.97 18.0276 176.529 17.8153L176.768 18.8527C176.115 19.1291 175.346 19.2674 174.456 19.2674C173.389 19.2674 172.549 18.961 171.941 18.3483C171.33 17.7355 171.027 16.9133 171.027 15.8816C171.027 14.8684 171.309 14.0248 171.878 13.3522C172.471 12.634 173.274 12.2749 174.287 12.2749C175.278 12.2749 176.03 12.634 176.539 13.3522C176.95 13.9222 177.153 14.6276 177.153 15.4655ZM175.691 15.0793C175.703 14.6361 175.602 14.2542 175.394 13.9322C175.128 13.5175 174.724 13.3095 174.176 13.3095C173.676 13.3095 173.268 13.5118 172.957 13.9179C172.702 14.2414 172.552 14.6276 172.502 15.0793H175.691Z" fill="white"/>
<path d="M78.4049 44.8931H75.0858L73.2676 39.3228H66.9478L65.2159 44.8931H61.9844L68.2457 25.9292H72.113L78.4049 44.8931ZM72.7195 36.9858L71.0752 32.0339C70.9013 31.528 70.5754 30.3367 70.0945 28.4614H70.0361C69.8446 29.268 69.5362 30.4593 69.1124 32.0339L67.4974 36.9858H72.7195V36.9858Z" fill="white"/>
<path d="M94.5062 37.8882C94.5062 40.2138 93.8617 42.0521 92.5726 43.4015C91.418 44.6028 89.9842 45.2027 88.2727 45.2027C86.4253 45.2027 85.0982 44.5558 84.29 43.2619H84.2315V50.4653H81.1155V35.7208C81.1155 34.2587 81.076 32.7582 81 31.2192H83.7404L83.9143 33.3866H83.9728C85.012 31.7536 86.589 30.9385 88.7053 30.9385C90.3598 30.9385 91.741 31.5755 92.8459 32.8508C93.9538 34.1276 94.5062 35.8063 94.5062 37.8882ZM91.3317 37.9994C91.3317 36.6684 91.0248 35.5712 90.408 34.7076C89.7343 33.807 88.8295 33.3567 87.6954 33.3567C86.9266 33.3567 86.228 33.6075 85.6039 34.102C84.9783 34.6007 84.5691 35.252 84.3776 36.0585C84.2812 36.4347 84.233 36.7425 84.233 36.9848V39.2648C84.233 40.2594 84.5457 41.0987 85.1713 41.7842C85.7968 42.4696 86.6094 42.8116 87.6092 42.8116C88.7828 42.8116 89.6963 42.3698 90.3496 41.4892C91.0043 40.6071 91.3317 39.4443 91.3317 37.9994Z" fill="white"/>
<path d="M110.638 37.8882C110.638 40.2138 109.993 42.0521 108.702 43.4015C107.549 44.6028 106.116 45.2027 104.404 45.2027C102.557 45.2027 101.23 44.5558 100.423 43.2619H100.364V50.4653H97.2483V35.7208C97.2483 34.2587 97.2088 32.7582 97.1328 31.2192H99.8732L100.047 33.3866H100.106C101.143 31.7536 102.72 30.9385 104.838 30.9385C106.491 30.9385 107.872 31.5755 108.98 32.8508C110.084 34.1276 110.638 35.8063 110.638 37.8882ZM107.463 37.9994C107.463 36.6684 107.155 35.5712 106.538 34.7076C105.864 33.807 104.962 33.3567 103.827 33.3567C103.057 33.3567 102.359 33.6075 101.734 34.102C101.108 34.6007 100.7 35.252 100.509 36.0585C100.414 36.4347 100.364 36.7425 100.364 36.9848V39.2648C100.364 40.2594 100.677 41.0987 101.3 41.7842C101.925 42.4682 102.738 42.8116 103.741 42.8116C104.914 42.8116 105.828 42.3698 106.481 41.4892C107.136 40.6071 107.463 39.4443 107.463 37.9994Z" fill="white"/>
<path d="M128.674 39.575C128.674 41.1881 128.1 42.5006 126.946 43.5137C125.679 44.621 123.915 45.1739 121.648 45.1739C119.555 45.1739 117.878 44.7806 116.607 43.9925L117.329 41.4603C118.697 42.2669 120.198 42.6716 121.834 42.6716C123.008 42.6716 123.921 42.4122 124.577 41.8964C125.231 41.3805 125.557 40.688 125.557 39.8244C125.557 39.0549 125.288 38.4065 124.748 37.8807C124.212 37.3549 123.316 36.8661 122.065 36.4144C118.659 35.1761 116.958 33.362 116.958 30.9766C116.958 29.4176 117.555 28.1394 118.749 27.1448C119.938 26.1487 121.526 25.6514 123.51 25.6514C125.28 25.6514 126.751 25.952 127.924 26.552L127.145 29.0286C126.049 28.4472 124.81 28.1565 123.423 28.1565C122.326 28.1565 121.47 28.4201 120.856 28.9445C120.337 29.4134 120.077 29.9848 120.077 30.6617C120.077 31.4112 120.374 32.0311 120.97 32.5184C121.489 32.9687 122.432 33.4561 123.8 33.9819C125.473 34.6388 126.702 35.4069 127.493 36.2876C128.281 37.1654 128.674 38.264 128.674 39.575Z" fill="white"/>
<path d="M138.977 33.4987H135.542V40.1378C135.542 41.8264 136.147 42.67 137.36 42.67C137.917 42.67 138.379 42.623 138.744 42.5289L138.831 44.836C138.217 45.0597 137.409 45.1723 136.407 45.1723C135.177 45.1723 134.215 44.8061 133.521 44.075C132.83 43.3426 132.482 42.1142 132.482 40.3886V33.4958H130.436V31.2158H132.482V28.7121L135.542 27.8115V31.2158H138.977V33.4987Z" fill="white"/>
<path d="M154.473 37.9433C154.473 40.0452 153.857 41.7709 152.626 43.1204C151.336 44.5097 149.623 45.2023 147.487 45.2023C145.429 45.2023 143.791 44.5368 142.569 43.2059C141.347 41.8749 140.736 40.1948 140.736 38.1699C140.736 36.0509 141.365 34.3153 142.626 32.9658C143.885 31.6149 145.583 30.9395 147.718 30.9395C149.776 30.9395 151.432 31.6049 152.682 32.9373C153.877 34.2298 154.473 35.8985 154.473 37.9433ZM151.241 38.0417C151.241 36.7805 150.964 35.699 150.405 34.7969C149.751 33.7054 148.817 33.161 147.607 33.161C146.355 33.161 145.403 33.7068 144.75 34.7969C144.19 35.7004 143.914 36.7991 143.914 38.0987C143.914 39.3598 144.19 40.4414 144.75 41.342C145.424 42.4335 146.365 42.9779 147.579 42.9779C148.769 42.9779 149.703 42.4221 150.377 41.3135C150.951 40.3943 151.241 39.3014 151.241 38.0417Z" fill="white"/>
<path d="M164.601 33.8911C164.293 33.8355 163.964 33.807 163.619 33.807C162.523 33.807 161.675 34.2103 161.079 35.0182C160.56 35.7307 160.3 36.6314 160.3 37.7186V44.8935H157.185L157.215 35.5256C157.215 33.9495 157.175 32.5145 157.098 31.2206H159.812L159.926 33.8369H160.012C160.341 32.9378 160.86 32.2139 161.57 31.6709C162.264 31.1822 163.014 30.9385 163.822 30.9385C164.11 30.9385 164.37 30.9584 164.601 30.9941V33.8911Z" fill="white"/>
<path d="M178.538 37.4087C178.538 37.953 178.502 38.4119 178.424 38.7867H169.076C169.113 40.1376 169.564 41.1707 170.433 41.8832C171.22 42.5202 172.239 42.8394 173.49 42.8394C174.874 42.8394 176.137 42.6242 177.273 42.1924L177.761 44.3014C176.434 44.8657 174.867 45.1464 173.059 45.1464C170.884 45.1464 169.177 44.5223 167.935 43.2754C166.695 42.0285 166.074 40.3542 166.074 38.2537C166.074 36.1917 166.652 34.4746 167.808 33.1052C169.018 31.6431 170.653 30.9121 172.711 30.9121C174.732 30.9121 176.263 31.6431 177.302 33.1052C178.125 34.2666 178.538 35.703 178.538 37.4087ZM175.567 36.6207C175.587 35.7201 175.384 34.942 174.962 34.2851C174.423 33.4401 173.594 33.0183 172.479 33.0183C171.46 33.0183 170.631 33.4301 169.998 34.2566C169.48 34.9135 169.171 35.7015 169.076 36.6192H175.567V36.6207Z" fill="white"/>
</svg>
