<svg width="198" height="57" viewBox="0 0 198 57" fill="none" xmlns="http://www.w3.org/2000/svg">
<path d="M190 57H7.30769C3.29029 57 0 53.792 0 49.875V7.12504C0 3.20808 3.29029 4.95911e-05 7.30769 4.95911e-05H190C194.017 4.95911e-05 197.308 3.20808 197.308 7.12504V49.875C197.308 53.792 194.017 57 190 57Z" fill="black"/>
<path d="M190 1.14183C193.383 1.14183 196.136 3.82617 196.136 7.12504V49.875C196.136 53.1739 193.383 55.8582 190 55.8582H7.30769C3.92423 55.8582 1.17106 53.1739 1.17106 49.875V7.12504C1.17106 3.82617 3.92423 1.14183 7.30769 1.14183H190ZM190 4.95911e-05H7.30769C3.29029 4.95911e-05 0 3.20808 0 7.12504V49.875C0 53.792 3.29029 57 7.30769 57H190C194.017 57 197.308 53.792 197.308 49.875V7.12504C197.308 3.20808 194.017 4.95911e-05 190 4.95911e-05Z" fill="#A6A6A6"/>
<path d="M15.252 10.743C14.8227 11.1812 14.5742 11.8634 14.5742 12.7469V44.2607C14.5742 45.1442 14.8227 45.8265 15.252 46.2647L15.358 46.3608L33.4701 28.7087V28.2919L15.358 10.6397L15.252 10.743Z" fill="url(#paint0_linear_259_743)"/>
<path d="M39.5014 34.5962L33.4707 28.7092V28.2924L39.5087 22.4053L39.6439 22.4819L46.7944 26.4488C48.8351 27.5745 48.8351 29.427 46.7944 30.5599L39.6439 34.5196L39.5014 34.5962V34.5962Z" fill="url(#paint1_linear_259_743)"/>
<path d="M39.6432 34.5193L33.47 28.5004L15.252 46.2648C15.9298 46.9595 17.0351 47.0432 18.292 46.3485L39.6432 34.5193" fill="url(#paint2_linear_259_743)"/>
<path d="M39.6432 22.4817L18.292 10.6524C17.0351 9.96482 15.9298 10.0485 15.252 10.7432L33.47 28.5005L39.6432 22.4817Z" fill="url(#paint3_linear_259_743)"/>
<path d="M69.3017 14.5974C69.3017 15.7873 68.9363 16.7403 68.2165 17.451C67.3889 18.2935 66.3111 18.7175 64.9902 18.7175C63.7278 18.7175 62.6499 18.2864 61.7657 17.4367C60.8796 16.5746 60.4375 15.5166 60.4375 14.2501C60.4375 12.9836 60.8796 11.9256 61.7657 11.0706C62.6499 10.2138 63.7278 9.78271 64.9902 9.78271C65.6187 9.78271 66.2179 9.90918 66.7897 10.1443C67.3597 10.3812 67.8237 10.7018 68.1599 11.0973L67.3962 11.849C66.8098 11.1739 66.0114 10.8408 64.9902 10.8408C64.0694 10.8408 63.2711 11.1543 62.5933 11.7866C61.9228 12.4207 61.5866 13.2419 61.5866 14.2501C61.5866 15.2583 61.9228 16.0866 62.5933 16.7207C63.2711 17.3459 64.0694 17.6665 64.9902 17.6665C65.9676 17.6665 66.7897 17.3459 67.4383 16.7135C67.8658 16.295 68.1087 15.7178 68.1727 14.9804H64.9902V13.9508H69.236C69.2871 14.1735 69.3017 14.389 69.3017 14.5974V14.5974Z" fill="white" stroke="white" stroke-width="0.16" stroke-miterlimit="10"/>
<path d="M76.0371 11.0277H72.049V13.7352H75.6443V14.7647H72.049V17.4722H76.0371V18.5214H70.9199V9.97852H76.0371V11.0277Z" fill="white" stroke="white" stroke-width="0.16" stroke-miterlimit="10"/>
<path d="M80.7921 18.5214H79.663V11.0277H77.2168V9.97852H83.2402V11.0277H80.7921V18.5214V18.5214Z" fill="white" stroke="white" stroke-width="0.16" stroke-miterlimit="10"/>
<path d="M87.5977 18.5214V9.97852H88.7249V18.5214H87.5977Z" fill="white" stroke="white" stroke-width="0.16" stroke-miterlimit="10"/>
<path d="M93.7218 18.5214H92.6019V11.0277H90.1465V9.97852H96.1771V11.0277H93.7218V18.5214Z" fill="white" stroke="white" stroke-width="0.16" stroke-miterlimit="10"/>
<path d="M107.582 17.423C106.718 18.2869 105.647 18.7179 104.37 18.7179C103.086 18.7179 102.015 18.2869 101.151 17.423C100.289 16.5609 99.8594 15.5028 99.8594 14.2506C99.8594 12.9984 100.289 11.9403 101.151 11.0782C102.015 10.2143 103.086 9.7832 104.37 9.7832C105.64 9.7832 106.71 10.2143 107.574 11.0853C108.444 11.9545 108.873 13.0055 108.873 14.2506C108.873 15.5028 108.444 16.5609 107.582 17.423ZM101.986 16.7069C102.636 17.3464 103.427 17.667 104.37 17.667C105.305 17.667 106.104 17.3464 106.747 16.7069C107.395 16.0674 107.724 15.2463 107.724 14.2506C107.724 13.2549 107.395 12.4337 106.747 11.7942C106.104 11.1548 105.305 10.8341 104.37 10.8341C103.427 10.8341 102.636 11.1548 101.986 11.7942C101.337 12.4337 101.009 13.2549 101.009 14.2506C101.009 15.2463 101.337 16.0674 101.986 16.7069V16.7069Z" fill="white" stroke="white" stroke-width="0.16" stroke-miterlimit="10"/>
<path d="M110.457 18.5219V9.979H111.827L116.087 16.6231H116.137L116.087 14.9807V9.979H117.215V18.5219H116.038L111.577 11.5501H111.527L111.577 13.1995V18.5219H110.457V18.5219Z" fill="white" stroke="white" stroke-width="0.16" stroke-miterlimit="10"/>
<path d="M99.5828 30.9974C96.15 30.9974 93.3457 33.5446 93.3457 37.059C93.3457 40.5449 96.15 43.1188 99.5828 43.1188C103.023 43.1188 105.827 40.5449 105.827 37.059C105.827 33.5446 103.023 30.9974 99.5828 30.9974ZM99.5828 40.732C97.6992 40.732 96.0787 39.2161 96.0787 37.059C96.0787 34.8734 97.6992 33.3843 99.5828 33.3843C101.466 33.3843 103.094 34.8734 103.094 37.059C103.094 39.2161 101.466 40.732 99.5828 40.732V40.732ZM85.974 30.9974C82.5339 30.9974 79.7369 33.5446 79.7369 37.059C79.7369 40.5449 82.5339 43.1188 85.974 43.1188C89.4123 43.1188 92.2111 40.5449 92.2111 37.059C92.2111 33.5446 89.4123 30.9974 85.974 30.9974ZM85.974 40.732C84.0886 40.732 82.4627 39.2161 82.4627 37.059C82.4627 34.8734 84.0886 33.3843 85.974 33.3843C87.8576 33.3843 89.4781 34.8734 89.4781 37.059C89.4781 39.2161 87.8576 40.732 85.974 40.732ZM69.7802 32.8553V35.431H76.0886C75.904 36.8702 75.4108 37.9283 74.6544 38.6657C73.7337 39.5563 72.2995 40.5449 69.7802 40.5449C65.898 40.5449 62.858 37.4901 62.858 33.7049C62.858 29.9198 65.898 26.8649 69.7802 26.8649C71.8793 26.8649 73.4066 27.6647 74.5338 28.7014L76.3955 26.8863C74.8188 25.4186 72.7215 24.291 69.7802 24.291C64.4565 24.291 59.9824 28.5144 59.9824 33.7049C59.9824 38.8955 64.4565 43.1188 69.7802 43.1188C72.6576 43.1188 74.8188 42.1997 76.5179 40.4755C78.2589 38.7779 78.8015 36.3911 78.8015 34.4638C78.8015 33.8653 78.7504 33.3148 78.659 32.8553H69.7802ZM135.999 34.8521C135.485 33.4965 133.901 30.9974 130.675 30.9974C127.478 30.9974 124.816 33.4538 124.816 37.059C124.816 40.4541 127.451 43.1188 130.982 43.1188C133.838 43.1188 135.485 41.4213 136.163 40.4327L134.044 39.0558C133.337 40.064 132.374 40.732 130.982 40.732C129.599 40.732 128.607 40.1139 127.971 38.8955L136.286 35.5414L135.999 34.8521V34.8521ZM127.522 36.8702C127.451 34.5332 129.383 33.3362 130.768 33.3362C131.853 33.3362 132.774 33.8653 133.081 34.6223L127.522 36.8702V36.8702ZM120.764 42.7501H123.497V24.9376H120.764V42.7501ZM116.288 32.3476H116.197C115.583 31.6387 114.412 30.9974 112.928 30.9974C109.815 30.9974 106.969 33.6622 106.969 37.0786C106.969 40.4755 109.815 43.1188 112.928 43.1188C114.412 43.1188 115.583 42.4722 116.197 41.7419H116.288V42.6112C116.288 44.9286 115.018 46.1737 112.97 46.1737C111.301 46.1737 110.265 44.9981 109.837 44.0095L107.46 44.9767C108.146 46.5834 109.96 48.5605 112.97 48.5605C116.175 48.5605 118.879 46.7223 118.879 42.2496V31.3662H116.288V32.3476V32.3476ZM113.162 40.732C111.279 40.732 109.702 39.1947 109.702 37.0786C109.702 34.9429 111.279 33.3843 113.162 33.3843C115.018 33.3843 116.482 34.9429 116.482 37.0786C116.482 39.1947 115.018 40.732 113.162 40.732V40.732ZM148.795 24.9376H142.258V42.7501H144.984V36.001H148.795C151.822 36.001 154.79 33.8653 154.79 30.4684C154.79 27.0734 151.814 24.9376 148.795 24.9376V24.9376ZM148.866 33.5233H144.984V27.4154H148.866C150.901 27.4154 152.063 29.063 152.063 30.4684C152.063 31.8471 150.901 33.5233 148.866 33.5233ZM165.715 30.9636C163.746 30.9636 161.698 31.8115 160.856 33.6907L163.275 34.6793C163.795 33.6907 164.753 33.3701 165.765 33.3701C167.179 33.3701 168.613 34.1983 168.635 35.6608V35.8478C168.142 35.5699 167.086 35.1584 165.787 35.1584C163.182 35.1584 160.527 36.5567 160.527 39.1662C160.527 41.5531 162.661 43.0903 165.06 43.0903C166.894 43.0903 167.906 42.2834 168.542 41.3447H168.635V42.7216H171.267V35.8888C171.267 32.7306 168.849 30.9636 165.715 30.9636ZM165.387 40.7248C164.495 40.7248 163.253 40.2938 163.253 39.2161C163.253 37.8374 164.802 37.3084 166.143 37.3084C167.343 37.3084 167.906 37.5667 168.635 37.9069C168.421 39.5563 166.965 40.7248 165.387 40.7248V40.7248ZM180.859 31.3537L177.726 39.0754H177.632L174.393 31.3537H171.454L176.321 42.1445L173.544 48.1491H176.392L183.892 31.3537H180.859V31.3537ZM156.289 42.7501H159.022V24.9376H156.289V42.7501Z" fill="white"/>
<defs>
<linearGradient id="paint0_linear_259_743" x1="31.8619" y1="44.5889" x2="7.95469" y2="20.0687" gradientUnits="userSpaceOnUse">
<stop stop-color="#00A0FF"/>
<stop offset="0.0066" stop-color="#00A1FF"/>
<stop offset="0.2601" stop-color="#00BEFF"/>
<stop offset="0.5122" stop-color="#00D2FF"/>
<stop offset="0.7604" stop-color="#00DFFF"/>
<stop offset="1" stop-color="#00E3FF"/>
</linearGradient>
<linearGradient id="paint1_linear_259_743" x1="49.4517" y1="28.4988" x2="14.0871" y2="28.4988" gradientUnits="userSpaceOnUse">
<stop stop-color="#FFE000"/>
<stop offset="0.4087" stop-color="#FFBD00"/>
<stop offset="0.7754" stop-color="#FFA500"/>
<stop offset="1" stop-color="#FF9C00"/>
</linearGradient>
<linearGradient id="paint2_linear_259_743" x1="36.2864" y1="25.2285" x2="3.86627" y2="-8.02294" gradientUnits="userSpaceOnUse">
<stop stop-color="#FF3A44"/>
<stop offset="1" stop-color="#C31162"/>
</linearGradient>
<linearGradient id="paint3_linear_259_743" x1="10.6661" y1="56.7494" x2="25.1432" y2="41.9013" gradientUnits="userSpaceOnUse">
<stop stop-color="#32A071"/>
<stop offset="0.0685" stop-color="#2DA771"/>
<stop offset="0.4762" stop-color="#15CF74"/>
<stop offset="0.8009" stop-color="#06E775"/>
<stop offset="1" stop-color="#00F076"/>
</linearGradient>
</defs>
</svg>
