<svg width="18" height="22" viewBox="0 0 18 22" fill="none" xmlns="http://www.w3.org/2000/svg">
<path fill-rule="evenodd" clip-rule="evenodd" d="M9 0C13.9625 0 18 4.068 18 9.06873C18 15.216 10.9571 21.2727 9 21.2727C7.04291 21.2727 0 15.216 0 9.06873C0 4.068 4.03746 0 9 0ZM9 1.63636C4.93964 1.63636 1.63636 4.97127 1.63636 9.06873C1.63636 14.2822 7.77164 19.3615 9 19.632C10.2284 19.3604 16.3636 14.2811 16.3636 9.06873C16.3636 4.97127 13.0604 1.63636 9 1.63636ZM9.00109 5.45455C10.956 5.45455 12.5465 7.04509 12.5465 9.00109C12.5465 10.956 10.956 12.5455 9.00109 12.5455C7.04618 12.5455 5.45564 10.956 5.45564 9.00109C5.45564 7.04509 7.04618 5.45455 9.00109 5.45455ZM9.00109 7.09091C7.94836 7.09091 7.092 7.94727 7.092 9.00109C7.092 10.0538 7.94836 10.9091 9.00109 10.9091C10.0538 10.9091 10.9102 10.0538 10.9102 9.00109C10.9102 7.94727 10.0538 7.09091 9.00109 7.09091Z" fill="#EEEEEE"/>
</svg>
