<svg width="10" height="12" viewBox="0 0 10 12" fill="none" xmlns="http://www.w3.org/2000/svg">
<path d="M9.24945 6.99443C9.19974 7.04545 9.01208 7.2636 8.83727 7.44304C7.81239 8.5716 5.1388 10.4188 3.73944 10.9827C3.52693 11.0733 2.98964 11.265 2.70257 11.2773C2.4275 11.2773 2.16528 11.214 1.91506 11.0856C1.60314 10.9061 1.35292 10.6238 1.21581 10.2904C1.12755 10.0591 0.990443 9.36679 0.990443 9.35447C0.853335 8.59711 0.777926 7.36651 0.777926 6.0066C0.777926 4.71091 0.853335 3.53045 0.965592 2.76165C0.978446 2.74934 1.11555 1.88906 1.26551 1.59438C1.54059 1.05605 2.07788 0.721792 2.65287 0.721792H2.70257C3.07704 0.734986 3.86456 1.06925 3.86456 1.08156C5.1885 1.64628 7.80039 3.4029 8.85012 4.57017C8.85012 4.57017 9.14576 4.87012 9.2743 5.05748C9.47482 5.32665 9.57422 5.66003 9.57422 5.99341C9.57422 6.36549 9.46196 6.71207 9.24945 6.99443Z" fill="white"/>
</svg>
