<svg width="69" height="87" viewBox="0 0 69 87" fill="none" xmlns="http://www.w3.org/2000/svg">
<path fill-rule="evenodd" clip-rule="evenodd" d="M68.4839 70.5159C68.4839 84.6769 49.0641 86.3138 34.4606 86.3138L33.4156 86.3129C24.1114 86.2903 0.428711 85.7029 0.428711 70.43C0.428711 56.558 19.0681 54.7041 33.5604 54.6342L35.5056 54.633C44.8091 54.6556 68.4839 55.243 68.4839 70.5159ZM34.4606 61.0767C16.1536 61.0767 6.87333 64.2217 6.87333 70.43C6.87333 76.6941 16.1536 79.8692 34.4606 79.8692C52.7633 79.8692 62.0393 76.7242 62.0393 70.5159C62.0393 64.2517 52.7633 61.0767 34.4606 61.0767ZM34.4606 0.942383C47.0405 0.942383 57.2703 11.1764 57.2703 23.7563C57.2703 36.3362 47.0405 46.566 34.4606 46.566H34.3231C21.769 46.5273 11.5994 36.289 11.6422 23.7434C11.6422 11.1764 21.8764 0.942383 34.4606 0.942383ZM34.4606 7.07766C25.262 7.07766 17.7775 14.5577 17.7775 23.7563C17.7476 32.9249 25.176 40.4006 34.336 40.435L34.4606 43.5026V40.435C43.6549 40.435 51.135 32.9507 51.135 23.7563C51.135 14.5577 43.6549 7.07766 34.4606 7.07766Z" fill="#CE992F"/>
</svg>
