<svg width="16" height="20" viewBox="0 0 16 20" fill="none" xmlns="http://www.w3.org/2000/svg">
<path fill-rule="evenodd" clip-rule="evenodd" d="M15.3737 16.0957C15.3737 19.2692 11.2634 19.6361 8.1725 19.6361L7.95131 19.6359C5.98205 19.6308 0.969482 19.4992 0.969482 16.0764C0.969482 12.9677 4.91459 12.5522 7.98198 12.5365L8.39368 12.5363C10.3628 12.5413 15.3737 12.673 15.3737 16.0957ZM8.1725 13.9803C4.29773 13.9803 2.33352 14.6851 2.33352 16.0764C2.33352 17.4803 4.29773 18.1918 8.1725 18.1918C12.0464 18.1918 14.0097 17.487 14.0097 16.0957C14.0097 14.6919 12.0464 13.9803 8.1725 13.9803ZM8.1725 0.503906C10.8351 0.503906 13.0003 2.79741 13.0003 5.61663C13.0003 8.43585 10.8351 10.7284 8.1725 10.7284H8.1434C5.48626 10.7197 3.33381 8.42526 3.34288 5.61374C3.34288 2.79741 5.50899 0.503906 8.1725 0.503906ZM8.1725 1.87885C6.22557 1.87885 4.64145 3.55517 4.64145 5.61663C4.6351 7.67135 6.20738 9.34671 8.14613 9.35441L8.1725 10.0419V9.35441C10.1185 9.35441 11.7017 7.67713 11.7017 5.61663C11.7017 3.55517 10.1185 1.87885 8.1725 1.87885Z" fill="#CE992F"/>
</svg>
