<svg width="15" height="20" viewBox="0 0 15 20" fill="none" xmlns="http://www.w3.org/2000/svg">
<path fill-rule="evenodd" clip-rule="evenodd" d="M14.6999 15.7656C14.6999 18.9392 10.5896 19.306 7.49867 19.306L7.27748 19.3058C5.30822 19.3007 0.295654 19.1691 0.295654 15.7464C0.295654 12.6376 4.24077 12.2221 7.30815 12.2064L7.71985 12.2062C9.68899 12.2112 14.6999 12.3429 14.6999 15.7656ZM7.49867 13.6502C3.6239 13.6502 1.65969 14.355 1.65969 15.7464C1.65969 17.1502 3.6239 17.8617 7.49867 17.8617C11.3725 17.8617 13.3358 17.1569 13.3358 15.7656C13.3358 14.3618 11.3725 13.6502 7.49867 13.6502ZM7.49867 0.173828C10.1613 0.173828 12.3265 2.46733 12.3265 5.28655C12.3265 8.10577 10.1613 10.3983 7.49867 10.3983H7.46957C4.81243 10.3897 2.65998 8.09518 2.66905 5.28367C2.66905 2.46733 4.83517 0.173828 7.49867 0.173828ZM7.49867 1.54878C5.55174 1.54878 3.96762 3.2251 3.96762 5.28655C3.96127 7.34127 5.53355 9.01663 7.4723 9.02433L7.49867 9.71181V9.02433C9.4447 9.02433 11.0279 7.34705 11.0279 5.28655C11.0279 3.2251 9.4447 1.54878 7.49867 1.54878Z" fill="#CE992F"/>
</svg>
