<svg width="15" height="19" viewBox="0 0 15 19" fill="none" xmlns="http://www.w3.org/2000/svg">
<path fill-rule="evenodd" clip-rule="evenodd" d="M15 15.3347C15 18.4559 10.7197 18.8167 7.50095 18.8167L7.27061 18.8165C5.21989 18.8115 0 18.682 0 15.3157C0 12.2582 4.10829 11.8496 7.30254 11.8342L7.73128 11.8339C9.78186 11.8389 15 11.9684 15 15.3347ZM7.50095 13.2542C3.46591 13.2542 1.42045 13.9473 1.42045 15.3157C1.42045 16.6964 3.46591 17.3962 7.50095 17.3962C11.535 17.3962 13.5795 16.703 13.5795 15.3347C13.5795 13.954 11.535 13.2542 7.50095 13.2542ZM7.50095 0C10.2737 0 12.5284 2.25568 12.5284 5.02841C12.5284 7.80114 10.2737 10.0559 7.50095 10.0559H7.47064C4.7036 10.0473 2.46212 7.79072 2.47156 5.02557C2.47156 2.25568 4.72727 0 7.50095 0ZM7.50095 1.35227C5.47348 1.35227 3.82384 3.00095 3.82384 5.02841C3.81723 7.04924 5.45455 8.69697 7.47348 8.70455L7.50095 9.38068V8.70455C9.52746 8.70455 11.1761 7.05492 11.1761 5.02841C11.1761 3.00095 9.52746 1.35227 7.50095 1.35227Z" fill="#EEEEEE"/>
</svg>
