<svg width="9" height="10" viewBox="0 0 9 10" fill="none" xmlns="http://www.w3.org/2000/svg">
<path d="M8.02582 5.9425C7.97873 5.99083 7.80094 6.1975 7.63533 6.3675C6.66439 7.43667 4.13152 9.18667 2.80582 9.72083C2.60448 9.80667 2.09547 9.98833 1.82351 10C1.56292 10 1.3145 9.94 1.07745 9.81833C0.781949 9.64833 0.544898 9.38083 0.415006 9.065C0.331388 8.84583 0.201498 8.19 0.201498 8.17833C0.0716066 7.46083 0.000165939 6.295 0.000165939 5.00667C0.000165939 3.77917 0.0716066 2.66084 0.177955 1.9325C0.190132 1.92084 0.320023 1.10584 0.462091 0.82667C0.722686 0.31667 1.2317 3.8147e-06 1.77643 3.8147e-06H1.82351C2.17828 0.0125036 2.92434 0.32917 2.92434 0.340837C4.1786 0.875837 6.65303 2.54 7.64751 3.64584C7.64751 3.64584 7.92759 3.93 8.04936 4.1075C8.23933 4.3625 8.3335 4.67834 8.3335 4.99417C8.3335 5.34667 8.22715 5.675 8.02582 5.9425Z" fill="white"/>
</svg>
