<svg width="15" height="20" viewBox="0 0 15 20" fill="none" xmlns="http://www.w3.org/2000/svg">
<path fill-rule="evenodd" clip-rule="evenodd" d="M14.7001 15.7656C14.7001 18.9392 10.5898 19.306 7.49892 19.306L7.27773 19.3058C5.30846 19.3007 0.295898 19.1691 0.295898 15.7464C0.295898 12.6376 4.24101 12.2221 7.30839 12.2064L7.7201 12.2062C9.68924 12.2112 14.7001 12.3429 14.7001 15.7656ZM7.49892 13.6502C3.62415 13.6502 1.65993 14.355 1.65993 15.7464C1.65993 17.1502 3.62415 17.8617 7.49892 17.8617C11.3728 17.8617 13.3361 17.1569 13.3361 15.7656C13.3361 14.3618 11.3728 13.6502 7.49892 13.6502ZM7.49892 0.173828C10.1615 0.173828 12.3267 2.46733 12.3267 5.28655C12.3267 8.10577 10.1615 10.3983 7.49892 10.3983H7.46982C4.81268 10.3897 2.66023 8.09518 2.66929 5.28367C2.66929 2.46733 4.83541 0.173828 7.49892 0.173828ZM7.49892 1.54878C5.55198 1.54878 3.96786 3.2251 3.96786 5.28655C3.96152 7.34127 5.5338 9.01663 7.47255 9.02433L7.49892 9.71181V9.02433C9.44494 9.02433 11.0281 7.34705 11.0281 5.28655C11.0281 3.2251 9.44494 1.54878 7.49892 1.54878Z" fill="#CE992F"/>
</svg>
