<svg width="15" height="18" viewBox="0 0 15 18" fill="none" xmlns="http://www.w3.org/2000/svg">
<path fill-rule="evenodd" clip-rule="evenodd" d="M14.349 14.6691C14.349 17.6549 10.2544 18 7.1754 18L6.95506 17.9998C4.99334 17.995 0 17.8712 0 14.651C0 11.7262 3.92998 11.3353 6.9856 11.3206L7.39573 11.3203C9.35732 11.3251 14.349 11.4489 14.349 14.6691ZM7.1754 12.6789C3.31548 12.6789 1.35881 13.342 1.35881 14.651C1.35881 15.9718 3.31548 16.6412 7.1754 16.6412C11.0344 16.6412 12.9902 15.9781 12.9902 14.6691C12.9902 13.3484 11.0344 12.6789 7.1754 12.6789ZM7.1754 0C9.82778 0 11.9847 2.15778 11.9847 4.81017C11.9847 7.46256 9.82778 9.61943 7.1754 9.61943H7.14641C4.49946 9.61128 2.35526 7.45259 2.36429 4.80745C2.36429 2.15778 4.5221 0 7.1754 0ZM7.1754 1.29358C5.23593 1.29358 3.65788 2.8707 3.65788 4.81017C3.65156 6.7433 5.21781 8.31951 7.14913 8.32676L7.1754 8.97355V8.32676C9.11396 8.32676 10.6911 6.74873 10.6911 4.81017C10.6911 2.8707 9.11396 1.29358 7.1754 1.29358Z" fill="#CE992F"/>
</svg>
