<svg width="15" height="20" viewBox="0 0 15 20" fill="none" xmlns="http://www.w3.org/2000/svg">
<path fill-rule="evenodd" clip-rule="evenodd" d="M14.6794 16.0957C14.6794 19.2692 10.5691 19.6361 7.47817 19.6361L7.25698 19.6359C5.28771 19.6308 0.275146 19.4992 0.275146 16.0764C0.275146 12.9677 4.22026 12.5522 7.28764 12.5365L7.69935 12.5363C9.66848 12.5413 14.6794 12.673 14.6794 16.0957ZM7.47817 13.9803C3.60339 13.9803 1.63918 14.6851 1.63918 16.0764C1.63918 17.4803 3.60339 18.1918 7.47817 18.1918C11.352 18.1918 13.3153 17.487 13.3153 16.0957C13.3153 14.6919 11.352 13.9803 7.47817 13.9803ZM7.47817 0.503906C10.1408 0.503906 12.3059 2.79741 12.3059 5.61663C12.3059 8.43585 10.1408 10.7284 7.47817 10.7284H7.44907C4.79192 10.7197 2.63948 8.42526 2.64854 5.61374C2.64854 2.79741 4.81466 0.503906 7.47817 0.503906ZM7.47817 1.87885C5.53123 1.87885 3.94711 3.55517 3.94711 5.61663C3.94077 7.67135 5.51304 9.34671 7.45179 9.35441L7.47817 10.0419V9.35441C9.42419 9.35441 11.0074 7.67713 11.0074 5.61663C11.0074 3.55517 9.42419 1.87885 7.47817 1.87885Z" fill="#CE992F"/>
</svg>
