<svg width="16" height="20" viewBox="0 0 16 20" fill="none" xmlns="http://www.w3.org/2000/svg">
<path fill-rule="evenodd" clip-rule="evenodd" d="M15.0058 15.7656C15.0058 18.9392 10.8955 19.306 7.80458 19.306L7.58339 19.3058C5.61413 19.3007 0.601562 19.1691 0.601562 15.7464C0.601562 12.6376 4.54667 12.2221 7.61406 12.2064L8.02576 12.2062C9.9949 12.2112 15.0058 12.3429 15.0058 15.7656ZM7.80458 13.6502C3.92981 13.6502 1.9656 14.355 1.9656 15.7464C1.9656 17.1502 3.92981 17.8617 7.80458 17.8617C11.6784 17.8617 13.6417 17.1569 13.6417 15.7656C13.6417 14.3618 11.6784 13.6502 7.80458 13.6502ZM7.80458 0.173828C10.4672 0.173828 12.6324 2.46733 12.6324 5.28655C12.6324 8.10577 10.4672 10.3983 7.80458 10.3983H7.77548C5.11834 10.3897 2.96589 8.09518 2.97496 5.28367C2.97496 2.46733 5.14107 0.173828 7.80458 0.173828ZM7.80458 1.54878C5.85765 1.54878 4.27353 3.2251 4.27353 5.28655C4.26718 7.34127 5.83946 9.01663 7.77821 9.02433L7.80458 9.71181V9.02433C9.75061 9.02433 11.3338 7.34705 11.3338 5.28655C11.3338 3.2251 9.75061 1.54878 7.80458 1.54878Z" fill="#CE992F"/>
</svg>
