<svg width="16" height="20" viewBox="0 0 16 20" fill="none" xmlns="http://www.w3.org/2000/svg">
<path fill-rule="evenodd" clip-rule="evenodd" d="M15.0046 15.7656C15.0046 18.9392 10.8943 19.306 7.80336 19.306L7.58217 19.3058C5.61291 19.3007 0.600342 19.1691 0.600342 15.7464C0.600342 12.6376 4.54545 12.2221 7.61284 12.2064L8.02454 12.2062C9.99368 12.2112 15.0046 12.3429 15.0046 15.7656ZM7.80336 13.6502C3.92859 13.6502 1.96438 14.355 1.96438 15.7464C1.96438 17.1502 3.92859 17.8617 7.80336 17.8617C11.6772 17.8617 13.6405 17.1569 13.6405 15.7656C13.6405 14.3618 11.6772 13.6502 7.80336 13.6502ZM7.80336 0.173828C10.466 0.173828 12.6311 2.46733 12.6311 5.28655C12.6311 8.10577 10.466 10.3983 7.80336 10.3983H7.77426C5.11712 10.3897 2.96467 8.09518 2.97374 5.28367C2.97374 2.46733 5.13985 0.173828 7.80336 0.173828ZM7.80336 1.54878C5.85643 1.54878 4.27231 3.2251 4.27231 5.28655C4.26596 7.34127 5.83824 9.01663 7.77699 9.02433L7.80336 9.71181V9.02433C9.74939 9.02433 11.3326 7.34705 11.3326 5.28655C11.3326 3.2251 9.74939 1.54878 7.80336 1.54878Z" fill="#CE992F"/>
</svg>
