<svg width="16" height="20" viewBox="0 0 16 20" fill="none" xmlns="http://www.w3.org/2000/svg">
<path fill-rule="evenodd" clip-rule="evenodd" d="M15.0829 16.4316C15.0829 19.6052 10.9726 19.972 7.88173 19.972L7.66054 19.9718C5.69127 19.9668 0.678711 19.8351 0.678711 16.4124C0.678711 13.3036 4.62382 12.8881 7.69121 12.8725L8.10291 12.8722C10.072 12.8773 15.0829 13.0089 15.0829 16.4316ZM7.88173 14.3163C4.00696 14.3163 2.04275 15.0211 2.04275 16.4124C2.04275 17.8162 4.00696 18.5278 7.88173 18.5278C11.7556 18.5278 13.7189 17.823 13.7189 16.4316C13.7189 15.0278 11.7556 14.3163 7.88173 14.3163ZM7.88173 0.839844C10.5443 0.839844 12.7095 3.13335 12.7095 5.95257C12.7095 8.77179 10.5443 11.0643 7.88173 11.0643H7.85263C5.19549 11.0557 3.04304 8.7612 3.0521 5.94968C3.0521 3.13335 5.21822 0.839844 7.88173 0.839844ZM7.88173 2.21479C5.9348 2.21479 4.35068 3.89111 4.35068 5.95257C4.34433 8.00729 5.91661 9.68265 7.85536 9.69035L7.88173 10.3778V9.69035C9.82775 9.69035 11.4109 8.01307 11.4109 5.95257C11.4109 3.89111 9.82775 2.21479 7.88173 2.21479Z" fill="#CE992F"/>
</svg>
