<svg width="16" height="20" viewBox="0 0 16 20" fill="none" xmlns="http://www.w3.org/2000/svg">
<path fill-rule="evenodd" clip-rule="evenodd" d="M15.3874 16.4316C15.3874 19.6052 11.2771 19.972 8.18617 19.972L7.96498 19.9718C5.99572 19.9668 0.983154 19.8351 0.983154 16.4124C0.983154 13.3036 4.92827 12.8881 7.99565 12.8725L8.40735 12.8722C10.3765 12.8773 15.3874 13.0089 15.3874 16.4316ZM8.18617 14.3163C4.3114 14.3163 2.34719 15.0211 2.34719 16.4124C2.34719 17.8162 4.3114 18.5278 8.18617 18.5278C12.06 18.5278 14.0233 17.823 14.0233 16.4316C14.0233 15.0278 12.06 14.3163 8.18617 14.3163ZM8.18617 0.839844C10.8488 0.839844 13.014 3.13335 13.014 5.95257C13.014 8.77179 10.8488 11.0643 8.18617 11.0643H8.15707C5.49993 11.0557 3.34748 8.7612 3.35655 5.94968C3.35655 3.13335 5.52267 0.839844 8.18617 0.839844ZM8.18617 2.21479C6.23924 2.21479 4.65512 3.89111 4.65512 5.95257C4.64877 8.00729 6.22105 9.68265 8.1598 9.69035L8.18617 10.3778V9.69035C10.1322 9.69035 11.7154 8.01307 11.7154 5.95257C11.7154 3.89111 10.1322 2.21479 8.18617 2.21479Z" fill="#CE992F"/>
</svg>
