<svg width="15" height="20" viewBox="0 0 15 20" fill="none" xmlns="http://www.w3.org/2000/svg">
<path fill-rule="evenodd" clip-rule="evenodd" d="M14.6816 16.0957C14.6816 19.2692 10.5713 19.6361 7.48036 19.6361L7.25917 19.6359C5.28991 19.6308 0.277344 19.4992 0.277344 16.0764C0.277344 12.9677 4.22246 12.5522 7.28984 12.5365L7.70154 12.5363C9.67068 12.5413 14.6816 12.673 14.6816 16.0957ZM7.48036 13.9803C3.60559 13.9803 1.64138 14.6851 1.64138 16.0764C1.64138 17.4803 3.60559 18.1918 7.48036 18.1918C11.3542 18.1918 13.3175 17.487 13.3175 16.0957C13.3175 14.6919 11.3542 13.9803 7.48036 13.9803ZM7.48036 0.503906C10.143 0.503906 12.3081 2.79741 12.3081 5.61663C12.3081 8.43585 10.143 10.7284 7.48036 10.7284H7.45126C4.79412 10.7197 2.64167 8.42526 2.65074 5.61374C2.65074 2.79741 4.81686 0.503906 7.48036 0.503906ZM7.48036 1.87885C5.53343 1.87885 3.94931 3.55517 3.94931 5.61663C3.94296 7.67135 5.51524 9.34671 7.45399 9.35441L7.48036 10.0419V9.35441C9.42639 9.35441 11.0096 7.67713 11.0096 5.61663C11.0096 3.55517 9.42639 1.87885 7.48036 1.87885Z" fill="#CE992F"/>
</svg>
