<svg width="16" height="20" viewBox="0 0 16 20" fill="none" xmlns="http://www.w3.org/2000/svg">
<path fill-rule="evenodd" clip-rule="evenodd" d="M15.0827 16.4316C15.0827 19.6052 10.9724 19.972 7.88149 19.972L7.6603 19.9718C5.69103 19.9668 0.678467 19.8351 0.678467 16.4124C0.678467 13.3036 4.62358 12.8881 7.69096 12.8725L8.10267 12.8722C10.0718 12.8773 15.0827 13.0089 15.0827 16.4316ZM7.88149 14.3163C4.00671 14.3163 2.0425 15.0211 2.0425 16.4124C2.0425 17.8162 4.00671 18.5278 7.88149 18.5278C11.7553 18.5278 13.7187 17.823 13.7187 16.4316C13.7187 15.0278 11.7553 14.3163 7.88149 14.3163ZM7.88149 0.839844C10.5441 0.839844 12.7093 3.13335 12.7093 5.95257C12.7093 8.77179 10.5441 11.0643 7.88149 11.0643H7.85239C5.19524 11.0557 3.0428 8.7612 3.05186 5.94968C3.05186 3.13335 5.21798 0.839844 7.88149 0.839844ZM7.88149 2.21479C5.93455 2.21479 4.35043 3.89111 4.35043 5.95257C4.34409 8.00729 5.91637 9.68265 7.85511 9.69035L7.88149 10.3778V9.69035C9.82751 9.69035 11.4107 8.01307 11.4107 5.95257C11.4107 3.89111 9.82751 2.21479 7.88149 2.21479Z" fill="#CE992F"/>
</svg>
