<svg width="22" height="25" viewBox="0 0 22 25" fill="none" xmlns="http://www.w3.org/2000/svg">
<path fill-rule="evenodd" clip-rule="evenodd" d="M15.5618 0C16.0289 0 16.408 0.379075 16.408 0.846151L16.4085 1.80265C18.0558 1.91559 19.4239 2.47984 20.3922 3.45015C21.4494 4.51179 22.0056 6.03824 22 7.86931V18.1619C22 21.9211 19.6126 24.2564 15.7711 24.2564H6.2288C2.38727 24.2564 0 21.8883 0 18.0761V7.86706C0 4.32134 2.12898 2.04536 5.60116 1.80304L5.60186 0.846151C5.60186 0.379075 5.98093 0 6.44801 0C6.91508 0 7.29416 0.379075 7.29416 0.846151L7.29382 1.78143H14.7151L14.7157 0.846151C14.7157 0.379075 15.0948 0 15.5618 0ZM20.3076 10.0455H1.6923V18.0761C1.6923 20.9711 3.30337 22.5641 6.2288 22.5641H15.7711C18.6965 22.5641 20.3077 21.0004 20.3077 18.1619L20.3076 10.0455ZM16.0218 17.1445C16.4889 17.1445 16.868 17.5236 16.868 17.9906C16.868 18.4577 16.4889 18.8368 16.0218 18.8368C15.5547 18.8368 15.1711 18.4577 15.1711 17.9906C15.1711 17.5236 15.5446 17.1445 16.0117 17.1445H16.0218ZM11.0154 17.1445C11.4825 17.1445 11.8616 17.5236 11.8616 17.9906C11.8616 18.4577 11.4825 18.8368 11.0154 18.8368C10.5483 18.8368 10.1648 18.4577 10.1648 17.9906C10.1648 17.5236 10.5382 17.1445 11.0053 17.1445H11.0154ZM5.99853 17.1445C6.46561 17.1445 6.84468 17.5236 6.84468 17.9906C6.84468 18.4577 6.46561 18.8368 5.99853 18.8368C5.53146 18.8368 5.14674 18.4577 5.14674 17.9906C5.14674 17.5236 5.5213 17.1445 5.98838 17.1445H5.99853ZM16.0218 12.7595C16.4889 12.7595 16.868 13.1386 16.868 13.6057C16.868 14.0727 16.4889 14.4518 16.0218 14.4518C15.5547 14.4518 15.1711 14.0727 15.1711 13.6057C15.1711 13.1386 15.5446 12.7595 16.0117 12.7595H16.0218ZM11.0154 12.7595C11.4825 12.7595 11.8616 13.1386 11.8616 13.6057C11.8616 14.0727 11.4825 14.4518 11.0154 14.4518C10.5483 14.4518 10.1648 14.0727 10.1648 13.6057C10.1648 13.1386 10.5382 12.7595 11.0053 12.7595H11.0154ZM5.99853 12.7595C6.46561 12.7595 6.84468 13.1386 6.84468 13.6057C6.84468 14.0727 6.46561 14.4518 5.99853 14.4518C5.53146 14.4518 5.14674 14.0727 5.14674 13.6057C5.14674 13.1386 5.5213 12.7595 5.98838 12.7595H5.99853ZM14.7151 3.47373H7.29382L7.29416 4.55906C7.29416 5.02613 6.91508 5.40521 6.44801 5.40521C5.98093 5.40521 5.60186 5.02613 5.60186 4.55906L5.60125 3.49934C3.07383 3.71166 1.6923 5.24371 1.6923 7.86706V8.3532H20.3076L20.3077 7.86706C20.3121 6.47373 19.9376 5.39066 19.1941 4.64604C18.5414 3.99147 17.5874 3.60054 16.4089 3.49988L16.408 4.55906C16.408 5.02613 16.0289 5.40521 15.5618 5.40521C15.0948 5.40521 14.7157 5.02613 14.7157 4.55906L14.7151 3.47373Z" fill="black"/>
</svg>
