<svg width="16" height="20" viewBox="0 0 16 20" fill="none" xmlns="http://www.w3.org/2000/svg">
<path fill-rule="evenodd" clip-rule="evenodd" d="M15.3886 16.4316C15.3886 19.6052 11.2783 19.972 8.18739 19.972L7.96621 19.9718C5.99694 19.9668 0.984375 19.8351 0.984375 16.4124C0.984375 13.3036 4.92949 12.8881 7.99687 12.8725L8.40858 12.8722C10.3777 12.8773 15.3886 13.0089 15.3886 16.4316ZM8.18739 14.3163C4.31262 14.3163 2.34841 15.0211 2.34841 16.4124C2.34841 17.8162 4.31262 18.5278 8.18739 18.5278C12.0613 18.5278 14.0246 17.823 14.0246 16.4316C14.0246 15.0278 12.0613 14.3163 8.18739 14.3163ZM8.18739 0.839844C10.85 0.839844 13.0152 3.13335 13.0152 5.95257C13.0152 8.77179 10.85 11.0643 8.18739 11.0643H8.15829C5.50115 11.0557 3.3487 8.7612 3.35777 5.94968C3.35777 3.13335 5.52389 0.839844 8.18739 0.839844ZM8.18739 2.21479C6.24046 2.21479 4.65634 3.89111 4.65634 5.95257C4.64999 8.00729 6.22227 9.68265 8.16102 9.69035L8.18739 10.3778V9.69035C10.1334 9.69035 11.7166 8.01307 11.7166 5.95257C11.7166 3.89111 10.1334 2.21479 8.18739 2.21479Z" fill="#CE992F"/>
</svg>
