<svg width="15" height="20" viewBox="0 0 15 20" fill="none" xmlns="http://www.w3.org/2000/svg">
<path fill-rule="evenodd" clip-rule="evenodd" d="M14.4433 16.0957C14.4433 19.2692 10.333 19.6361 7.24208 19.6361L7.02089 19.6359C5.05163 19.6308 0.0390625 19.4992 0.0390625 16.0764C0.0390625 12.9677 3.98417 12.5522 7.05156 12.5365L7.46326 12.5363C9.4324 12.5413 14.4433 12.673 14.4433 16.0957ZM7.24208 13.9803C3.36731 13.9803 1.4031 14.6851 1.4031 16.0764C1.4031 17.4803 3.36731 18.1918 7.24208 18.1918C11.1159 18.1918 13.0792 17.487 13.0792 16.0957C13.0792 14.6919 11.1159 13.9803 7.24208 13.9803ZM7.24208 0.503906C9.90468 0.503906 12.0699 2.79741 12.0699 5.61663C12.0699 8.43585 9.90468 10.7284 7.24208 10.7284H7.21298C4.55584 10.7197 2.40339 8.42526 2.41246 5.61374C2.41246 2.79741 4.57857 0.503906 7.24208 0.503906ZM7.24208 1.87885C5.29515 1.87885 3.71103 3.55517 3.71103 5.61663C3.70468 7.67135 5.27696 9.34671 7.21571 9.35441L7.24208 10.0419V9.35441C9.18811 9.35441 10.7713 7.67713 10.7713 5.61663C10.7713 3.55517 9.18811 1.87885 7.24208 1.87885Z" fill="#CE992F"/>
</svg>
