<svg width="22" height="25" viewBox="0 0 22 25" fill="none" xmlns="http://www.w3.org/2000/svg">
<path d="M20.3848 14.6592C20.2692 14.7779 19.8325 15.2856 19.4257 15.7032C17.0407 18.3294 10.8189 22.6281 7.56251 23.9402C7.06796 24.1511 5.81763 24.5973 5.14959 24.626C4.50947 24.626 3.89927 24.4786 3.31698 24.1797C2.59111 23.7621 2.00882 23.1051 1.68975 22.3293C1.48436 21.7909 1.1653 20.1799 1.1653 20.1513C0.846233 18.3888 0.670748 15.5251 0.670748 12.3604C0.670748 9.34521 0.846231 6.59816 1.10747 4.80909C1.13738 4.78043 1.45644 2.77847 1.80541 2.09274C2.44553 0.839977 3.69586 0.0621223 5.03393 0.0621223H5.14959C6.02103 0.0928288 7.85365 0.870684 7.85365 0.899342C10.9346 2.21351 17.0127 6.30134 19.4556 9.01769C19.4556 9.01769 20.1436 9.71572 20.4427 10.1517C20.9093 10.7781 21.1406 11.5539 21.1406 12.3297C21.1406 13.1956 20.8794 14.0021 20.3848 14.6592Z" fill="white"/>
</svg>
