<svg width="18" height="18" viewBox="0 0 18 18" fill="none" xmlns="http://www.w3.org/2000/svg">
<path fill-rule="evenodd" clip-rule="evenodd" d="M2.07141 2.6879C2.07317 2.6879 2.02927 2.73356 1.97395 2.788C1.76147 2.99434 1.32158 3.42369 1.31714 4.32191C1.31016 5.57837 2.13638 7.91128 6.11472 11.8887C10.0746 15.8469 12.404 16.6828 13.6631 16.6828H13.6816C14.5798 16.6784 15.0083 16.2376 15.2155 16.026C15.2787 15.961 15.3296 15.9136 15.3656 15.8838C16.2401 15.004 16.6879 14.349 16.6836 13.9293C16.6774 13.5008 16.1444 12.9942 15.4078 12.2935C15.1733 12.0705 14.9187 11.8282 14.65 11.5595C13.9537 10.865 13.6087 10.9835 12.8501 11.2504C11.8008 11.6183 10.3609 12.1188 8.12365 9.8807C5.88292 7.64173 6.38428 6.20352 6.75129 5.15428C7.01645 4.39567 7.13762 4.04972 6.44047 3.35257C6.1674 3.08038 5.92243 2.82224 5.69678 2.58518C5.00051 1.8529 4.49828 1.32345 4.07243 1.3173H4.06541C3.64483 1.3173 2.99158 1.76685 2.06702 2.69142C2.06966 2.68878 2.07053 2.6879 2.07141 2.6879ZM13.664 17.9998C11.476 17.9998 8.62324 16.2578 5.18401 12.8203C1.73162 9.36881 -0.0130232 6.50732 7.31857e-05 4.31489C0.00804943 2.86614 0.767542 2.12421 1.0529 1.84588C1.06783 1.82744 1.11875 1.77739 1.13631 1.75983C2.3954 0.499863 3.24445 -0.00939271 4.08912 0.000130946C5.06987 0.013436 5.7679 0.747466 6.6512 1.6773C6.86982 1.90734 7.10689 2.15758 7.37118 2.42098C8.6531 3.7029 8.28784 4.74863 7.99458 5.58802C7.67498 6.50381 7.3984 7.29403 9.05435 8.94999C10.7121 10.6059 11.5023 10.3294 12.4146 10.0071C13.2548 9.71387 14.2979 9.34686 15.5816 10.6288C15.8415 10.8887 16.0882 11.1231 16.3156 11.34C17.2499 12.2277 17.9874 12.9292 17.9998 13.9126C18.0102 14.7511 17.501 15.6054 16.2436 16.8636L15.687 16.4861L16.1576 16.9462C15.8793 17.2315 15.1382 17.9919 13.6886 17.9998H13.664Z" fill="#DDDDDD"/>
</svg>
