<svg width="19" height="23" viewBox="0 0 19 23" fill="none" xmlns="http://www.w3.org/2000/svg">
<path fill-rule="evenodd" clip-rule="evenodd" d="M18.611 18.4998C18.611 22.2533 13.4636 22.6872 9.59276 22.6872L9.31577 22.6869C6.84961 22.6809 0.572266 22.5252 0.572266 18.477C0.572266 14.8001 5.51282 14.3087 9.35417 14.2902L9.86975 14.2898C12.3357 14.2958 18.611 14.4515 18.611 18.4998ZM9.59276 15.9978C4.7403 15.9978 2.28048 16.8314 2.28048 18.477C2.28048 20.1374 4.7403 20.979 9.59276 20.979C14.4441 20.979 16.9028 20.1453 16.9028 18.4998C16.9028 16.8394 14.4441 15.9978 9.59276 15.9978ZM9.59276 0.0585938C12.9272 0.0585938 15.6387 2.77123 15.6387 6.10566C15.6387 9.4401 12.9272 12.1516 9.59276 12.1516H9.55632C6.22873 12.1413 3.53317 9.42757 3.54452 6.10225C3.54452 2.77123 6.2572 0.0585938 9.59276 0.0585938ZM9.59276 1.68481C7.15458 1.68481 5.17075 3.66748 5.17075 6.10566C5.1628 8.53588 7.1318 10.5174 9.55974 10.5265L9.59276 11.3396V10.5265C12.0298 10.5265 14.0125 8.54271 14.0125 6.10566C14.0125 3.66748 12.0298 1.68481 9.59276 1.68481Z" fill="#CE992F"/>
</svg>
