<svg width="15" height="20" viewBox="0 0 15 20" fill="none" xmlns="http://www.w3.org/2000/svg">
<path fill-rule="evenodd" clip-rule="evenodd" d="M14.7011 15.7656C14.7011 18.9392 10.5908 19.306 7.49989 19.306L7.27871 19.3058C5.30944 19.3007 0.296875 19.1691 0.296875 15.7464C0.296875 12.6376 4.24199 12.2221 7.30937 12.2064L7.72108 12.2062C9.69021 12.2112 14.7011 12.3429 14.7011 15.7656ZM7.49989 13.6502C3.62512 13.6502 1.66091 14.355 1.66091 15.7464C1.66091 17.1502 3.62512 17.8617 7.49989 17.8617C11.3738 17.8617 13.3371 17.1569 13.3371 15.7656C13.3371 14.3618 11.3738 13.6502 7.49989 13.6502ZM7.49989 0.173828C10.1625 0.173828 12.3277 2.46733 12.3277 5.28655C12.3277 8.10577 10.1625 10.3983 7.49989 10.3983H7.47079C4.81365 10.3897 2.6612 8.09518 2.67027 5.28367C2.67027 2.46733 4.83639 0.173828 7.49989 0.173828ZM7.49989 1.54878C5.55296 1.54878 3.96884 3.2251 3.96884 5.28655C3.96249 7.34127 5.53477 9.01663 7.47352 9.02433L7.49989 9.71181V9.02433C9.44592 9.02433 11.0291 7.34705 11.0291 5.28655C11.0291 3.2251 9.44592 1.54878 7.49989 1.54878Z" fill="#CE992F"/>
</svg>
