<svg width="15" height="20" viewBox="0 0 15 20" fill="none" xmlns="http://www.w3.org/2000/svg">
<path fill-rule="evenodd" clip-rule="evenodd" d="M14.6806 16.0957C14.6806 19.2692 10.5703 19.6361 7.47939 19.6361L7.2582 19.6359C5.28893 19.6308 0.276367 19.4992 0.276367 16.0764C0.276367 12.9677 4.22148 12.5522 7.28886 12.5365L7.70057 12.5363C9.66971 12.5413 14.6806 12.673 14.6806 16.0957ZM7.47939 13.9803C3.60461 13.9803 1.6404 14.6851 1.6404 16.0764C1.6404 17.4803 3.60461 18.1918 7.47939 18.1918C11.3532 18.1918 13.3166 17.487 13.3166 16.0957C13.3166 14.6919 11.3532 13.9803 7.47939 13.9803ZM7.47939 0.503906C10.142 0.503906 12.3072 2.79741 12.3072 5.61663C12.3072 8.43585 10.142 10.7284 7.47939 10.7284H7.45029C4.79315 10.7197 2.6407 8.42526 2.64976 5.61374C2.64976 2.79741 4.81588 0.503906 7.47939 0.503906ZM7.47939 1.87885C5.53245 1.87885 3.94833 3.55517 3.94833 5.61663C3.94199 7.67135 5.51427 9.34671 7.45302 9.35441L7.47939 10.0419V9.35441C9.42541 9.35441 11.0086 7.67713 11.0086 5.61663C11.0086 3.55517 9.42541 1.87885 7.47939 1.87885Z" fill="#CE992F"/>
</svg>
