<svg width="16" height="20" viewBox="0 0 16 20" fill="none" xmlns="http://www.w3.org/2000/svg">
<path fill-rule="evenodd" clip-rule="evenodd" d="M15.0839 16.4316C15.0839 19.6052 10.9736 19.972 7.88271 19.972L7.66152 19.9718C5.69225 19.9668 0.679688 19.8351 0.679688 16.4124C0.679688 13.3036 4.6248 12.8881 7.69218 12.8725L8.10389 12.8722C10.073 12.8773 15.0839 13.0089 15.0839 16.4316ZM7.88271 14.3163C4.00794 14.3163 2.04372 15.0211 2.04372 16.4124C2.04372 17.8162 4.00794 18.5278 7.88271 18.5278C11.7566 18.5278 13.7199 17.823 13.7199 16.4316C13.7199 15.0278 11.7566 14.3163 7.88271 14.3163ZM7.88271 0.839844C10.5453 0.839844 12.7105 3.13335 12.7105 5.95257C12.7105 8.77179 10.5453 11.0643 7.88271 11.0643H7.85361C5.19647 11.0557 3.04402 8.7612 3.05308 5.94968C3.05308 3.13335 5.2192 0.839844 7.88271 0.839844ZM7.88271 2.21479C5.93577 2.21479 4.35165 3.89111 4.35165 5.95257C4.34531 8.00729 5.91759 9.68265 7.85634 9.69035L7.88271 10.3778V9.69035C9.82873 9.69035 11.4119 8.01307 11.4119 5.95257C11.4119 3.89111 9.82873 2.21479 7.88271 2.21479Z" fill="#CE992F"/>
</svg>
