<svg width="16" height="20" viewBox="0 0 16 20" fill="none" xmlns="http://www.w3.org/2000/svg">
<path fill-rule="evenodd" clip-rule="evenodd" d="M15.373 16.0957C15.373 19.2692 11.2627 19.6361 8.17177 19.6361L7.95058 19.6359C5.98131 19.6308 0.96875 19.4992 0.96875 16.0764C0.96875 12.9677 4.91386 12.5522 7.98124 12.5365L8.39295 12.5363C10.3621 12.5413 15.373 12.673 15.373 16.0957ZM8.17177 13.9803C4.297 13.9803 2.33279 14.6851 2.33279 16.0764C2.33279 17.4803 4.297 18.1918 8.17177 18.1918C12.0456 18.1918 14.0089 17.487 14.0089 16.0957C14.0089 14.6919 12.0456 13.9803 8.17177 13.9803ZM8.17177 0.503906C10.8344 0.503906 12.9995 2.79741 12.9995 5.61663C12.9995 8.43585 10.8344 10.7284 8.17177 10.7284H8.14267C5.48553 10.7197 3.33308 8.42526 3.34214 5.61374C3.34214 2.79741 5.50826 0.503906 8.17177 0.503906ZM8.17177 1.87885C6.22484 1.87885 4.64072 3.55517 4.64072 5.61663C4.63437 7.67135 6.20665 9.34671 8.1454 9.35441L8.17177 10.0419V9.35441C10.1178 9.35441 11.701 7.67713 11.701 5.61663C11.701 3.55517 10.1178 1.87885 8.17177 1.87885Z" fill="#CE992F"/>
</svg>
