<svg width="24" height="26" viewBox="0 0 24 26" fill="none" xmlns="http://www.w3.org/2000/svg">
<path fill-rule="evenodd" clip-rule="evenodd" d="M16.6804 0C17.1811 0 17.5874 0.406324 17.5874 0.906973L17.588 1.93223C19.3537 2.05328 20.8201 2.65809 21.858 3.69815C22.9912 4.8361 23.5873 6.47228 23.5813 8.43497V19.4674C23.5813 23.4968 21.0224 26 16.9048 26H6.67653C2.55887 26 0 23.4617 0 19.3755V8.43255C0 4.63196 2.28201 2.19238 6.00378 1.93264L6.00452 0.906973C6.00452 0.406324 6.41085 0 6.91149 0C7.41214 0 7.81847 0.406324 7.81847 0.906973L7.8181 1.90948H15.7729L15.7735 0.906973C15.7735 0.406324 16.1798 0 16.6804 0ZM21.7673 10.7676H1.81395V19.3755C1.81395 22.4785 3.54082 24.1861 6.67653 24.1861H16.9048C20.0405 24.1861 21.7674 22.51 21.7674 19.4674L21.7673 10.7676ZM17.1735 18.3768C17.6741 18.3768 18.0804 18.7832 18.0804 19.2838C18.0804 19.7845 17.6741 20.1908 17.1735 20.1908C16.6728 20.1908 16.2617 19.7845 16.2617 19.2838C16.2617 18.7832 16.6619 18.3768 17.1626 18.3768H17.1735ZM11.8072 18.3768C12.3079 18.3768 12.7142 18.7832 12.7142 19.2838C12.7142 19.7845 12.3079 20.1908 11.8072 20.1908C11.3066 20.1908 10.8954 19.7845 10.8954 19.2838C10.8954 18.7832 11.2957 18.3768 11.7963 18.3768H11.8072ZM6.42971 18.3768C6.93036 18.3768 7.33668 18.7832 7.33668 19.2838C7.33668 19.7845 6.93036 20.1908 6.42971 20.1908C5.92906 20.1908 5.51669 19.7845 5.51669 19.2838C5.51669 18.7832 5.91818 18.3768 6.41883 18.3768H6.42971ZM17.1735 13.6767C17.6741 13.6767 18.0804 14.083 18.0804 14.5836C18.0804 15.0843 17.6741 15.4906 17.1735 15.4906C16.6728 15.4906 16.2617 15.0843 16.2617 14.5836C16.2617 14.083 16.6619 13.6767 17.1626 13.6767H17.1735ZM11.8072 13.6767C12.3079 13.6767 12.7142 14.083 12.7142 14.5836C12.7142 15.0843 12.3079 15.4906 11.8072 15.4906C11.3066 15.4906 10.8954 15.0843 10.8954 14.5836C10.8954 14.083 11.2957 13.6767 11.7963 13.6767H11.8072ZM6.42971 13.6767C6.93036 13.6767 7.33668 14.083 7.33668 14.5836C7.33668 15.0843 6.93036 15.4906 6.42971 15.4906C5.92906 15.4906 5.51669 15.0843 5.51669 14.5836C5.51669 14.083 5.91818 13.6767 6.41883 13.6767H6.42971ZM15.7729 3.72342H7.8181L7.81847 4.88677C7.81847 5.38742 7.41214 5.79374 6.91149 5.79374C6.41085 5.79374 6.00452 5.38742 6.00452 4.88677L6.00388 3.75088C3.29477 3.97846 1.81395 5.62064 1.81395 8.43255V8.95363H21.7673L21.7674 8.43255C21.7722 6.93907 21.3707 5.77814 20.5738 4.98C19.8742 4.27838 18.8516 3.85935 17.5884 3.75146L17.5874 4.88677C17.5874 5.38742 17.1811 5.79374 16.6804 5.79374C16.1798 5.79374 15.7735 5.38742 15.7735 4.88677L15.7729 3.72342Z" fill="black"/>
</svg>
