<svg width="15" height="20" viewBox="0 0 15 20" fill="none" xmlns="http://www.w3.org/2000/svg">
<path fill-rule="evenodd" clip-rule="evenodd" d="M14.6803 16.0957C14.6803 19.2692 10.57 19.6361 7.47914 19.6361L7.25795 19.6359C5.28869 19.6308 0.276123 19.4992 0.276123 16.0764C0.276123 12.9677 4.22124 12.5522 7.28862 12.5365L7.70032 12.5363C9.66946 12.5413 14.6803 12.673 14.6803 16.0957ZM7.47914 13.9803C3.60437 13.9803 1.64016 14.6851 1.64016 16.0764C1.64016 17.4803 3.60437 18.1918 7.47914 18.1918C11.353 18.1918 13.3163 17.487 13.3163 16.0957C13.3163 14.6919 11.353 13.9803 7.47914 13.9803ZM7.47914 0.503906C10.1417 0.503906 12.3069 2.79741 12.3069 5.61663C12.3069 8.43585 10.1417 10.7284 7.47914 10.7284H7.45004C4.7929 10.7197 2.64045 8.42526 2.64952 5.61374C2.64952 2.79741 4.81563 0.503906 7.47914 0.503906ZM7.47914 1.87885C5.53221 1.87885 3.94809 3.55517 3.94809 5.61663C3.94174 7.67135 5.51402 9.34671 7.45277 9.35441L7.47914 10.0419V9.35441C9.42517 9.35441 11.0084 7.67713 11.0084 5.61663C11.0084 3.55517 9.42517 1.87885 7.47914 1.87885Z" fill="#CE992F"/>
</svg>
