<svg width="16" height="20" viewBox="0 0 16 20" fill="none" xmlns="http://www.w3.org/2000/svg">
<path fill-rule="evenodd" clip-rule="evenodd" d="M15.3876 16.4316C15.3876 19.6052 11.2773 19.972 8.18642 19.972L7.96523 19.9718C5.99596 19.9668 0.983398 19.8351 0.983398 16.4124C0.983398 13.3036 4.92851 12.8881 7.99589 12.8725L8.4076 12.8722C10.3767 12.8773 15.3876 13.0089 15.3876 16.4316ZM8.18642 14.3163C4.31165 14.3163 2.34743 15.0211 2.34743 16.4124C2.34743 17.8162 4.31165 18.5278 8.18642 18.5278C12.0603 18.5278 14.0236 17.823 14.0236 16.4316C14.0236 15.0278 12.0603 14.3163 8.18642 14.3163ZM8.18642 0.839844C10.849 0.839844 13.0142 3.13335 13.0142 5.95257C13.0142 8.77179 10.849 11.0643 8.18642 11.0643H8.15732C5.50018 11.0557 3.34773 8.7612 3.35679 5.94968C3.35679 3.13335 5.52291 0.839844 8.18642 0.839844ZM8.18642 2.21479C6.23948 2.21479 4.65536 3.89111 4.65536 5.95257C4.64902 8.00729 6.2213 9.68265 8.16005 9.69035L8.18642 10.3778V9.69035C10.1324 9.69035 11.7156 8.01307 11.7156 5.95257C11.7156 3.89111 10.1324 2.21479 8.18642 2.21479Z" fill="#CE992F"/>
</svg>
