<svg width="18" height="17" viewBox="0 0 18 17" fill="none" xmlns="http://www.w3.org/2000/svg">
<path fill-rule="evenodd" clip-rule="evenodd" d="M13.1099 0C15.8978 0 18 2.2747 18 5.29116V11.0411C18 12.5849 17.4541 13.9797 16.462 14.9693C15.5721 15.8559 14.4176 16.3256 13.1233 16.3256H4.87423C3.58242 16.3256 2.42874 15.8567 1.53795 14.9693C0.545861 13.9797 0 12.5849 0 11.0411V5.29116C0 2.2747 2.10223 0 4.89014 0H13.1099ZM13.1099 1.25581H4.89014C2.78456 1.25581 1.25581 2.95284 1.25581 5.29116V11.0411C1.25581 12.2492 1.67107 13.3284 2.42456 14.0793C3.07423 14.7282 3.92233 15.0698 4.87674 15.0698H13.1099C13.1115 15.0681 13.1182 15.0698 13.1233 15.0698C14.0785 15.0698 14.9258 14.7282 15.5754 14.0793C16.3298 13.3284 16.7442 12.2492 16.7442 11.0411V5.29116C16.7442 2.95284 15.2154 1.25581 13.1099 1.25581ZM14.4293 5.13109C14.6478 5.39983 14.6068 5.79499 14.338 6.01434L10.6175 9.03834C10.147 9.41174 9.58437 9.59844 9.0226 9.59844C8.46251 9.59844 7.90409 9.41341 7.43693 9.04337L3.68205 6.01602C3.41163 5.79834 3.36977 5.40234 3.5866 5.13276C3.80512 4.86402 4.20028 4.82132 4.46986 5.03816L8.22139 8.06216C8.69274 8.43555 9.35665 8.43555 9.83135 8.05881L13.5452 5.03983C13.8148 4.81965 14.21 4.86151 14.4293 5.13109Z" fill="#EEEEEE"/>
</svg>
