<svg width="16" height="20" viewBox="0 0 16 20" fill="none" xmlns="http://www.w3.org/2000/svg">
<path fill-rule="evenodd" clip-rule="evenodd" d="M15.3739 16.0957C15.3739 19.2692 11.2637 19.6361 8.17275 19.6361L7.95156 19.6359C5.98229 19.6308 0.969727 19.4992 0.969727 16.0764C0.969727 12.9677 4.91484 12.5522 7.98222 12.5365L8.39393 12.5363C10.3631 12.5413 15.3739 12.673 15.3739 16.0957ZM8.17275 13.9803C4.29797 13.9803 2.33376 14.6851 2.33376 16.0764C2.33376 17.4803 4.29797 18.1918 8.17275 18.1918C12.0466 18.1918 14.0099 17.487 14.0099 16.0957C14.0099 14.6919 12.0466 13.9803 8.17275 13.9803ZM8.17275 0.503906C10.8353 0.503906 13.0005 2.79741 13.0005 5.61663C13.0005 8.43585 10.8353 10.7284 8.17275 10.7284H8.14365C5.4865 10.7197 3.33406 8.42526 3.34312 5.61374C3.34312 2.79741 5.50924 0.503906 8.17275 0.503906ZM8.17275 1.87885C6.22581 1.87885 4.64169 3.55517 4.64169 5.61663C4.63535 7.67135 6.20762 9.34671 8.14637 9.35441L8.17275 10.0419V9.35441C10.1188 9.35441 11.702 7.67713 11.702 5.61663C11.702 3.55517 10.1188 1.87885 8.17275 1.87885Z" fill="#CE992F"/>
</svg>
