<svg width="502" height="363" viewBox="0 0 502 363" fill="none" xmlns="http://www.w3.org/2000/svg">
<g clip-path="url(#clip0_259_2122)">
<path d="M501.275 360.216H0.725434C0.533037 360.216 0.348519 360.14 0.212474 360.003C0.0764288 359.867 0 359.682 0 359.49C0 359.297 0.0764288 359.113 0.212474 358.976C0.348519 358.84 0.533037 358.764 0.725434 358.764H501.275C501.467 358.764 501.651 358.84 501.788 358.976C501.924 359.113 502 359.297 502 359.49C502 359.682 501.924 359.867 501.788 360.003C501.651 360.14 501.467 360.216 501.275 360.216Z" fill="#CCCCCC"/>
<path d="M451.732 233.568H157.206C155.955 233.568 154.756 234.066 153.871 234.951C152.987 235.836 152.49 237.037 152.49 238.289C152.49 239.54 152.987 240.741 153.871 241.626C154.756 242.511 155.955 243.009 157.206 243.009H165.548V355.93C165.548 357.181 166.045 358.382 166.929 359.267C167.813 360.152 169.013 360.65 170.263 360.65C171.514 360.65 172.713 360.152 173.598 359.267C174.482 358.382 174.979 357.181 174.979 355.93L175.05 243.009H433.233V355.93C433.233 357.181 433.73 358.382 434.614 359.267C435.498 360.152 436.698 360.65 437.948 360.65C439.199 360.65 440.398 360.152 441.283 359.267C442.167 358.382 442.664 357.181 442.664 355.93V245.498L444.035 243.009H451.732C452.982 243.009 454.181 242.511 455.066 241.626C455.95 240.741 456.447 239.54 456.447 238.289C456.447 237.037 455.95 235.836 455.066 234.951C454.181 234.066 452.982 233.568 451.732 233.568Z" fill="#CCCCCC"/>
<path d="M320.493 236.04H231.277C229.55 236.038 227.894 235.35 226.672 234.127C225.451 232.905 224.764 231.247 224.762 229.518V180.349C224.764 178.619 225.451 176.961 226.672 175.739C227.894 174.516 229.55 173.828 231.277 173.826H320.493C322.22 173.828 323.876 174.516 325.098 175.739C326.319 176.961 327.006 178.619 327.008 180.349V229.518C327.006 231.247 326.319 232.905 325.098 234.127C323.876 235.35 322.22 236.038 320.493 236.04Z" fill="#3F3D56"/>
<path d="M320.491 178.846H231.277C230.879 178.847 230.497 179.005 230.216 179.287C229.935 179.569 229.776 179.95 229.775 180.349V229.518C229.776 229.917 229.935 230.299 230.216 230.58C230.497 230.862 230.879 231.021 231.277 231.022H320.491C320.889 231.021 321.27 230.862 321.552 230.58C321.833 230.299 321.992 229.917 321.993 229.518V180.349C321.992 179.95 321.833 179.569 321.552 179.287C321.27 179.005 320.889 178.847 320.491 178.846Z" fill="white"/>
<path d="M283.493 213.657C283.493 213.657 272.813 211.193 266.939 215.71C261.065 220.226 274.415 230.491 274.415 230.491L283.493 213.657Z" fill="#2F2E41"/>
<path d="M276.408 209.003C281.972 209.003 286.482 204.488 286.482 198.918C286.482 193.349 281.972 188.834 276.408 188.834C270.844 188.834 266.334 193.349 266.334 198.918C266.334 204.488 270.844 209.003 276.408 209.003Z" fill="#A0616A"/>
<path d="M268.618 184.762C269.289 183.621 270.263 182.687 271.432 182.065C272.6 181.443 273.917 181.156 275.238 181.236C276.62 181.409 277.968 181.787 279.239 182.357L285.825 184.929C287.529 185.594 289.396 186.409 290.135 188.084C290.821 189.638 290.309 191.433 289.791 193.052L287.327 200.744C287.054 199.003 286.586 197.299 285.931 195.663C285.265 194.016 284.062 192.643 282.518 191.768C280.807 190.889 278.791 190.907 276.871 191C274.151 191.131 271.194 191.477 269.261 193.398C268.236 194.488 267.54 195.848 267.256 197.319C266.976 198.781 266.835 200.267 266.835 201.757C265.72 199.838 264.781 197.821 264.028 195.733C263.41 194.177 263.057 192.529 262.986 190.857C262.921 189.17 263.48 187.518 264.556 186.218C265.102 185.583 265.814 185.113 266.613 184.862C267.412 184.61 268.264 184.587 269.076 184.794L268.618 184.762Z" fill="#2F2E41"/>
<path d="M300.462 222.402C300.367 222.061 300.174 221.756 299.907 221.525C299.64 221.294 299.311 221.146 298.96 221.102C298.937 221.086 298.913 221.071 298.888 221.058L283.849 212.621C283.419 212.38 282.914 212.315 282.437 212.437C281.96 212.56 281.549 212.862 281.289 213.281L277.176 219.947L270.981 213.746L270.882 213.647C270.564 213.329 270.144 213.133 269.697 213.094C269.249 213.054 268.801 213.174 268.433 213.433L256.073 222.097C256.051 222.097 256.029 222.104 256.008 222.104C255.416 222.203 254.876 222.5 254.476 222.948C254.077 223.396 253.841 223.966 253.809 224.566L253.49 231.021H302.849L300.462 222.402Z" fill="#CE992F"/>
<path d="M328.01 230.019H318.487C318.487 229.753 318.381 229.498 318.193 229.31C318.005 229.121 317.75 229.016 317.484 229.016H314.477C314.211 229.016 313.956 229.121 313.768 229.31C313.58 229.498 313.475 229.753 313.475 230.019H310.468C310.468 229.753 310.362 229.498 310.174 229.31C309.986 229.121 309.731 229.016 309.465 229.016H306.458C306.192 229.016 305.937 229.121 305.749 229.31C305.561 229.498 305.455 229.753 305.455 230.019H302.448C302.448 229.753 302.343 229.498 302.155 229.31C301.967 229.121 301.712 229.016 301.446 229.016H298.439C298.173 229.016 297.918 229.121 297.73 229.31C297.542 229.498 297.436 229.753 297.436 230.019H294.429C294.429 229.753 294.323 229.498 294.135 229.31C293.947 229.121 293.692 229.016 293.426 229.016H290.419C290.153 229.016 289.898 229.121 289.71 229.31C289.522 229.498 289.417 229.753 289.417 230.019H286.41C286.41 229.753 286.304 229.498 286.116 229.31C285.928 229.121 285.673 229.016 285.407 229.016H282.4C282.134 229.016 281.879 229.121 281.691 229.31C281.503 229.498 281.397 229.753 281.397 230.019H278.39C278.39 229.753 278.285 229.498 278.097 229.31C277.909 229.121 277.654 229.016 277.388 229.016H274.381C274.115 229.016 273.86 229.121 273.672 229.31C273.484 229.498 273.378 229.753 273.378 230.019H270.371C270.371 229.753 270.265 229.498 270.077 229.31C269.889 229.121 269.634 229.016 269.368 229.016H266.361C266.095 229.016 265.84 229.121 265.652 229.31C265.464 229.498 265.359 229.753 265.359 230.019H262.352C262.352 229.753 262.246 229.498 262.058 229.31C261.87 229.121 261.615 229.016 261.349 229.016H258.342C258.076 229.016 257.821 229.121 257.633 229.31C257.445 229.498 257.339 229.753 257.339 230.019H254.332C254.332 229.753 254.227 229.498 254.039 229.31C253.851 229.121 253.596 229.016 253.33 229.016H250.323C250.057 229.016 249.802 229.121 249.614 229.31C249.426 229.498 249.32 229.753 249.32 230.019H246.313C246.313 229.753 246.207 229.498 246.019 229.31C245.831 229.121 245.576 229.016 245.31 229.016H242.303C242.037 229.016 241.782 229.121 241.594 229.31C241.406 229.498 241.301 229.753 241.301 230.019H238.294C238.294 229.753 238.188 229.498 238 229.31C237.812 229.121 237.557 229.016 237.291 229.016H234.284C234.018 229.016 233.763 229.121 233.575 229.31C233.387 229.498 233.281 229.753 233.281 230.019H223.758C222.962 230.02 222.198 230.338 221.635 230.902C221.072 231.467 220.756 232.232 220.756 233.029C220.756 233.827 221.072 234.592 221.635 235.156C222.198 235.721 222.962 236.039 223.758 236.04H328.01C328.807 236.04 329.572 235.723 330.136 235.158C330.7 234.594 331.017 233.828 331.017 233.029C331.017 232.231 330.7 231.465 330.136 230.901C329.572 230.336 328.807 230.019 328.01 230.019Z" fill="#3F3D56"/>
<path d="M208.258 212.537V232.526H158.23C156.89 232.573 155.554 232.349 154.302 231.867C153.05 231.386 151.907 230.658 150.943 229.725C149.978 228.792 149.211 227.675 148.687 226.439C148.163 225.203 147.893 223.874 147.893 222.532C147.893 221.189 148.163 219.86 148.687 218.624C149.211 217.389 149.978 216.271 150.943 215.338C151.907 214.406 153.05 213.677 154.302 213.196C155.554 212.715 156.89 212.491 158.23 212.537H208.258Z" fill="#F2F2F2"/>
<path d="M209.485 232.37C209.485 232.574 209.404 232.77 209.26 232.914C209.116 233.058 208.921 233.139 208.717 233.139H157.338C154.548 233.139 151.871 232.029 149.898 230.054C147.925 228.079 146.816 225.4 146.816 222.607C146.816 219.813 147.925 217.134 149.898 215.159C151.871 213.184 154.548 212.074 157.338 212.074H208.717C208.921 212.074 209.116 212.155 209.26 212.299C209.405 212.444 209.485 212.639 209.485 212.843C209.485 213.047 209.405 213.242 209.26 213.387C209.116 213.531 208.921 213.612 208.717 213.612H157.338C154.956 213.614 152.673 214.563 150.989 216.249C149.306 217.936 148.36 220.222 148.36 222.607C148.36 224.991 149.306 227.277 150.989 228.964C152.673 230.651 154.956 231.599 157.338 231.602H208.717C208.921 231.602 209.116 231.683 209.26 231.827C209.404 231.971 209.485 232.166 209.485 232.37Z" fill="#CE992F"/>
<path d="M208.257 217.149H154.496C154.476 217.149 154.456 217.146 154.437 217.138C154.419 217.13 154.402 217.119 154.387 217.105C154.373 217.09 154.361 217.073 154.354 217.055C154.346 217.036 154.342 217.016 154.342 216.996C154.342 216.975 154.346 216.955 154.354 216.936C154.361 216.918 154.373 216.901 154.387 216.886C154.402 216.872 154.419 216.861 154.437 216.853C154.456 216.846 154.476 216.842 154.496 216.842H208.257C208.297 216.842 208.336 216.858 208.365 216.887C208.393 216.916 208.409 216.955 208.409 216.996C208.409 217.036 208.393 217.075 208.365 217.104C208.336 217.133 208.297 217.149 208.257 217.149Z" fill="#CCCCCC"/>
<path d="M208.257 220.841H154.496C154.476 220.841 154.456 220.837 154.437 220.829C154.419 220.822 154.402 220.81 154.387 220.796C154.373 220.782 154.361 220.765 154.354 220.746C154.346 220.727 154.342 220.707 154.342 220.687C154.342 220.667 154.346 220.647 154.354 220.628C154.361 220.609 154.373 220.592 154.387 220.578C154.402 220.564 154.419 220.552 154.437 220.545C154.456 220.537 154.476 220.533 154.496 220.533H208.257C208.297 220.533 208.336 220.55 208.365 220.579C208.393 220.607 208.409 220.646 208.409 220.687C208.409 220.728 208.393 220.767 208.365 220.795C208.336 220.824 208.297 220.84 208.257 220.841Z" fill="#CCCCCC"/>
<path d="M208.257 224.53H154.496C154.476 224.53 154.456 224.526 154.437 224.519C154.419 224.511 154.402 224.5 154.387 224.486C154.373 224.471 154.361 224.454 154.354 224.435C154.346 224.417 154.342 224.397 154.342 224.376C154.342 224.356 154.346 224.336 154.354 224.317C154.361 224.299 154.373 224.282 154.387 224.267C154.402 224.253 154.419 224.242 154.437 224.234C154.456 224.226 154.476 224.223 154.496 224.223H208.257C208.297 224.223 208.336 224.239 208.365 224.268C208.393 224.297 208.409 224.336 208.409 224.376C208.409 224.417 208.393 224.456 208.365 224.485C208.336 224.514 208.297 224.53 208.257 224.53Z" fill="#CCCCCC"/>
<path d="M208.257 228.222H154.496C154.476 228.222 154.456 228.218 154.437 228.21C154.419 228.203 154.402 228.191 154.387 228.177C154.373 228.163 154.361 228.146 154.354 228.127C154.346 228.108 154.342 228.088 154.342 228.068C154.342 228.048 154.346 228.027 154.354 228.009C154.361 227.99 154.373 227.973 154.387 227.959C154.402 227.944 154.419 227.933 154.437 227.925C154.456 227.918 154.476 227.914 154.496 227.914H208.257C208.297 227.914 208.336 227.931 208.365 227.959C208.393 227.988 208.409 228.027 208.409 228.068C208.409 228.108 208.393 228.147 208.365 228.176C208.336 228.205 208.297 228.221 208.257 228.222Z" fill="#CCCCCC"/>
<path d="M198.826 191.477V211.465H148.798C147.458 211.512 146.122 211.288 144.87 210.807C143.618 210.326 142.476 209.597 141.511 208.664C140.546 207.732 139.779 206.614 139.255 205.378C138.731 204.142 138.461 202.814 138.461 201.471C138.461 200.129 138.731 198.8 139.255 197.564C139.779 196.328 140.546 195.211 141.511 194.278C142.476 193.345 143.618 192.616 144.87 192.135C146.122 191.654 147.458 191.43 148.798 191.477H198.826Z" fill="#F2F2F2"/>
<path d="M200.056 211.312C200.056 211.516 199.975 211.711 199.831 211.855C199.687 211.999 199.491 212.08 199.288 212.081H147.908C146.527 212.081 145.158 211.808 143.882 211.279C142.605 210.749 141.445 209.974 140.468 208.996C139.491 208.018 138.716 206.857 138.188 205.579C137.659 204.301 137.387 202.931 137.387 201.548C137.387 200.165 137.659 198.795 138.188 197.517C138.716 196.24 139.491 195.079 140.468 194.101C141.445 193.122 142.605 192.347 143.882 191.817C145.158 191.288 146.527 191.016 147.908 191.016H199.288C199.491 191.016 199.687 191.097 199.831 191.241C199.975 191.385 200.056 191.581 200.056 191.784C200.056 191.988 199.975 192.184 199.831 192.328C199.687 192.472 199.491 192.553 199.288 192.553H147.908C145.527 192.555 143.243 193.504 141.56 195.191C139.876 196.877 138.931 199.164 138.931 201.548C138.931 203.932 139.876 206.219 141.56 207.906C143.243 209.592 145.527 210.541 147.908 210.543H199.288C199.491 210.543 199.687 210.624 199.831 210.768C199.975 210.912 200.056 211.108 200.056 211.312Z" fill="#3F3D56"/>
<path d="M198.825 196.091H145.065C145.045 196.091 145.024 196.087 145.006 196.079C144.987 196.072 144.97 196.06 144.956 196.046C144.941 196.032 144.93 196.015 144.922 195.996C144.914 195.977 144.91 195.957 144.91 195.937C144.91 195.917 144.914 195.897 144.922 195.878C144.93 195.859 144.941 195.842 144.956 195.828C144.97 195.814 144.987 195.802 145.006 195.795C145.024 195.787 145.045 195.783 145.065 195.783H198.825C198.866 195.783 198.904 195.8 198.933 195.829C198.962 195.857 198.978 195.896 198.978 195.937C198.978 195.978 198.962 196.017 198.933 196.045C198.904 196.074 198.866 196.09 198.825 196.091Z" fill="#CCCCCC"/>
<path d="M198.825 199.78H145.065C145.045 199.78 145.024 199.776 145.006 199.769C144.987 199.761 144.97 199.75 144.956 199.736C144.941 199.721 144.93 199.704 144.922 199.685C144.914 199.667 144.91 199.647 144.91 199.626C144.91 199.606 144.914 199.586 144.922 199.567C144.93 199.549 144.941 199.532 144.956 199.517C144.97 199.503 144.987 199.492 145.006 199.484C145.024 199.476 145.045 199.473 145.065 199.473H198.825C198.866 199.473 198.904 199.489 198.933 199.518C198.962 199.547 198.978 199.586 198.978 199.626C198.978 199.667 198.962 199.706 198.933 199.735C198.904 199.764 198.866 199.78 198.825 199.78Z" fill="#CCCCCC"/>
<path d="M198.827 203.472H145.067C145.047 203.472 145.026 203.468 145.008 203.46C144.989 203.453 144.972 203.441 144.957 203.427C144.943 203.413 144.932 203.396 144.924 203.377C144.916 203.358 144.912 203.338 144.912 203.318C144.912 203.298 144.916 203.277 144.924 203.259C144.932 203.24 144.943 203.223 144.957 203.209C144.972 203.194 144.989 203.183 145.008 203.175C145.026 203.168 145.047 203.164 145.067 203.164H198.827C198.868 203.164 198.906 203.181 198.935 203.209C198.964 203.238 198.98 203.277 198.98 203.318C198.98 203.358 198.964 203.397 198.935 203.426C198.906 203.455 198.868 203.471 198.827 203.472Z" fill="#CCCCCC"/>
<path d="M198.827 207.161H145.067C145.047 207.161 145.026 207.157 145.008 207.15C144.989 207.142 144.972 207.131 144.957 207.116C144.943 207.102 144.932 207.085 144.924 207.066C144.916 207.048 144.912 207.028 144.912 207.007C144.912 206.987 144.916 206.967 144.924 206.948C144.932 206.929 144.943 206.912 144.957 206.898C144.972 206.884 144.989 206.873 145.008 206.865C145.026 206.857 145.047 206.853 145.067 206.854H198.827C198.868 206.854 198.906 206.87 198.935 206.899C198.964 206.928 198.98 206.967 198.98 207.007C198.98 207.048 198.964 207.087 198.935 207.116C198.906 207.144 198.868 207.161 198.827 207.161Z" fill="#CCCCCC"/>
<path d="M257.023 303.573V286.145C257.023 285.375 256.717 284.636 256.173 284.091C255.629 283.546 254.891 283.24 254.121 283.24H188.107C187.337 283.24 186.599 283.546 186.055 284.091C185.511 284.636 185.205 285.375 185.205 286.145V303.573H257.023Z" fill="#CCCCCC"/>
<path d="M257.023 310.109H185.205V332.621H257.023V310.109Z" fill="#CCCCCC"/>
<path d="M185.205 339.156V356.585C185.205 357.355 185.511 358.094 186.055 358.638C186.599 359.183 187.337 359.489 188.107 359.489H254.121C254.891 359.489 255.629 359.183 256.173 358.638C256.717 358.094 257.023 357.355 257.023 356.585V339.156H185.205Z" fill="#CCCCCC"/>
<path d="M220.752 296.312C221.954 296.312 222.929 295.337 222.929 294.134C222.929 292.93 221.954 291.955 220.752 291.955C219.551 291.955 218.576 292.93 218.576 294.134C218.576 295.337 219.551 296.312 220.752 296.312Z" fill="white"/>
<path d="M220.752 325.361C221.954 325.361 222.929 324.386 222.929 323.182C222.929 321.979 221.954 321.004 220.752 321.004C219.551 321.004 218.576 321.979 218.576 323.182C218.576 324.386 219.551 325.361 220.752 325.361Z" fill="white"/>
<path d="M220.868 353.791C222.07 353.791 223.044 352.815 223.044 351.612C223.044 350.409 222.07 349.434 220.868 349.434C219.666 349.434 218.691 350.409 218.691 351.612C218.691 352.815 219.666 353.791 220.868 353.791Z" fill="white"/>
<path d="M248.881 263.369V283.358H198.853C197.513 283.405 196.177 283.181 194.925 282.699C193.673 282.218 192.53 281.49 191.566 280.557C190.601 279.624 189.834 278.507 189.31 277.271C188.786 276.035 188.516 274.706 188.516 273.364C188.516 272.021 188.786 270.692 189.31 269.456C189.834 268.221 190.601 267.103 191.566 266.17C192.53 265.238 193.673 264.509 194.925 264.028C196.177 263.547 197.513 263.323 198.853 263.369H248.881Z" fill="#F2F2F2"/>
<path d="M250.109 283.204C250.109 283.408 250.028 283.604 249.884 283.748C249.74 283.892 249.545 283.973 249.341 283.973H197.962C196.58 283.974 195.21 283.703 193.933 283.174C192.655 282.645 191.494 281.869 190.516 280.891C189.538 279.913 188.763 278.752 188.233 277.473C187.704 276.195 187.432 274.825 187.432 273.441C187.432 272.057 187.704 270.686 188.233 269.408C188.763 268.13 189.538 266.968 190.516 265.99C191.494 265.012 192.655 264.236 193.933 263.707C195.21 263.179 196.58 262.907 197.962 262.908H249.341C249.545 262.908 249.74 262.989 249.884 263.133C250.028 263.278 250.109 263.473 250.109 263.677C250.109 263.881 250.028 264.076 249.884 264.221C249.74 264.365 249.545 264.446 249.341 264.446H197.962C195.58 264.448 193.297 265.397 191.613 267.083C189.93 268.77 188.984 271.056 188.984 273.441C188.984 275.825 189.93 278.111 191.613 279.798C193.297 281.485 195.58 282.433 197.962 282.436H249.341C249.545 282.436 249.74 282.517 249.884 282.661C250.028 282.805 250.109 283 250.109 283.204Z" fill="#3F3D56"/>
<path d="M248.882 267.981H195.121C195.101 267.981 195.081 267.978 195.062 267.97C195.044 267.962 195.027 267.951 195.012 267.937C194.998 267.922 194.986 267.905 194.979 267.887C194.971 267.868 194.967 267.848 194.967 267.828C194.967 267.807 194.971 267.787 194.979 267.769C194.986 267.75 194.998 267.733 195.012 267.719C195.027 267.704 195.044 267.693 195.062 267.685C195.081 267.678 195.101 267.674 195.121 267.674H248.882C248.922 267.674 248.961 267.69 248.99 267.719C249.018 267.748 249.034 267.787 249.034 267.828C249.034 267.868 249.018 267.907 248.99 267.936C248.961 267.965 248.922 267.981 248.882 267.981Z" fill="#CCCCCC"/>
<path d="M248.882 271.673H195.121C195.101 271.673 195.081 271.669 195.062 271.661C195.044 271.654 195.027 271.642 195.012 271.628C194.998 271.614 194.986 271.597 194.979 271.578C194.971 271.559 194.967 271.539 194.967 271.519C194.967 271.499 194.971 271.479 194.979 271.46C194.986 271.441 194.998 271.424 195.012 271.41C195.027 271.396 195.044 271.384 195.062 271.377C195.081 271.369 195.101 271.365 195.121 271.365H248.882C248.922 271.366 248.961 271.382 248.99 271.411C249.018 271.439 249.034 271.478 249.034 271.519C249.034 271.56 249.018 271.599 248.99 271.627C248.961 271.656 248.922 271.672 248.882 271.673Z" fill="#CCCCCC"/>
<path d="M248.882 275.362H195.121C195.101 275.362 195.081 275.358 195.062 275.351C195.044 275.343 195.027 275.332 195.012 275.318C194.998 275.303 194.986 275.286 194.979 275.268C194.971 275.249 194.967 275.229 194.967 275.208C194.967 275.188 194.971 275.168 194.979 275.149C194.986 275.131 194.998 275.114 195.012 275.099C195.027 275.085 195.044 275.074 195.062 275.066C195.081 275.058 195.101 275.055 195.121 275.055H248.882C248.922 275.055 248.961 275.071 248.99 275.1C249.018 275.129 249.034 275.168 249.034 275.208C249.034 275.249 249.018 275.288 248.99 275.317C248.961 275.346 248.922 275.362 248.882 275.362Z" fill="#CCCCCC"/>
<path d="M248.882 279.054H195.121C195.101 279.054 195.081 279.05 195.062 279.042C195.044 279.035 195.027 279.023 195.012 279.009C194.998 278.995 194.986 278.978 194.979 278.959C194.971 278.94 194.967 278.92 194.967 278.9C194.967 278.88 194.971 278.859 194.979 278.841C194.986 278.822 194.998 278.805 195.012 278.791C195.027 278.776 195.044 278.765 195.062 278.757C195.081 278.75 195.101 278.746 195.121 278.746H248.882C248.922 278.746 248.961 278.763 248.99 278.792C249.018 278.82 249.034 278.859 249.034 278.9C249.034 278.94 249.018 278.979 248.99 279.008C248.961 279.037 248.922 279.053 248.882 279.054Z" fill="#CCCCCC"/>
<path d="M181.438 132.906V5.46191C181.439 4.01383 182.015 2.62553 183.037 1.60158C184.06 0.577632 185.447 0.00164715 186.894 0H287.532C288.979 0.00165674 290.366 0.577645 291.388 1.60159C292.411 2.62554 292.987 4.01383 292.988 5.46191V132.906C292.987 134.354 292.411 135.743 291.388 136.767C290.366 137.791 288.979 138.367 287.532 138.368H186.894C185.447 138.367 184.06 137.791 183.037 136.767C182.015 135.743 181.439 134.354 181.438 132.906ZM186.894 1.21376C185.769 1.21502 184.69 1.663 183.894 2.45941C183.099 3.25582 182.651 4.33562 182.65 5.46191V132.906C182.651 134.033 183.099 135.112 183.894 135.909C184.69 136.705 185.769 137.153 186.894 137.154H287.532C288.657 137.153 289.736 136.705 290.532 135.909C291.327 135.112 291.775 134.033 291.776 132.906V5.46191C291.775 4.33562 291.327 3.25582 290.532 2.45941C289.736 1.663 288.657 1.21502 287.532 1.21376H186.894Z" fill="#E6E6E6"/>
<path d="M242.857 58.5282V32.3599C242.858 31.6358 243.146 30.9417 243.657 30.4297C244.169 29.9177 244.862 29.6297 245.586 29.6289H267.738C268.461 29.6297 269.155 29.9177 269.666 30.4297C270.178 30.9417 270.465 31.6358 270.466 32.3599V58.5282C270.465 59.2523 270.178 59.9464 269.666 60.4584C269.155 60.9704 268.461 61.2584 267.738 61.2592H245.586C244.862 61.2584 244.169 60.9704 243.657 60.4584C243.146 59.9464 242.858 59.2523 242.857 58.5282Z" fill="#CE992F"/>
<path d="M199.812 70.6668V44.4985C199.813 43.7745 200.101 43.0803 200.612 42.5683C201.124 42.0564 201.817 41.7684 202.541 41.7676H224.693C225.417 41.7684 226.11 42.0564 226.621 42.5683C227.133 43.0803 227.421 43.7745 227.421 44.4985V70.6669C227.421 71.3909 227.133 72.0851 226.621 72.5971C226.11 73.1091 225.417 73.397 224.693 73.3978H202.541C201.817 73.397 201.124 73.109 200.612 72.5971C200.101 72.0851 199.813 71.3909 199.812 70.6668Z" fill="#CCCCCC"/>
<path d="M234.369 107.686V81.5181C234.37 80.794 234.658 80.0998 235.169 79.5879C235.681 79.0759 236.374 78.7879 237.097 78.7871H259.25C259.973 78.7879 260.667 79.0759 261.178 79.5879C261.689 80.0998 261.977 80.794 261.978 81.5181V107.686C261.977 108.41 261.689 109.105 261.178 109.617C260.667 110.129 259.973 110.417 259.25 110.417H237.097C236.374 110.417 235.681 110.129 235.169 109.617C234.658 109.105 234.37 108.41 234.369 107.686Z" fill="#FF6584"/>
<path d="M366.753 227.326H343.96C343.744 227.326 343.53 227.376 343.336 227.471L337.584 230.354C337.394 230.435 337.233 230.569 337.119 230.741C337.006 230.913 336.945 231.114 336.945 231.32C336.945 231.526 337.006 231.727 337.119 231.899C337.233 232.071 337.394 232.205 337.584 232.286L343.336 235.169C343.53 235.265 343.744 235.314 343.96 235.314H366.753C367.067 235.332 367.376 235.226 367.612 235.018C367.849 234.81 367.993 234.517 368.016 234.203V228.437C367.993 228.123 367.849 227.83 367.612 227.622C367.376 227.414 367.067 227.308 366.753 227.326Z" fill="#3F3D56"/>
<path d="M368.014 228.437V234.203C367.992 234.517 367.847 234.81 367.611 235.018C367.375 235.226 367.066 235.332 366.752 235.314H362.211V227.326H366.752C367.066 227.308 367.375 227.414 367.611 227.622C367.847 227.83 367.992 228.123 368.014 228.437Z" fill="#CE992F"/>
<path d="M366.58 184.191C367.613 183.745 368.727 183.522 369.852 183.538C370.976 183.553 372.085 183.806 373.104 184.28C374.124 184.754 375.033 185.439 375.77 186.289C376.507 187.139 377.056 188.135 377.382 189.212C377.484 189.554 377.561 189.902 377.614 190.254L409.489 206.076L416.865 201.183L426.043 211.76L414.78 220.917C413.426 222.01 411.755 222.636 410.017 222.703C408.279 222.77 406.565 222.275 405.131 221.29L372.792 198.903C372.551 199.005 372.305 199.095 372.055 199.172C370.979 199.497 369.846 199.592 368.73 199.449C367.615 199.306 366.542 198.929 365.583 198.342C364.623 197.755 363.798 196.971 363.162 196.043C362.526 195.115 362.093 194.062 361.892 192.955C361.832 192.634 361.793 192.309 361.774 191.982C361.684 190.348 362.097 188.725 362.956 187.332C363.815 185.939 365.08 184.843 366.58 184.191Z" fill="#FFB8B8"/>
<path d="M432.968 281.605H398.14C398.14 282.608 362.246 283.421 362.246 283.421C361.683 283.846 361.169 284.333 360.715 284.873C359.352 286.501 358.607 288.559 358.611 290.683V292.135C358.612 294.542 359.568 296.851 361.268 298.553C362.969 300.255 365.275 301.211 367.679 301.212H432.968C435.373 301.21 437.678 300.253 439.378 298.551C441.078 296.85 442.034 294.542 442.036 292.135V290.683C442.033 288.276 441.076 285.969 439.377 284.268C437.677 282.566 435.372 281.609 432.968 281.605Z" fill="#3F3D56"/>
<path d="M395.083 361.852H404.514V300.853H395.083V361.852Z" fill="#3F3D56"/>
<path d="M368.242 361.519C368.242 362.539 382.533 361.913 400.161 361.913C417.79 361.913 432.08 362.539 432.08 361.519C432.08 360.499 417.79 352.41 400.161 352.41C382.533 352.41 368.242 360.499 368.242 361.519Z" fill="#3F3D56"/>
<path d="M376.755 354.37L367.862 354.37L363.631 331.279L376.757 331.28L376.755 354.37Z" fill="#FFB8B8"/>
<path d="M379.024 363L350.348 362.999V362.636C350.348 361.169 350.636 359.716 351.197 358.36C351.758 357.005 352.58 355.773 353.617 354.735C354.653 353.698 355.884 352.875 357.238 352.313C358.592 351.752 360.044 351.463 361.51 351.463H361.51L379.025 351.464L379.024 363Z" fill="#2F2E41"/>
<path d="M363.453 340.053L345.723 300.253C344.243 296.898 344.079 293.109 345.265 289.639C346.45 286.169 348.898 283.273 352.12 281.529L390.578 260.885L408.127 259.391L424.315 257.918L424.432 258.116C424.581 258.368 428.061 264.386 425.709 270.985C423.924 275.99 419.282 279.9 411.912 282.605C394.709 288.92 374.836 294.316 367.09 296.343C366.748 296.431 366.428 296.59 366.151 296.81C365.875 297.03 365.648 297.307 365.486 297.621C365.323 297.932 365.227 298.272 365.202 298.622C365.178 298.972 365.226 299.323 365.344 299.653L381.816 336.699C381.988 337.169 382.05 337.672 381.997 338.17C381.944 338.667 381.777 339.146 381.51 339.569C381.243 339.992 380.883 340.348 380.457 340.61C380.03 340.871 379.55 341.031 379.052 341.078L366.744 341.975C366.64 341.985 366.536 341.99 366.432 341.99C365.802 341.989 365.185 341.806 364.656 341.463C364.128 341.119 363.71 340.629 363.453 340.053Z" fill="#2F2E41"/>
<path d="M381.109 354.37L372.216 354.37L367.984 331.279L381.11 331.28L381.109 354.37Z" fill="#FFB8B8"/>
<path d="M383.376 363L354.699 362.999V362.636C354.699 361.169 354.988 359.716 355.549 358.36C356.11 357.005 356.932 355.773 357.968 354.735C359.005 353.698 360.235 352.875 361.59 352.313C362.944 351.752 364.395 351.463 365.861 351.463H365.862L383.377 351.464L383.376 363Z" fill="#2F2E41"/>
<path d="M368.531 342.229L350.801 302.428C349.321 299.074 349.157 295.284 350.343 291.814C351.528 288.344 353.976 285.449 357.198 283.704L395.656 263.061L413.205 261.567L429.393 260.094L429.51 260.292C429.659 260.544 433.14 266.562 430.787 273.161C429.002 278.166 424.36 282.076 416.99 284.781C399.787 291.095 379.914 296.492 372.168 298.519C371.826 298.606 371.506 298.766 371.229 298.986C370.953 299.206 370.726 299.483 370.564 299.797C370.401 300.107 370.305 300.448 370.28 300.798C370.256 301.148 370.304 301.499 370.422 301.829L386.894 338.875C387.066 339.345 387.128 339.848 387.075 340.346C387.022 340.843 386.855 341.322 386.588 341.745C386.321 342.168 385.961 342.524 385.535 342.786C385.109 343.047 384.628 343.207 384.13 343.253L371.822 344.15C371.718 344.16 371.614 344.165 371.51 344.165C370.88 344.165 370.263 343.982 369.734 343.638C369.206 343.295 368.788 342.805 368.531 342.229Z" fill="#2F2E41"/>
<path d="M359.695 220.646C352.245 210.725 346.355 199.722 342.23 188.017C341.991 187.317 342.008 186.555 342.278 185.866C342.548 185.178 343.053 184.607 343.704 184.256L369.2 170.581C369.612 170.358 370.07 170.233 370.538 170.213C371.007 170.194 371.473 170.283 371.902 170.471C372.339 170.662 372.727 170.949 373.037 171.312C373.346 171.675 373.569 172.104 373.688 172.566C376.655 183.844 382.233 194.265 389.971 202.986C390.289 203.341 390.522 203.764 390.653 204.223C390.784 204.682 390.808 205.164 390.724 205.634C390.643 206.096 390.458 206.534 390.183 206.914C389.908 207.293 389.549 207.605 389.135 207.826L363.64 221.501C362.988 221.849 362.233 221.954 361.511 221.797C360.789 221.641 360.145 221.233 359.695 220.646Z" fill="#CCCCCC"/>
<path d="M361.435 219.337C361.573 219.508 361.765 219.626 361.98 219.67C362.195 219.715 362.418 219.683 362.612 219.58L388.108 205.904C388.232 205.84 388.339 205.747 388.421 205.634C388.503 205.521 388.558 205.391 388.581 205.253C388.608 205.108 388.6 204.958 388.559 204.816C388.519 204.674 388.445 204.543 388.346 204.434C380.38 195.457 374.638 184.729 371.583 173.118C371.548 172.974 371.48 172.841 371.384 172.728C371.289 172.615 371.169 172.526 371.033 172.468C370.905 172.41 370.766 172.384 370.626 172.389C370.487 172.395 370.35 172.433 370.228 172.501L344.732 186.176C344.539 186.28 344.389 186.449 344.307 186.653C344.225 186.857 344.216 187.083 344.283 187.292C348.334 198.787 354.118 209.594 361.435 219.337Z" fill="white"/>
<path d="M444.395 216.997L424.428 224.592L419.553 211.037C418.906 209.237 418.915 207.266 419.579 205.472C420.243 203.678 421.519 202.177 423.182 201.234C424.864 200.28 426.831 199.959 428.728 200.33C430.626 200.701 432.328 201.739 433.528 203.256L444.395 216.997Z" fill="#CE992F"/>
<path d="M393.608 270.705C393.188 270.408 392.836 270.024 392.575 269.579C392.315 269.135 392.152 268.64 392.097 268.128C389.539 244.23 391.321 225.527 397.542 210.952C398.638 208.439 400.288 206.206 402.37 204.423C404.451 202.639 406.91 201.351 409.56 200.655L425.7 199.84L425.784 199.88C429.426 201.666 432.397 204.579 434.255 208.188C436.113 211.797 436.76 215.909 436.099 219.914C430.908 233.612 426.561 247.874 429.876 259.379C430.015 259.86 430.056 260.365 429.995 260.862C429.935 261.359 429.775 261.838 429.525 262.272C429.283 262.691 428.957 263.056 428.568 263.345C428.18 263.633 427.736 263.839 427.265 263.949L396.522 271.27C396.024 271.388 395.507 271.399 395.004 271.302C394.502 271.204 394.026 271.001 393.608 270.705Z" fill="#CE992F"/>
<path d="M420.313 193.806C430.154 193.806 438.131 185.821 438.131 175.97C438.131 166.12 430.154 158.135 420.313 158.135C410.473 158.135 402.496 166.12 402.496 175.97C402.496 185.821 410.473 193.806 420.313 193.806Z" fill="#FFB8B8"/>
<path d="M370.874 190.096L356.988 196.232C356.46 196.465 355.861 196.478 355.323 196.269C354.785 196.061 354.351 195.647 354.118 195.119L353.774 194.34C353.542 193.811 353.529 193.212 353.737 192.673C353.946 192.135 354.359 191.701 354.887 191.467L368.772 185.331C369.301 185.099 369.899 185.085 370.437 185.294C370.975 185.503 371.409 185.916 371.642 186.444L371.986 187.223C372.218 187.752 372.232 188.351 372.023 188.89C371.815 189.428 371.401 189.862 370.874 190.096Z" fill="#CCCCCC"/>
<path d="M375.952 199.537L362.066 205.673C361.538 205.906 360.939 205.92 360.401 205.711C359.863 205.502 359.43 205.088 359.196 204.56L358.853 203.781C358.62 203.253 358.607 202.653 358.815 202.115C359.024 201.576 359.437 201.142 359.965 200.909L373.851 194.773C374.379 194.54 374.977 194.527 375.515 194.735C376.053 194.944 376.487 195.358 376.72 195.886L377.064 196.665C377.296 197.193 377.31 197.793 377.101 198.331C376.893 198.87 376.479 199.304 375.952 199.537Z" fill="#CCCCCC"/>
<path d="M386.66 236.41L355.702 211.963C355.456 212.05 355.205 212.124 354.951 212.185C353.858 212.44 352.724 212.463 351.622 212.252C350.52 212.04 349.474 211.599 348.554 210.956C347.627 210.314 346.849 209.48 346.27 208.511C345.691 207.543 345.325 206.462 345.198 205.341C344.99 203.548 345.394 201.738 346.343 200.204C347.292 198.67 348.732 197.502 350.427 196.889C351.486 196.509 352.612 196.357 353.734 196.443C354.855 196.53 355.945 196.852 356.933 197.389C357.921 197.927 358.785 198.667 359.467 199.561C360.149 200.456 360.635 201.485 360.893 202.581C360.972 202.928 361.028 203.28 361.059 203.635L391.876 221.432L399.545 217.012L408.041 228.146L396.134 236.641C394.74 237.628 393.065 238.138 391.358 238.096C389.652 238.055 388.004 237.463 386.66 236.41Z" fill="#FFB8B8"/>
<path d="M411.818 231.614L394.154 219.59L402.455 207.821C403.558 206.258 405.176 205.136 407.025 204.652C408.874 204.168 410.835 204.355 412.56 205.178C414.305 206.01 415.695 207.44 416.479 209.209C417.263 210.978 417.39 212.969 416.836 214.823L411.818 231.614Z" fill="#CE992F"/>
<path d="M413.781 173.314C409.201 176.451 403.188 179.676 398.511 176.335C395.44 174.141 394.472 170.079 395.718 166.514C397.957 160.102 404.11 157.28 409.994 155.117C417.644 152.304 425.973 150.067 433.869 152.081C441.766 154.095 448.745 161.748 447.319 169.78C446.173 176.239 440.087 181.613 440.951 188.116C441.82 194.66 449.173 198.105 455.664 199.274C462.155 200.444 469.418 200.82 474.083 205.487C480.034 211.441 478.548 222.083 472.948 228.369C467.349 234.655 458.899 237.504 450.711 239.441C439.862 242.008 428.129 243.356 417.825 239.097C407.522 234.838 399.504 223.372 402.489 212.621C403.75 208.079 406.72 204.241 409.59 200.505C412.46 196.768 415.367 192.861 416.461 188.277C417.374 184.456 416.699 180.021 414.168 177.155C413.707 176.654 413.418 176.019 413.34 175.342C413.263 174.666 413.401 173.982 413.737 173.389L413.781 173.314Z" fill="#2F2E41"/>
<path d="M79.1246 259.971C74.5334 261.587 69.6039 261.991 64.8112 261.146C60.0184 260.301 55.5238 258.235 51.7604 255.146C42.176 247.093 39.171 233.826 36.7259 221.542C34.3152 209.43 31.9046 197.319 29.4939 185.207L44.6349 195.643C55.5234 203.148 66.6572 210.894 74.1963 221.765C81.7355 232.636 85.0263 247.475 78.9689 259.238" fill="#E6E6E6"/>
<path d="M77.8297 303.962C79.3622 292.788 80.938 281.47 79.863 270.176C78.9083 260.146 75.8515 250.35 69.628 242.317C66.3246 238.062 62.305 234.415 57.7499 231.542C56.562 230.792 55.4688 232.676 56.6514 233.424C64.5331 238.41 70.6293 245.773 74.061 254.451C77.8513 264.102 78.46 274.622 77.8068 284.873C77.4118 291.073 76.5747 297.232 75.7311 303.383C75.6646 303.661 75.7061 303.954 75.8472 304.203C75.9883 304.451 76.2184 304.637 76.4911 304.723C76.7694 304.798 77.0659 304.76 77.3165 304.617C77.5671 304.475 77.7515 304.239 77.8297 303.962H77.8297Z" fill="#F2F2F2"/>
<path d="M63.0704 284.19C61.1013 287.186 58.3947 289.623 55.2113 291.268C52.0279 292.913 48.4749 293.709 44.8948 293.58C35.6941 293.143 28.0236 286.715 21.1187 280.612L0.695312 262.562L14.2122 261.914C23.9327 261.448 33.904 261.014 43.1625 264.015C52.421 267.015 60.9596 274.237 62.6526 283.83" fill="#E6E6E6"/>
<path d="M82.1617 310.385C74.7857 297.32 66.2301 282.8 50.9428 278.159C46.6922 276.873 42.2352 276.413 37.8117 276.802C36.4176 276.922 36.7657 279.074 38.1573 278.954C45.572 278.337 52.9724 280.297 59.1125 284.503C65.0211 288.529 69.6216 294.126 73.5154 300.062C75.9005 303.697 78.0369 307.487 80.1737 311.272C80.8565 312.482 82.8525 311.609 82.1617 310.385Z" fill="#F2F2F2"/>
<path d="M93.9799 324.136C93.7314 321.253 92.6975 318.494 90.9908 316.159C89.2841 313.824 86.97 312.002 84.3006 310.893V303.34H71.6455V311.131C69.1075 312.295 66.9233 314.112 65.3155 316.397C63.7077 318.681 62.7339 321.352 62.4933 324.136L59.5176 358.763H96.9557L93.9799 324.136Z" fill="#F2F2F2"/>
</g>
<defs>
<clipPath id="clip0_259_2122">
<rect width="502" height="363" fill="white"/>
</clipPath>
</defs>
</svg>
