<svg width="502" height="363" viewBox="0 0 502 363" fill="none" xmlns="http://www.w3.org/2000/svg">
<g clip-path="url(#clip0_259_1445)">
<path d="M501.275 360.216H0.725434C0.533037 360.216 0.348519 360.14 0.212474 360.003C0.0764288 359.867 0 359.682 0 359.49C0 359.297 0.0764288 359.113 0.212474 358.976C0.348519 358.84 0.533037 358.764 0.725434 358.764H501.275C501.467 358.764 501.651 358.84 501.788 358.976C501.924 359.113 502 359.297 502 359.49C502 359.682 501.924 359.867 501.788 360.003C501.651 360.14 501.467 360.216 501.275 360.216Z" fill="#CCCCCC"/>
<path d="M451.731 233.569H157.205C155.954 233.569 154.755 234.067 153.87 234.952C152.986 235.837 152.489 237.038 152.489 238.289C152.489 239.541 152.986 240.742 153.87 241.627C154.755 242.512 155.954 243.01 157.205 243.01H165.547V355.93C165.547 357.182 166.044 358.383 166.928 359.268C167.812 360.153 169.012 360.651 170.262 360.651C171.513 360.651 172.712 360.153 173.597 359.268C174.481 358.383 174.978 357.182 174.978 355.93L175.049 243.01H433.232V355.93C433.232 357.182 433.729 358.383 434.613 359.268C435.497 360.153 436.697 360.651 437.947 360.651C439.198 360.651 440.397 360.153 441.282 359.268C442.166 358.383 442.663 357.182 442.663 355.93V245.499L444.035 243.01H451.731C452.981 243.01 454.181 242.512 455.065 241.627C455.949 240.742 456.446 239.541 456.446 238.289C456.446 237.038 455.949 235.837 455.065 234.952C454.181 234.067 452.981 233.569 451.731 233.569Z" fill="#CCCCCC"/>
<path d="M320.492 236.04H231.277C229.55 236.038 227.894 235.35 226.672 234.127C225.451 232.905 224.763 231.247 224.761 229.518V180.349C224.763 178.619 225.451 176.961 226.672 175.739C227.894 174.516 229.55 173.828 231.277 173.826H320.492C322.22 173.828 323.876 174.516 325.097 175.739C326.319 176.961 327.006 178.619 327.008 180.349V229.518C327.006 231.247 326.319 232.905 325.097 234.127C323.876 235.35 322.22 236.038 320.492 236.04Z" fill="#3F3D56"/>
<path d="M320.492 178.846H231.278C230.88 178.847 230.498 179.005 230.217 179.287C229.935 179.569 229.777 179.95 229.776 180.349V229.518C229.777 229.917 229.935 230.299 230.217 230.58C230.498 230.862 230.88 231.021 231.278 231.022H320.492C320.89 231.021 321.271 230.862 321.553 230.58C321.834 230.299 321.993 229.917 321.993 229.518V180.349C321.993 179.95 321.834 179.569 321.553 179.287C321.271 179.005 320.89 178.847 320.492 178.846Z" fill="white"/>
<path d="M283.494 213.657C283.494 213.657 272.814 211.193 266.94 215.71C261.066 220.226 274.416 230.491 274.416 230.491L283.494 213.657Z" fill="#2F2E41"/>
<path d="M276.408 209.003C281.971 209.003 286.482 204.488 286.482 198.918C286.482 193.349 281.971 188.834 276.408 188.834C270.844 188.834 266.333 193.349 266.333 198.918C266.333 204.488 270.844 209.003 276.408 209.003Z" fill="#A0616A"/>
<path d="M268.618 184.762C269.289 183.621 270.263 182.687 271.432 182.065C272.6 181.443 273.917 181.156 275.238 181.236C276.62 181.409 277.968 181.787 279.239 182.357L285.825 184.929C287.529 185.594 289.396 186.409 290.135 188.084C290.821 189.638 290.309 191.433 289.791 193.052L287.327 200.744C287.054 199.003 286.586 197.299 285.931 195.663C285.265 194.016 284.062 192.643 282.518 191.768C280.807 190.889 278.791 190.907 276.871 191C274.151 191.131 271.194 191.477 269.261 193.398C268.236 194.488 267.54 195.848 267.256 197.319C266.976 198.781 266.835 200.267 266.835 201.757C265.72 199.838 264.781 197.821 264.028 195.733C263.41 194.177 263.057 192.529 262.986 190.857C262.921 189.17 263.48 187.518 264.556 186.218C265.102 185.583 265.814 185.113 266.613 184.862C267.412 184.61 268.264 184.587 269.076 184.794L268.618 184.762Z" fill="#2F2E41"/>
<path d="M300.462 222.402C300.368 222.061 300.175 221.756 299.908 221.525C299.64 221.294 299.311 221.146 298.961 221.102C298.938 221.086 298.913 221.071 298.888 221.058L283.849 212.621C283.419 212.38 282.914 212.315 282.437 212.437C281.96 212.56 281.549 212.862 281.289 213.281L277.176 219.947L270.981 213.746L270.882 213.647C270.565 213.329 270.145 213.133 269.697 213.094C269.249 213.054 268.801 213.174 268.433 213.433L256.073 222.097C256.051 222.097 256.03 222.104 256.008 222.104C255.416 222.203 254.876 222.5 254.476 222.948C254.077 223.396 253.842 223.966 253.81 224.566L253.49 231.021H302.849L300.462 222.402Z" fill="#CE992F"/>
<path d="M328.01 230.019H318.487C318.487 229.753 318.382 229.498 318.194 229.31C318.006 229.121 317.751 229.016 317.485 229.016H314.478C314.212 229.016 313.957 229.121 313.769 229.31C313.581 229.498 313.475 229.753 313.475 230.019H310.468C310.468 229.753 310.362 229.498 310.174 229.31C309.986 229.121 309.731 229.016 309.466 229.016H306.458C306.193 229.016 305.938 229.121 305.75 229.31C305.562 229.498 305.456 229.753 305.456 230.019H302.449C302.449 229.753 302.343 229.498 302.155 229.31C301.967 229.121 301.712 229.016 301.446 229.016H298.439C298.173 229.016 297.918 229.121 297.73 229.31C297.542 229.498 297.437 229.753 297.437 230.019H294.429C294.429 229.753 294.324 229.498 294.136 229.31C293.948 229.121 293.693 229.016 293.427 229.016H290.42C290.154 229.016 289.899 229.121 289.711 229.31C289.523 229.498 289.417 229.753 289.417 230.019H286.41C286.41 229.753 286.304 229.498 286.116 229.31C285.928 229.121 285.673 229.016 285.408 229.016H282.4C282.134 229.016 281.88 229.121 281.692 229.31C281.504 229.498 281.398 229.753 281.398 230.019H278.391C278.391 229.753 278.285 229.498 278.097 229.31C277.909 229.121 277.654 229.016 277.388 229.016H274.381C274.115 229.016 273.86 229.121 273.672 229.31C273.484 229.498 273.379 229.753 273.379 230.019H270.371C270.371 229.753 270.266 229.498 270.078 229.31C269.89 229.121 269.635 229.016 269.369 229.016H266.362C266.096 229.016 265.841 229.121 265.653 229.31C265.465 229.498 265.359 229.753 265.359 230.019H262.352C262.352 229.753 262.246 229.498 262.058 229.31C261.87 229.121 261.615 229.016 261.35 229.016H258.342C258.076 229.016 257.821 229.121 257.634 229.31C257.446 229.498 257.34 229.753 257.34 230.019H254.333C254.333 229.753 254.227 229.498 254.039 229.31C253.851 229.121 253.596 229.016 253.33 229.016H250.323C250.057 229.016 249.802 229.121 249.614 229.31C249.426 229.498 249.321 229.753 249.321 230.019H246.313C246.313 229.753 246.208 229.498 246.02 229.31C245.832 229.121 245.577 229.016 245.311 229.016H242.304C242.038 229.016 241.783 229.121 241.595 229.31C241.407 229.498 241.301 229.753 241.301 230.019H238.294C238.294 229.753 238.188 229.498 238 229.31C237.812 229.121 237.557 229.016 237.292 229.016H234.284C234.018 229.016 233.763 229.121 233.575 229.31C233.388 229.498 233.282 229.753 233.282 230.019H223.759C222.962 230.02 222.198 230.338 221.636 230.902C221.073 231.467 220.756 232.232 220.756 233.029C220.756 233.827 221.073 234.592 221.636 235.156C222.198 235.721 222.962 236.039 223.759 236.04H328.01C328.808 236.04 329.573 235.723 330.137 235.158C330.701 234.594 331.018 233.828 331.018 233.029C331.018 232.231 330.701 231.465 330.137 230.901C329.573 230.336 328.808 230.019 328.01 230.019Z" fill="#3F3D56"/>
<path d="M208.257 212.537V232.526H158.229C156.889 232.573 155.553 232.349 154.301 231.867C153.049 231.386 151.906 230.658 150.942 229.725C149.977 228.792 149.21 227.675 148.686 226.439C148.162 225.203 147.892 223.874 147.892 222.532C147.892 221.189 148.162 219.86 148.686 218.624C149.21 217.389 149.977 216.271 150.942 215.338C151.906 214.406 153.049 213.677 154.301 213.196C155.553 212.715 156.889 212.491 158.229 212.537H208.257Z" fill="#F2F2F2"/>
<path d="M209.486 232.371C209.486 232.575 209.405 232.771 209.261 232.915C209.117 233.059 208.921 233.14 208.718 233.14H157.338C154.548 233.14 151.872 232.03 149.898 230.055C147.925 228.08 146.817 225.401 146.817 222.608C146.817 219.814 147.925 217.135 149.898 215.16C151.872 213.185 154.548 212.075 157.338 212.075H208.718C208.921 212.075 209.117 212.156 209.261 212.3C209.405 212.445 209.486 212.64 209.486 212.844C209.486 213.048 209.405 213.243 209.261 213.388C209.117 213.532 208.921 213.613 208.718 213.613H157.338C154.957 213.615 152.673 214.564 150.99 216.25C149.306 217.937 148.361 220.223 148.361 222.608C148.361 224.992 149.306 227.278 150.99 228.965C152.673 230.652 154.957 231.6 157.338 231.603H208.718C208.921 231.603 209.117 231.684 209.261 231.828C209.405 231.972 209.486 232.167 209.486 232.371Z" fill="#CE992F"/>
<path d="M208.257 217.149H154.496C154.476 217.149 154.456 217.146 154.437 217.138C154.419 217.13 154.402 217.119 154.387 217.105C154.373 217.09 154.361 217.073 154.354 217.055C154.346 217.036 154.342 217.016 154.342 216.996C154.342 216.975 154.346 216.955 154.354 216.936C154.361 216.918 154.373 216.901 154.387 216.886C154.402 216.872 154.419 216.861 154.437 216.853C154.456 216.846 154.476 216.842 154.496 216.842H208.257C208.297 216.842 208.336 216.858 208.365 216.887C208.393 216.916 208.409 216.955 208.409 216.996C208.409 217.036 208.393 217.075 208.365 217.104C208.336 217.133 208.297 217.149 208.257 217.149Z" fill="#CCCCCC"/>
<path d="M208.257 220.84H154.496C154.476 220.84 154.456 220.836 154.437 220.828C154.419 220.821 154.402 220.809 154.387 220.795C154.373 220.781 154.361 220.764 154.354 220.745C154.346 220.726 154.342 220.706 154.342 220.686C154.342 220.666 154.346 220.646 154.354 220.627C154.361 220.608 154.373 220.591 154.387 220.577C154.402 220.563 154.419 220.551 154.437 220.544C154.456 220.536 154.476 220.532 154.496 220.532H208.257C208.297 220.533 208.336 220.549 208.365 220.578C208.393 220.606 208.409 220.645 208.409 220.686C208.409 220.727 208.393 220.766 208.365 220.794C208.336 220.823 208.297 220.839 208.257 220.84Z" fill="#CCCCCC"/>
<path d="M208.257 224.53H154.496C154.476 224.53 154.456 224.526 154.437 224.519C154.419 224.511 154.402 224.5 154.387 224.486C154.373 224.471 154.361 224.454 154.354 224.435C154.346 224.417 154.342 224.397 154.342 224.376C154.342 224.356 154.346 224.336 154.354 224.317C154.361 224.299 154.373 224.282 154.387 224.267C154.402 224.253 154.419 224.242 154.437 224.234C154.456 224.226 154.476 224.223 154.496 224.223H208.257C208.297 224.223 208.336 224.239 208.365 224.268C208.393 224.297 208.409 224.336 208.409 224.376C208.409 224.417 208.393 224.456 208.365 224.485C208.336 224.514 208.297 224.53 208.257 224.53Z" fill="#CCCCCC"/>
<path d="M208.257 228.221H154.496C154.476 228.221 154.456 228.217 154.437 228.209C154.419 228.202 154.402 228.19 154.387 228.176C154.373 228.162 154.361 228.145 154.354 228.126C154.346 228.107 154.342 228.087 154.342 228.067C154.342 228.047 154.346 228.026 154.354 228.008C154.361 227.989 154.373 227.972 154.387 227.958C154.402 227.943 154.419 227.932 154.437 227.924C154.456 227.917 154.476 227.913 154.496 227.913H208.257C208.297 227.913 208.336 227.93 208.365 227.959C208.393 227.987 208.409 228.026 208.409 228.067C208.409 228.107 208.393 228.146 208.365 228.175C208.336 228.204 208.297 228.22 208.257 228.221Z" fill="#CCCCCC"/>
<path d="M198.826 191.478V211.466H148.799C147.458 211.513 146.122 211.289 144.87 210.808C143.618 210.327 142.476 209.598 141.511 208.665C140.546 207.733 139.779 206.615 139.255 205.379C138.731 204.143 138.461 202.815 138.461 201.472C138.461 200.13 138.731 198.801 139.255 197.565C139.779 196.329 140.546 195.211 141.511 194.279C142.476 193.346 143.618 192.617 144.87 192.136C146.122 191.655 147.458 191.431 148.799 191.478H198.826Z" fill="#F2F2F2"/>
<path d="M200.055 211.313C200.055 211.517 199.974 211.712 199.83 211.856C199.686 212 199.491 212.081 199.287 212.082H147.908C146.526 212.082 145.158 211.809 143.881 211.28C142.605 210.75 141.445 209.975 140.468 208.997C139.491 208.019 138.716 206.858 138.187 205.58C137.658 204.302 137.386 202.932 137.386 201.549C137.386 200.166 137.658 198.796 138.187 197.518C138.716 196.241 139.491 195.08 140.468 194.101C141.445 193.123 142.605 192.348 143.881 191.818C145.158 191.289 146.526 191.017 147.908 191.017H199.287C199.491 191.017 199.686 191.098 199.83 191.242C199.974 191.386 200.055 191.582 200.055 191.785C200.055 191.989 199.974 192.185 199.83 192.329C199.686 192.473 199.491 192.554 199.287 192.554H147.908C145.526 192.556 143.242 193.505 141.559 195.192C139.876 196.878 138.93 199.165 138.93 201.549C138.93 203.933 139.876 206.22 141.559 207.907C143.242 209.593 145.526 210.542 147.908 210.544H199.287C199.491 210.544 199.686 210.625 199.83 210.769C199.974 210.913 200.055 211.109 200.055 211.313Z" fill="#3F3D56"/>
<path d="M198.826 196.091H145.066C145.046 196.091 145.025 196.087 145.007 196.079C144.988 196.072 144.971 196.06 144.956 196.046C144.942 196.032 144.931 196.015 144.923 195.996C144.915 195.977 144.911 195.957 144.911 195.937C144.911 195.917 144.915 195.897 144.923 195.878C144.931 195.859 144.942 195.842 144.956 195.828C144.971 195.814 144.988 195.802 145.007 195.795C145.025 195.787 145.046 195.783 145.066 195.783H198.826C198.867 195.783 198.905 195.8 198.934 195.829C198.963 195.857 198.979 195.896 198.979 195.937C198.979 195.978 198.963 196.017 198.934 196.045C198.905 196.074 198.867 196.09 198.826 196.091Z" fill="#CCCCCC"/>
<path d="M198.826 199.78H145.066C145.046 199.78 145.025 199.776 145.007 199.769C144.988 199.761 144.971 199.75 144.956 199.736C144.942 199.721 144.931 199.704 144.923 199.685C144.915 199.667 144.911 199.647 144.911 199.626C144.911 199.606 144.915 199.586 144.923 199.567C144.931 199.549 144.942 199.532 144.956 199.517C144.971 199.503 144.988 199.492 145.007 199.484C145.025 199.476 145.046 199.473 145.066 199.473H198.826C198.867 199.473 198.905 199.489 198.934 199.518C198.963 199.547 198.979 199.586 198.979 199.626C198.979 199.667 198.963 199.706 198.934 199.735C198.905 199.764 198.867 199.78 198.826 199.78Z" fill="#CCCCCC"/>
<path d="M198.826 203.471H145.066C145.046 203.471 145.025 203.467 145.007 203.459C144.988 203.452 144.971 203.44 144.956 203.426C144.942 203.412 144.931 203.395 144.923 203.376C144.915 203.357 144.911 203.337 144.911 203.317C144.911 203.297 144.915 203.276 144.923 203.258C144.931 203.239 144.942 203.222 144.956 203.208C144.971 203.193 144.988 203.182 145.007 203.174C145.025 203.167 145.046 203.163 145.066 203.163H198.826C198.867 203.163 198.905 203.18 198.934 203.208C198.963 203.237 198.979 203.276 198.979 203.317C198.979 203.357 198.963 203.396 198.934 203.425C198.905 203.454 198.867 203.47 198.826 203.471Z" fill="#CCCCCC"/>
<path d="M198.826 207.161H145.066C145.046 207.161 145.025 207.157 145.007 207.15C144.988 207.142 144.971 207.131 144.956 207.116C144.942 207.102 144.931 207.085 144.923 207.066C144.915 207.048 144.911 207.028 144.911 207.007C144.911 206.987 144.915 206.967 144.923 206.948C144.931 206.929 144.942 206.912 144.956 206.898C144.971 206.884 144.988 206.873 145.007 206.865C145.025 206.857 145.046 206.853 145.066 206.854H198.826C198.867 206.854 198.905 206.87 198.934 206.899C198.963 206.928 198.979 206.967 198.979 207.007C198.979 207.048 198.963 207.087 198.934 207.116C198.905 207.144 198.867 207.161 198.826 207.161Z" fill="#CCCCCC"/>
<path d="M257.023 303.574V286.146C257.023 285.376 256.718 284.637 256.174 284.092C255.629 283.547 254.891 283.241 254.122 283.241H188.107C187.338 283.241 186.6 283.547 186.055 284.092C185.511 284.637 185.206 285.376 185.206 286.146V303.574H257.023Z" fill="#CCCCCC"/>
<path d="M257.023 310.109H185.206V332.621H257.023V310.109Z" fill="#CCCCCC"/>
<path d="M185.206 339.157V356.586C185.206 357.356 185.511 358.095 186.055 358.639C186.6 359.184 187.338 359.49 188.107 359.49H254.122C254.891 359.49 255.629 359.184 256.174 358.639C256.718 358.095 257.023 357.356 257.023 356.586V339.157H185.206Z" fill="#CCCCCC"/>
<path d="M220.752 296.312C221.954 296.312 222.928 295.337 222.928 294.134C222.928 292.93 221.954 291.955 220.752 291.955C219.55 291.955 218.575 292.93 218.575 294.134C218.575 295.337 219.55 296.312 220.752 296.312Z" fill="white"/>
<path d="M220.752 325.36C221.954 325.36 222.928 324.385 222.928 323.181C222.928 321.978 221.954 321.003 220.752 321.003C219.55 321.003 218.575 321.978 218.575 323.181C218.575 324.385 219.55 325.36 220.752 325.36Z" fill="white"/>
<path d="M220.868 353.792C222.07 353.792 223.045 352.816 223.045 351.613C223.045 350.41 222.07 349.435 220.868 349.435C219.667 349.435 218.692 350.41 218.692 351.613C218.692 352.816 219.667 353.792 220.868 353.792Z" fill="white"/>
<path d="M248.881 263.369V283.358H198.854C197.513 283.405 196.177 283.181 194.925 282.699C193.673 282.218 192.531 281.49 191.566 280.557C190.601 279.624 189.834 278.507 189.31 277.271C188.786 276.035 188.516 274.706 188.516 273.364C188.516 272.021 188.786 270.692 189.31 269.456C189.834 268.221 190.601 267.103 191.566 266.17C192.531 265.238 193.673 264.509 194.925 264.028C196.177 263.547 197.513 263.323 198.854 263.369H248.881Z" fill="#F2F2F2"/>
<path d="M250.11 283.204C250.11 283.408 250.029 283.604 249.885 283.748C249.741 283.892 249.546 283.973 249.342 283.973H197.963C196.58 283.974 195.211 283.703 193.933 283.174C192.656 282.645 191.495 281.869 190.517 280.891C189.539 279.913 188.763 278.752 188.234 277.473C187.705 276.195 187.432 274.825 187.432 273.441C187.432 272.057 187.705 270.686 188.234 269.408C188.763 268.13 189.539 266.968 190.517 265.99C191.495 265.012 192.656 264.236 193.933 263.707C195.211 263.179 196.58 262.907 197.963 262.908H249.342C249.546 262.908 249.741 262.989 249.885 263.133C250.029 263.278 250.11 263.473 250.11 263.677C250.11 263.881 250.029 264.076 249.885 264.221C249.741 264.365 249.546 264.446 249.342 264.446H197.963C195.581 264.448 193.297 265.397 191.614 267.083C189.931 268.77 188.985 271.056 188.985 273.441C188.985 275.825 189.931 278.111 191.614 279.798C193.297 281.485 195.581 282.433 197.963 282.436H249.342C249.546 282.436 249.741 282.517 249.885 282.661C250.029 282.805 250.11 283 250.11 283.204Z" fill="#3F3D56"/>
<path d="M248.881 267.982H195.121C195.101 267.982 195.081 267.979 195.062 267.971C195.043 267.963 195.026 267.952 195.012 267.938C194.997 267.923 194.986 267.906 194.978 267.888C194.97 267.869 194.966 267.849 194.966 267.829C194.966 267.808 194.97 267.788 194.978 267.769C194.986 267.751 194.997 267.734 195.012 267.719C195.026 267.705 195.043 267.694 195.062 267.686C195.081 267.679 195.101 267.675 195.121 267.675H248.881C248.922 267.675 248.961 267.691 248.989 267.72C249.018 267.749 249.034 267.788 249.034 267.829C249.034 267.869 249.018 267.908 248.989 267.937C248.961 267.966 248.922 267.982 248.881 267.982Z" fill="#CCCCCC"/>
<path d="M248.881 271.673H195.121C195.101 271.673 195.081 271.669 195.062 271.661C195.043 271.654 195.026 271.642 195.012 271.628C194.997 271.614 194.986 271.597 194.978 271.578C194.97 271.559 194.966 271.539 194.966 271.519C194.966 271.499 194.97 271.479 194.978 271.46C194.986 271.441 194.997 271.424 195.012 271.41C195.026 271.396 195.043 271.384 195.062 271.377C195.081 271.369 195.101 271.365 195.121 271.365H248.881C248.922 271.366 248.961 271.382 248.989 271.411C249.018 271.439 249.034 271.478 249.034 271.519C249.034 271.56 249.018 271.599 248.989 271.627C248.961 271.656 248.922 271.672 248.881 271.673Z" fill="#CCCCCC"/>
<path d="M248.881 275.362H195.121C195.101 275.362 195.081 275.358 195.062 275.351C195.043 275.343 195.026 275.332 195.012 275.318C194.997 275.303 194.986 275.286 194.978 275.268C194.97 275.249 194.966 275.229 194.966 275.208C194.966 275.188 194.97 275.168 194.978 275.149C194.986 275.131 194.997 275.114 195.012 275.099C195.026 275.085 195.043 275.074 195.062 275.066C195.081 275.058 195.101 275.055 195.121 275.055H248.881C248.922 275.055 248.961 275.071 248.989 275.1C249.018 275.129 249.034 275.168 249.034 275.208C249.034 275.249 249.018 275.288 248.989 275.317C248.961 275.346 248.922 275.362 248.881 275.362Z" fill="#CCCCCC"/>
<path d="M248.881 279.053H195.121C195.101 279.053 195.081 279.049 195.062 279.041C195.043 279.034 195.026 279.022 195.012 279.008C194.997 278.994 194.986 278.977 194.978 278.958C194.97 278.939 194.966 278.919 194.966 278.899C194.966 278.879 194.97 278.859 194.978 278.84C194.986 278.821 194.997 278.804 195.012 278.79C195.026 278.776 195.043 278.764 195.062 278.757C195.081 278.749 195.101 278.745 195.121 278.745H248.881C248.922 278.745 248.961 278.762 248.989 278.791C249.018 278.819 249.034 278.858 249.034 278.899C249.034 278.939 249.018 278.978 248.989 279.007C248.961 279.036 248.922 279.052 248.881 279.053Z" fill="#CCCCCC"/>
<path d="M181.438 132.906V5.46191C181.44 4.01383 182.016 2.62553 183.038 1.60158C184.061 0.577632 185.448 0.00164715 186.895 0H287.533C288.98 0.00165674 290.367 0.577645 291.389 1.60159C292.412 2.62554 292.988 4.01383 292.989 5.46191V132.906C292.988 134.354 292.412 135.743 291.389 136.767C290.367 137.791 288.98 138.367 287.533 138.368H186.895C185.448 138.367 184.061 137.791 183.038 136.767C182.016 135.743 181.44 134.354 181.438 132.906ZM186.895 1.21376C185.77 1.21502 184.691 1.663 183.895 2.45941C183.1 3.25582 182.652 4.33562 182.651 5.46191V132.906C182.652 134.033 183.1 135.112 183.895 135.909C184.691 136.705 185.77 137.153 186.895 137.154H287.533C288.658 137.153 289.737 136.705 290.533 135.909C291.328 135.112 291.776 134.033 291.777 132.906V5.46191C291.776 4.33562 291.328 3.25582 290.533 2.45941C289.737 1.663 288.658 1.21502 287.533 1.21376H186.895Z" fill="#E6E6E6"/>
<path d="M242.857 58.5282V32.3599C242.858 31.6358 243.146 30.9417 243.657 30.4297C244.169 29.9177 244.862 29.6297 245.586 29.6289H267.738C268.461 29.6297 269.155 29.9177 269.666 30.4297C270.178 30.9417 270.465 31.6358 270.466 32.3599V58.5282C270.465 59.2523 270.178 59.9464 269.666 60.4584C269.155 60.9704 268.461 61.2584 267.738 61.2592H245.586C244.862 61.2584 244.169 60.9704 243.657 60.4584C243.146 59.9464 242.858 59.2523 242.857 58.5282Z" fill="#CE992F"/>
<path d="M199.813 70.6659V44.4976C199.814 43.7735 200.102 43.0793 200.613 42.5674C201.125 42.0554 201.818 41.7674 202.541 41.7666H224.694C225.417 41.7674 226.111 42.0554 226.622 42.5674C227.134 43.0793 227.421 43.7735 227.422 44.4976V70.6659C227.421 71.39 227.134 72.0841 226.622 72.5961C226.111 73.1081 225.417 73.3961 224.694 73.3969H202.541C201.818 73.3961 201.125 73.1081 200.613 72.5961C200.102 72.0841 199.814 71.3899 199.813 70.6659Z" fill="#CCCCCC"/>
<path d="M234.37 107.685V81.5171C234.371 80.793 234.658 80.0989 235.17 79.5869C235.681 79.0749 236.375 78.7869 237.098 78.7861H259.251C259.974 78.7869 260.667 79.0749 261.179 79.5869C261.69 80.0989 261.978 80.793 261.979 81.5171V107.685C261.978 108.409 261.69 109.104 261.179 109.616C260.667 110.128 259.974 110.416 259.251 110.416H237.098C236.375 110.416 235.681 110.128 235.17 109.616C234.658 109.104 234.371 108.409 234.37 107.685Z" fill="#FF6584"/>
<path d="M366.752 227.325H343.959C343.743 227.325 343.529 227.375 343.335 227.47L337.583 230.353C337.393 230.434 337.232 230.568 337.118 230.74C337.005 230.912 336.944 231.113 336.944 231.319C336.944 231.525 337.005 231.727 337.118 231.898C337.232 232.07 337.393 232.205 337.583 232.285L343.335 235.168C343.529 235.264 343.743 235.313 343.959 235.313H366.752C367.066 235.331 367.375 235.225 367.611 235.017C367.848 234.809 367.992 234.516 368.015 234.202V228.436C367.992 228.122 367.848 227.829 367.611 227.621C367.375 227.413 367.066 227.307 366.752 227.325Z" fill="#3F3D56"/>
<path d="M368.015 228.436V234.202C367.992 234.516 367.848 234.809 367.611 235.017C367.375 235.225 367.066 235.331 366.752 235.313H362.211V227.325H366.752C367.066 227.307 367.375 227.413 367.611 227.621C367.848 227.829 367.992 228.122 368.015 228.436Z" fill="#CE992F"/>
<path d="M366.581 184.19C367.613 183.744 368.728 183.521 369.853 183.537C370.977 183.552 372.085 183.805 373.105 184.279C374.125 184.753 375.033 185.438 375.77 186.288C376.508 187.138 377.057 188.134 377.383 189.211C377.484 189.553 377.562 189.901 377.615 190.253L409.489 206.075L416.866 201.182L426.044 211.759L414.781 220.916C413.426 222.009 411.756 222.635 410.018 222.702C408.28 222.769 406.566 222.274 405.132 221.289L372.792 198.902C372.552 199.004 372.306 199.094 372.056 199.171C370.98 199.497 369.847 199.591 368.731 199.448C367.616 199.305 366.543 198.928 365.584 198.341C364.624 197.754 363.799 196.97 363.163 196.042C362.527 195.114 362.094 194.061 361.892 192.954C361.833 192.633 361.793 192.308 361.775 191.981C361.685 190.347 362.097 188.724 362.957 187.331C363.816 185.938 365.081 184.842 366.581 184.19Z" fill="#FFB8B8"/>
<path d="M432.969 281.606H398.141C398.141 282.609 362.246 283.422 362.246 283.422C361.683 283.847 361.169 284.334 360.716 284.874C359.352 286.502 358.607 288.56 358.612 290.684V292.136C358.612 294.543 359.568 296.852 361.268 298.554C362.969 300.256 365.275 301.212 367.68 301.213H432.969C435.373 301.211 437.678 300.254 439.378 298.552C441.078 296.85 442.034 294.543 442.036 292.136V290.684C442.033 288.277 441.077 285.97 439.377 284.269C437.677 282.567 435.372 281.61 432.969 281.606Z" fill="#3F3D56"/>
<path d="M395.084 361.852H404.514V300.853H395.084V361.852Z" fill="#3F3D56"/>
<path d="M368.243 361.52C368.243 362.54 382.533 361.914 400.162 361.914C417.79 361.914 432.081 362.54 432.081 361.52C432.081 360.5 417.79 352.411 400.162 352.411C382.533 352.411 368.243 360.5 368.243 361.52Z" fill="#3F3D56"/>
<path d="M376.756 354.37L367.863 354.37L363.632 331.279L376.758 331.28L376.756 354.37Z" fill="#FFB8B8"/>
<path d="M379.024 363L350.348 362.999V362.636C350.348 361.169 350.636 359.716 351.197 358.36C351.758 357.005 352.58 355.773 353.617 354.735C354.653 353.698 355.884 352.875 357.238 352.313C358.592 351.752 360.044 351.463 361.51 351.463H361.51L379.025 351.464L379.024 363Z" fill="#2F2E41"/>
<path d="M363.454 340.052L345.724 300.252C344.244 296.897 344.08 293.108 345.266 289.638C346.451 286.168 348.899 283.272 352.121 281.528L390.579 260.884L408.128 259.39L424.316 257.917L424.433 258.115C424.582 258.367 428.062 264.385 425.71 270.984C423.925 275.989 419.283 279.899 411.913 282.604C394.71 288.919 374.837 294.315 367.091 296.342C366.749 296.43 366.429 296.589 366.152 296.809C365.876 297.029 365.649 297.306 365.487 297.62C365.324 297.931 365.228 298.272 365.203 298.621C365.179 298.971 365.227 299.322 365.344 299.652L381.817 336.698C381.989 337.168 382.051 337.671 381.998 338.169C381.945 338.666 381.778 339.145 381.511 339.568C381.244 339.991 380.884 340.347 380.458 340.609C380.031 340.87 379.551 341.03 379.053 341.077L366.745 341.974C366.641 341.984 366.537 341.989 366.433 341.989C365.803 341.988 365.186 341.805 364.657 341.462C364.129 341.118 363.711 340.628 363.454 340.052Z" fill="#2F2E41"/>
<path d="M381.109 354.37L372.216 354.37L367.984 331.279L381.11 331.28L381.109 354.37Z" fill="#FFB8B8"/>
<path d="M383.377 363L354.7 362.999V362.636C354.7 361.169 354.989 359.716 355.55 358.36C356.111 357.005 356.933 355.773 357.969 354.735C359.006 353.698 360.236 352.875 361.591 352.313C362.945 351.752 364.396 351.463 365.862 351.463H365.863L383.378 351.464L383.377 363Z" fill="#2F2E41"/>
<path d="M368.532 342.23L350.802 302.429C349.322 299.075 349.158 295.285 350.344 291.815C351.529 288.345 353.977 285.45 357.199 283.705L395.657 263.062L413.206 261.568L429.394 260.095L429.511 260.293C429.66 260.545 433.141 266.563 430.788 273.162C429.003 278.167 424.361 282.077 416.991 284.782C399.788 291.096 379.915 296.493 372.169 298.52C371.827 298.607 371.507 298.767 371.23 298.987C370.954 299.207 370.727 299.483 370.565 299.798C370.402 300.108 370.306 300.449 370.281 300.799C370.257 301.149 370.305 301.5 370.423 301.83L386.895 338.876C387.067 339.346 387.129 339.849 387.076 340.347C387.023 340.844 386.856 341.323 386.589 341.746C386.322 342.169 385.962 342.525 385.536 342.787C385.11 343.048 384.629 343.208 384.131 343.254L371.823 344.151C371.719 344.161 371.615 344.166 371.511 344.166C370.881 344.166 370.264 343.983 369.735 343.639C369.207 343.296 368.789 342.806 368.532 342.23Z" fill="#2F2E41"/>
<path d="M359.695 220.645C352.244 210.724 346.355 199.721 342.23 188.016C341.991 187.316 342.008 186.554 342.278 185.865C342.548 185.177 343.053 184.606 343.704 184.255L369.199 170.58C369.612 170.357 370.07 170.232 370.538 170.212C371.006 170.193 371.473 170.282 371.902 170.47C372.339 170.661 372.727 170.948 373.037 171.311C373.346 171.674 373.569 172.103 373.687 172.565C376.655 183.843 382.233 194.264 389.97 202.985C390.289 203.34 390.522 203.763 390.653 204.222C390.783 204.681 390.807 205.163 390.723 205.633C390.643 206.095 390.458 206.533 390.182 206.913C389.907 207.292 389.549 207.604 389.135 207.825L363.64 221.5C362.987 221.848 362.233 221.953 361.511 221.796C360.788 221.64 360.145 221.232 359.695 220.645Z" fill="#CCCCCC"/>
<path d="M361.435 219.337C361.572 219.508 361.764 219.626 361.979 219.67C362.194 219.715 362.418 219.683 362.611 219.58L388.107 205.904C388.231 205.84 388.338 205.747 388.42 205.634C388.502 205.521 388.557 205.391 388.581 205.253C388.607 205.108 388.6 204.958 388.559 204.816C388.518 204.674 388.445 204.543 388.345 204.434C380.379 195.457 374.637 184.729 371.582 173.118C371.547 172.974 371.479 172.841 371.383 172.728C371.288 172.615 371.168 172.526 371.032 172.468C370.905 172.41 370.765 172.384 370.626 172.389C370.486 172.395 370.349 172.433 370.227 172.501L344.732 186.176C344.539 186.28 344.388 186.449 344.306 186.653C344.224 186.857 344.215 187.083 344.282 187.292C348.333 198.787 354.118 209.594 361.435 219.337Z" fill="white"/>
<path d="M444.395 216.998L424.428 224.593L419.553 211.038C418.906 209.238 418.915 207.267 419.579 205.473C420.243 203.679 421.519 202.178 423.182 201.235C424.863 200.281 426.831 199.96 428.728 200.331C430.626 200.702 432.328 201.74 433.528 203.257L444.395 216.998Z" fill="#CE992F"/>
<path d="M393.608 270.706C393.187 270.409 392.835 270.025 392.575 269.58C392.314 269.136 392.151 268.641 392.096 268.129C389.539 244.231 391.32 225.528 397.541 210.953C398.637 208.439 400.288 206.207 402.369 204.423C404.451 202.64 406.909 201.352 409.559 200.656L425.7 199.841L425.784 199.881C429.426 201.667 432.396 204.58 434.254 208.189C436.112 211.798 436.759 215.91 436.099 219.915C430.907 233.613 426.56 247.875 429.876 259.38C430.015 259.861 430.055 260.366 429.995 260.863C429.934 261.36 429.775 261.839 429.525 262.273C429.282 262.692 428.956 263.057 428.568 263.346C428.179 263.634 427.735 263.84 427.264 263.95L396.521 271.271C396.024 271.389 395.506 271.4 395.004 271.303C394.501 271.205 394.025 271.002 393.608 270.706Z" fill="#CE992F"/>
<path d="M420.313 193.806C430.154 193.806 438.131 185.821 438.131 175.97C438.131 166.12 430.154 158.135 420.313 158.135C410.473 158.135 402.496 166.12 402.496 175.97C402.496 185.821 410.473 193.806 420.313 193.806Z" fill="#FFB8B8"/>
<path d="M370.873 190.096L356.987 196.232C356.459 196.465 355.86 196.478 355.322 196.269C354.784 196.061 354.351 195.647 354.117 195.119L353.774 194.34C353.541 193.811 353.528 193.212 353.737 192.673C353.945 192.135 354.358 191.701 354.886 191.467L368.772 185.331C369.3 185.099 369.899 185.085 370.437 185.294C370.975 185.503 371.408 185.916 371.642 186.444L371.985 187.223C372.218 187.752 372.231 188.351 372.023 188.89C371.814 189.428 371.401 189.862 370.873 190.096Z" fill="#CCCCCC"/>
<path d="M375.951 199.537L362.065 205.672C361.537 205.905 360.938 205.919 360.4 205.71C359.862 205.501 359.429 205.087 359.195 204.559L358.852 203.78C358.619 203.252 358.606 202.652 358.814 202.114C359.023 201.575 359.436 201.141 359.964 200.908L373.85 194.772C374.378 194.539 374.977 194.526 375.515 194.734C376.053 194.943 376.486 195.357 376.72 195.885L377.063 196.664C377.296 197.192 377.309 197.792 377.101 198.33C376.892 198.869 376.479 199.303 375.951 199.537Z" fill="#CCCCCC"/>
<path d="M386.66 236.41L355.702 211.963C355.456 212.05 355.205 212.124 354.951 212.185C353.858 212.44 352.724 212.463 351.622 212.252C350.52 212.04 349.474 211.599 348.554 210.956C347.627 210.314 346.849 209.48 346.27 208.511C345.691 207.543 345.325 206.462 345.198 205.341C344.99 203.548 345.394 201.738 346.343 200.204C347.292 198.67 348.732 197.502 350.427 196.889C351.486 196.509 352.612 196.357 353.734 196.443C354.855 196.53 355.945 196.852 356.933 197.389C357.921 197.927 358.785 198.667 359.467 199.561C360.149 200.456 360.635 201.485 360.893 202.581C360.972 202.928 361.028 203.28 361.059 203.635L391.876 221.432L399.545 217.012L408.041 228.146L396.134 236.641C394.74 237.628 393.065 238.138 391.358 238.096C389.652 238.055 388.004 237.463 386.66 236.41Z" fill="#FFB8B8"/>
<path d="M411.818 231.613L394.155 219.589L402.456 207.82C403.558 206.257 405.177 205.135 407.026 204.651C408.875 204.168 410.835 204.354 412.56 205.177C414.306 206.009 415.696 207.439 416.48 209.208C417.264 210.977 417.39 212.968 416.836 214.822L411.818 231.613Z" fill="#CE992F"/>
<path d="M413.781 173.314C409.202 176.451 403.189 179.676 398.511 176.335C395.44 174.141 394.473 170.079 395.718 166.514C397.958 160.102 404.111 157.28 409.995 155.117C417.644 152.304 425.973 150.067 433.87 152.081C441.766 154.095 448.745 161.748 447.32 169.78C446.173 176.239 440.087 181.613 440.951 188.116C441.821 194.66 449.173 198.105 455.664 199.274C462.155 200.444 469.419 200.82 474.083 205.487C480.034 211.441 478.548 222.083 472.949 228.369C467.349 234.655 458.899 237.504 450.711 239.441C439.863 242.008 428.129 243.356 417.826 239.097C407.523 234.838 399.505 223.372 402.489 212.621C403.75 208.079 406.72 204.241 409.59 200.505C412.461 196.768 415.367 192.861 416.462 188.277C417.374 184.456 416.699 180.021 414.168 177.155C413.708 176.654 413.418 176.019 413.341 175.342C413.263 174.666 413.402 173.982 413.737 173.389L413.781 173.314Z" fill="#2F2E41"/>
<path d="M79.1246 259.971C74.5334 261.587 69.6039 261.991 64.8112 261.146C60.0184 260.301 55.5238 258.235 51.7604 255.146C42.176 247.093 39.171 233.826 36.7259 221.542C34.3152 209.43 31.9046 197.319 29.4939 185.207L44.6349 195.643C55.5234 203.148 66.6572 210.894 74.1963 221.765C81.7355 232.636 85.0263 247.475 78.9689 259.238" fill="#E6E6E6"/>
<path d="M77.8304 303.962C79.3629 292.788 80.9387 281.47 79.8637 270.176C78.9091 260.146 75.8522 250.35 69.6287 242.317C66.3253 238.062 62.3057 234.415 57.7506 231.542C56.5628 230.792 55.4695 232.676 56.6522 233.424C64.5338 238.41 70.63 245.773 74.0617 254.451C77.852 264.102 78.4607 274.622 77.8076 284.873C77.4126 291.073 76.5754 297.232 75.7318 303.383C75.6653 303.661 75.7068 303.954 75.8479 304.203C75.989 304.451 76.2192 304.637 76.4919 304.723C76.7701 304.798 77.0667 304.76 77.3172 304.617C77.5678 304.475 77.7522 304.239 77.8304 303.962H77.8304Z" fill="#F2F2F2"/>
<path d="M63.0699 284.189C61.1008 287.185 58.3942 289.623 55.2108 291.267C52.0274 292.912 48.4745 293.708 44.8944 293.579C35.6936 293.142 28.0231 286.714 21.1182 280.611L0.694824 262.561L14.2117 261.913C23.9322 261.447 33.9035 261.013 43.162 264.014C52.4205 267.014 60.9591 274.236 62.6521 283.829" fill="#E6E6E6"/>
<path d="M82.1612 310.385C74.7852 297.32 66.2296 282.8 50.9424 278.159C46.6917 276.873 42.2347 276.413 37.8112 276.802C36.4171 276.922 36.7652 279.074 38.1568 278.954C45.5715 278.337 52.9719 280.297 59.112 284.503C65.0206 288.529 69.6211 294.126 73.5149 300.062C75.9 303.697 78.0364 307.487 80.1732 311.272C80.8561 312.482 82.852 311.609 82.1612 310.385Z" fill="#F2F2F2"/>
<path d="M93.9797 324.137C93.7311 321.254 92.6972 318.495 90.9905 316.16C89.2838 313.825 86.9698 312.003 84.3004 310.894V303.341H71.6453V311.132C69.1073 312.296 66.9231 314.113 65.3153 316.398C63.7075 318.682 62.7337 321.353 62.4931 324.137L59.5173 358.764H96.9554L93.9797 324.137Z" fill="#F2F2F2"/>
</g>
<defs>
<clipPath id="clip0_259_1445">
<rect width="502" height="363" fill="white"/>
</clipPath>
</defs>
</svg>
