<svg width="502" height="363" viewBox="0 0 502 363" fill="none" xmlns="http://www.w3.org/2000/svg">
<g clip-path="url(#clip0_259_1543)">
<path d="M501.275 360.216H0.725434C0.533037 360.216 0.348519 360.14 0.212474 360.003C0.0764288 359.867 0 359.682 0 359.49C0 359.297 0.0764288 359.113 0.212474 358.976C0.348519 358.84 0.533037 358.764 0.725434 358.764H501.275C501.467 358.764 501.651 358.84 501.788 358.976C501.924 359.113 502 359.297 502 359.49C502 359.682 501.924 359.867 501.788 360.003C501.651 360.14 501.467 360.216 501.275 360.216Z" fill="#CCCCCC"/>
<path d="M451.732 233.569H157.206C155.955 233.569 154.756 234.067 153.871 234.952C152.987 235.837 152.49 237.038 152.49 238.289C152.49 239.541 152.987 240.742 153.871 241.627C154.756 242.512 155.955 243.01 157.206 243.01H165.548V355.93C165.548 357.182 166.045 358.383 166.929 359.268C167.813 360.153 169.013 360.651 170.263 360.651C171.514 360.651 172.713 360.153 173.598 359.268C174.482 358.383 174.979 357.182 174.979 355.93L175.05 243.01H433.233V355.93C433.233 357.182 433.73 358.383 434.614 359.268C435.498 360.153 436.698 360.651 437.948 360.651C439.199 360.651 440.398 360.153 441.283 359.268C442.167 358.383 442.664 357.182 442.664 355.93V245.499L444.035 243.01H451.732C452.982 243.01 454.181 242.512 455.066 241.627C455.95 240.742 456.447 239.541 456.447 238.289C456.447 237.038 455.95 235.837 455.066 234.952C454.181 234.067 452.982 233.569 451.732 233.569Z" fill="#CCCCCC"/>
<path d="M320.493 236.04H231.277C229.55 236.038 227.894 235.35 226.672 234.127C225.451 232.905 224.764 231.247 224.762 229.518V180.349C224.764 178.619 225.451 176.961 226.672 175.739C227.894 174.516 229.55 173.828 231.277 173.826H320.493C322.22 173.828 323.876 174.516 325.098 175.739C326.319 176.961 327.006 178.619 327.008 180.349V229.518C327.006 231.247 326.319 232.905 325.098 234.127C323.876 235.35 322.22 236.038 320.493 236.04Z" fill="#3F3D56"/>
<path d="M320.491 178.846H231.277C230.879 178.847 230.497 179.005 230.216 179.287C229.935 179.569 229.776 179.95 229.775 180.349V229.518C229.776 229.917 229.935 230.299 230.216 230.58C230.497 230.862 230.879 231.021 231.277 231.022H320.491C320.889 231.021 321.27 230.862 321.552 230.58C321.833 230.299 321.992 229.917 321.993 229.518V180.349C321.992 179.95 321.833 179.569 321.552 179.287C321.27 179.005 320.889 178.847 320.491 178.846Z" fill="white"/>
<path d="M283.493 213.657C283.493 213.657 272.813 211.193 266.939 215.71C261.065 220.226 274.415 230.491 274.415 230.491L283.493 213.657Z" fill="#2F2E41"/>
<path d="M276.408 209.003C281.972 209.003 286.482 204.488 286.482 198.918C286.482 193.349 281.972 188.834 276.408 188.834C270.844 188.834 266.334 193.349 266.334 198.918C266.334 204.488 270.844 209.003 276.408 209.003Z" fill="#A0616A"/>
<path d="M268.618 184.762C269.289 183.62 270.263 182.687 271.432 182.065C272.6 181.442 273.917 181.155 275.238 181.236C276.62 181.409 277.968 181.787 279.239 182.357L285.825 184.928C287.529 185.594 289.396 186.409 290.135 188.084C290.821 189.638 290.309 191.433 289.791 193.052L287.327 200.744C287.054 199.003 286.586 197.299 285.931 195.663C285.265 194.016 284.062 192.643 282.518 191.767C280.807 190.889 278.791 190.907 276.871 191C274.151 191.131 271.194 191.477 269.261 193.397C268.236 194.488 267.54 195.848 267.256 197.318C266.976 198.781 266.835 200.267 266.835 201.756C265.72 199.837 264.781 197.821 264.028 195.732C263.41 194.177 263.057 192.529 262.986 190.856C262.921 189.169 263.48 187.518 264.556 186.218C265.102 185.583 265.814 185.113 266.613 184.862C267.412 184.61 268.264 184.587 269.076 184.794L268.618 184.762Z" fill="#2F2E41"/>
<path d="M300.462 222.402C300.368 222.061 300.175 221.756 299.908 221.525C299.64 221.294 299.311 221.147 298.961 221.102C298.938 221.086 298.913 221.071 298.888 221.058L283.849 212.622C283.419 212.381 282.914 212.315 282.437 212.438C281.96 212.56 281.549 212.863 281.289 213.281L277.176 219.947L270.981 213.746L270.882 213.647C270.565 213.329 270.145 213.133 269.697 213.094C269.249 213.055 268.801 213.175 268.433 213.433L256.073 222.097C256.051 222.097 256.03 222.104 256.008 222.104C255.416 222.203 254.876 222.501 254.476 222.948C254.077 223.396 253.842 223.966 253.81 224.566L253.49 231.022H302.849L300.462 222.402Z" fill="#CE992F"/>
<path d="M328.01 230.019H318.487C318.487 229.753 318.381 229.498 318.193 229.31C318.005 229.121 317.75 229.016 317.484 229.016H314.477C314.211 229.016 313.956 229.121 313.768 229.31C313.58 229.498 313.475 229.753 313.475 230.019H310.468C310.468 229.753 310.362 229.498 310.174 229.31C309.986 229.121 309.731 229.016 309.465 229.016H306.458C306.192 229.016 305.937 229.121 305.749 229.31C305.561 229.498 305.455 229.753 305.455 230.019H302.448C302.448 229.753 302.343 229.498 302.155 229.31C301.967 229.121 301.712 229.016 301.446 229.016H298.439C298.173 229.016 297.918 229.121 297.73 229.31C297.542 229.498 297.436 229.753 297.436 230.019H294.429C294.429 229.753 294.323 229.498 294.135 229.31C293.947 229.121 293.692 229.016 293.426 229.016H290.419C290.153 229.016 289.898 229.121 289.71 229.31C289.522 229.498 289.417 229.753 289.417 230.019H286.41C286.41 229.753 286.304 229.498 286.116 229.31C285.928 229.121 285.673 229.016 285.407 229.016H282.4C282.134 229.016 281.879 229.121 281.691 229.31C281.503 229.498 281.397 229.753 281.397 230.019H278.39C278.39 229.753 278.285 229.498 278.097 229.31C277.909 229.121 277.654 229.016 277.388 229.016H274.381C274.115 229.016 273.86 229.121 273.672 229.31C273.484 229.498 273.378 229.753 273.378 230.019H270.371C270.371 229.753 270.265 229.498 270.077 229.31C269.889 229.121 269.634 229.016 269.368 229.016H266.361C266.095 229.016 265.84 229.121 265.652 229.31C265.464 229.498 265.359 229.753 265.359 230.019H262.352C262.352 229.753 262.246 229.498 262.058 229.31C261.87 229.121 261.615 229.016 261.349 229.016H258.342C258.076 229.016 257.821 229.121 257.633 229.31C257.445 229.498 257.339 229.753 257.339 230.019H254.332C254.332 229.753 254.227 229.498 254.039 229.31C253.851 229.121 253.596 229.016 253.33 229.016H250.323C250.057 229.016 249.802 229.121 249.614 229.31C249.426 229.498 249.32 229.753 249.32 230.019H246.313C246.313 229.753 246.207 229.498 246.019 229.31C245.831 229.121 245.576 229.016 245.31 229.016H242.303C242.037 229.016 241.782 229.121 241.594 229.31C241.406 229.498 241.301 229.753 241.301 230.019H238.294C238.294 229.753 238.188 229.498 238 229.31C237.812 229.121 237.557 229.016 237.291 229.016H234.284C234.018 229.016 233.763 229.121 233.575 229.31C233.387 229.498 233.281 229.753 233.281 230.019H223.758C222.962 230.02 222.198 230.338 221.635 230.902C221.072 231.467 220.756 232.232 220.756 233.029C220.756 233.827 221.072 234.592 221.635 235.156C222.198 235.721 222.962 236.039 223.758 236.04H328.01C328.807 236.04 329.572 235.723 330.136 235.158C330.7 234.594 331.017 233.828 331.017 233.029C331.017 232.231 330.7 231.465 330.136 230.901C329.572 230.336 328.807 230.019 328.01 230.019Z" fill="#3F3D56"/>
<path d="M208.258 212.537V232.526H158.23C156.89 232.573 155.554 232.349 154.302 231.867C153.05 231.386 151.907 230.658 150.943 229.725C149.978 228.792 149.211 227.675 148.687 226.439C148.163 225.203 147.893 223.874 147.893 222.532C147.893 221.189 148.163 219.86 148.687 218.624C149.211 217.389 149.978 216.271 150.943 215.338C151.907 214.406 153.05 213.677 154.302 213.196C155.554 212.715 156.89 212.491 158.23 212.537H208.258Z" fill="#F2F2F2"/>
<path d="M209.485 232.371C209.485 232.575 209.404 232.771 209.26 232.915C209.116 233.059 208.921 233.14 208.717 233.14H157.338C154.548 233.14 151.871 232.03 149.898 230.055C147.925 228.08 146.816 225.401 146.816 222.608C146.816 219.814 147.925 217.135 149.898 215.16C151.871 213.185 154.548 212.075 157.338 212.075H208.717C208.921 212.075 209.116 212.156 209.26 212.3C209.405 212.445 209.485 212.64 209.485 212.844C209.485 213.048 209.405 213.243 209.26 213.388C209.116 213.532 208.921 213.613 208.717 213.613H157.338C154.956 213.615 152.673 214.564 150.989 216.25C149.306 217.937 148.36 220.223 148.36 222.608C148.36 224.992 149.306 227.278 150.989 228.965C152.673 230.652 154.956 231.6 157.338 231.603H208.717C208.921 231.603 209.116 231.684 209.26 231.828C209.404 231.972 209.485 232.167 209.485 232.371Z" fill="#CE992F"/>
<path d="M208.257 217.149H154.496C154.476 217.149 154.456 217.146 154.437 217.138C154.419 217.13 154.402 217.119 154.387 217.105C154.373 217.09 154.361 217.073 154.354 217.055C154.346 217.036 154.342 217.016 154.342 216.996C154.342 216.975 154.346 216.955 154.354 216.936C154.361 216.918 154.373 216.901 154.387 216.886C154.402 216.872 154.419 216.861 154.437 216.853C154.456 216.846 154.476 216.842 154.496 216.842H208.257C208.297 216.842 208.336 216.858 208.365 216.887C208.393 216.916 208.409 216.955 208.409 216.996C208.409 217.036 208.393 217.075 208.365 217.104C208.336 217.133 208.297 217.149 208.257 217.149Z" fill="#CCCCCC"/>
<path d="M208.257 220.84H154.496C154.476 220.84 154.456 220.836 154.437 220.828C154.419 220.821 154.402 220.809 154.387 220.795C154.373 220.781 154.361 220.764 154.354 220.745C154.346 220.726 154.342 220.706 154.342 220.686C154.342 220.666 154.346 220.646 154.354 220.627C154.361 220.608 154.373 220.591 154.387 220.577C154.402 220.563 154.419 220.551 154.437 220.544C154.456 220.536 154.476 220.532 154.496 220.532H208.257C208.297 220.533 208.336 220.549 208.365 220.578C208.393 220.606 208.409 220.645 208.409 220.686C208.409 220.727 208.393 220.766 208.365 220.794C208.336 220.823 208.297 220.839 208.257 220.84Z" fill="#CCCCCC"/>
<path d="M208.257 224.53H154.496C154.476 224.53 154.456 224.526 154.437 224.519C154.419 224.511 154.402 224.5 154.387 224.485C154.373 224.471 154.361 224.454 154.354 224.435C154.346 224.417 154.342 224.396 154.342 224.376C154.342 224.356 154.346 224.336 154.354 224.317C154.361 224.298 154.373 224.281 154.387 224.267C154.402 224.253 154.419 224.241 154.437 224.234C154.456 224.226 154.476 224.222 154.496 224.222H208.257C208.297 224.223 208.336 224.239 208.365 224.268C208.393 224.297 208.409 224.336 208.409 224.376C208.409 224.417 208.393 224.456 208.365 224.485C208.336 224.513 208.297 224.53 208.257 224.53Z" fill="#CCCCCC"/>
<path d="M208.257 228.221H154.496C154.476 228.221 154.456 228.217 154.437 228.209C154.419 228.202 154.402 228.19 154.387 228.176C154.373 228.162 154.361 228.145 154.354 228.126C154.346 228.107 154.342 228.087 154.342 228.067C154.342 228.047 154.346 228.026 154.354 228.008C154.361 227.989 154.373 227.972 154.387 227.958C154.402 227.943 154.419 227.932 154.437 227.924C154.456 227.917 154.476 227.913 154.496 227.913H208.257C208.297 227.913 208.336 227.93 208.365 227.959C208.393 227.987 208.409 228.026 208.409 228.067C208.409 228.107 208.393 228.146 208.365 228.175C208.336 228.204 208.297 228.22 208.257 228.221Z" fill="#CCCCCC"/>
<path d="M198.826 191.478V211.466H148.799C147.458 211.513 146.122 211.289 144.87 210.808C143.618 210.327 142.476 209.598 141.511 208.665C140.546 207.733 139.779 206.615 139.255 205.379C138.731 204.143 138.461 202.815 138.461 201.472C138.461 200.13 138.731 198.801 139.255 197.565C139.779 196.329 140.546 195.211 141.511 194.279C142.476 193.346 143.618 192.617 144.87 192.136C146.122 191.655 147.458 191.431 148.799 191.478H198.826Z" fill="#F2F2F2"/>
<path d="M200.056 211.313C200.056 211.517 199.975 211.712 199.831 211.856C199.687 212 199.491 212.081 199.288 212.082H147.908C146.527 212.082 145.158 211.809 143.882 211.28C142.605 210.75 141.445 209.975 140.468 208.997C139.491 208.019 138.716 206.858 138.188 205.58C137.659 204.302 137.387 202.932 137.387 201.549C137.387 200.166 137.659 198.796 138.188 197.518C138.716 196.241 139.491 195.08 140.468 194.101C141.445 193.123 142.605 192.348 143.882 191.818C145.158 191.289 146.527 191.017 147.908 191.017H199.288C199.491 191.017 199.687 191.098 199.831 191.242C199.975 191.386 200.056 191.582 200.056 191.785C200.056 191.989 199.975 192.185 199.831 192.329C199.687 192.473 199.491 192.554 199.288 192.554H147.908C145.527 192.556 143.243 193.505 141.56 195.192C139.876 196.878 138.931 199.165 138.931 201.549C138.931 203.933 139.876 206.22 141.56 207.907C143.243 209.593 145.527 210.542 147.908 210.544H199.288C199.491 210.544 199.687 210.625 199.831 210.769C199.975 210.913 200.056 211.109 200.056 211.313Z" fill="#3F3D56"/>
<path d="M198.825 196.091H145.065C145.045 196.091 145.024 196.087 145.006 196.079C144.987 196.072 144.97 196.06 144.956 196.046C144.941 196.032 144.93 196.015 144.922 195.996C144.914 195.977 144.91 195.957 144.91 195.937C144.91 195.917 144.914 195.897 144.922 195.878C144.93 195.859 144.941 195.842 144.956 195.828C144.97 195.814 144.987 195.802 145.006 195.795C145.024 195.787 145.045 195.783 145.065 195.783H198.825C198.866 195.783 198.904 195.8 198.933 195.829C198.962 195.857 198.978 195.896 198.978 195.937C198.978 195.978 198.962 196.017 198.933 196.045C198.904 196.074 198.866 196.09 198.825 196.091Z" fill="#CCCCCC"/>
<path d="M198.825 199.78H145.065C145.045 199.78 145.024 199.776 145.006 199.769C144.987 199.761 144.97 199.75 144.956 199.736C144.941 199.721 144.93 199.704 144.922 199.685C144.914 199.667 144.91 199.647 144.91 199.626C144.91 199.606 144.914 199.586 144.922 199.567C144.93 199.549 144.941 199.532 144.956 199.517C144.97 199.503 144.987 199.492 145.006 199.484C145.024 199.476 145.045 199.473 145.065 199.473H198.825C198.866 199.473 198.904 199.489 198.933 199.518C198.962 199.547 198.978 199.586 198.978 199.626C198.978 199.667 198.962 199.706 198.933 199.735C198.904 199.764 198.866 199.78 198.825 199.78Z" fill="#CCCCCC"/>
<path d="M198.827 203.471H145.067C145.047 203.471 145.026 203.467 145.008 203.459C144.989 203.452 144.972 203.44 144.957 203.426C144.943 203.412 144.932 203.395 144.924 203.376C144.916 203.357 144.912 203.337 144.912 203.317C144.912 203.297 144.916 203.276 144.924 203.258C144.932 203.239 144.943 203.222 144.957 203.208C144.972 203.193 144.989 203.182 145.008 203.174C145.026 203.167 145.047 203.163 145.067 203.163H198.827C198.868 203.163 198.906 203.18 198.935 203.208C198.964 203.237 198.98 203.276 198.98 203.317C198.98 203.357 198.964 203.396 198.935 203.425C198.906 203.454 198.868 203.47 198.827 203.471Z" fill="#CCCCCC"/>
<path d="M198.827 207.161H145.067C145.047 207.161 145.026 207.157 145.008 207.15C144.989 207.142 144.972 207.131 144.957 207.116C144.943 207.102 144.932 207.085 144.924 207.066C144.916 207.048 144.912 207.028 144.912 207.007C144.912 206.987 144.916 206.967 144.924 206.948C144.932 206.929 144.943 206.912 144.957 206.898C144.972 206.884 144.989 206.873 145.008 206.865C145.026 206.857 145.047 206.853 145.067 206.854H198.827C198.868 206.854 198.906 206.87 198.935 206.899C198.964 206.928 198.98 206.967 198.98 207.007C198.98 207.048 198.964 207.087 198.935 207.116C198.906 207.144 198.868 207.161 198.827 207.161Z" fill="#CCCCCC"/>
<path d="M257.023 303.574V286.146C257.023 285.376 256.717 284.637 256.173 284.092C255.629 283.547 254.891 283.241 254.121 283.241H188.107C187.337 283.241 186.599 283.547 186.055 284.092C185.511 284.637 185.205 285.376 185.205 286.146V303.574H257.023Z" fill="#CCCCCC"/>
<path d="M257.023 310.109H185.205V332.621H257.023V310.109Z" fill="#CCCCCC"/>
<path d="M185.205 339.157V356.586C185.205 357.356 185.511 358.095 186.055 358.639C186.599 359.184 187.337 359.49 188.107 359.49H254.121C254.891 359.49 255.629 359.184 256.173 358.639C256.717 358.095 257.023 357.356 257.023 356.586V339.157H185.205Z" fill="#CCCCCC"/>
<path d="M220.752 296.312C221.954 296.312 222.929 295.337 222.929 294.134C222.929 292.93 221.954 291.955 220.752 291.955C219.551 291.955 218.576 292.93 218.576 294.134C218.576 295.337 219.551 296.312 220.752 296.312Z" fill="white"/>
<path d="M220.752 325.36C221.954 325.36 222.929 324.385 222.929 323.181C222.929 321.978 221.954 321.003 220.752 321.003C219.551 321.003 218.576 321.978 218.576 323.181C218.576 324.385 219.551 325.36 220.752 325.36Z" fill="white"/>
<path d="M220.868 353.792C222.07 353.792 223.044 352.816 223.044 351.613C223.044 350.41 222.07 349.435 220.868 349.435C219.666 349.435 218.691 350.41 218.691 351.613C218.691 352.816 219.666 353.792 220.868 353.792Z" fill="white"/>
<path d="M248.881 263.369V283.358H198.853C197.513 283.405 196.177 283.181 194.925 282.699C193.673 282.218 192.53 281.49 191.566 280.557C190.601 279.624 189.834 278.507 189.31 277.271C188.786 276.035 188.516 274.706 188.516 273.364C188.516 272.021 188.786 270.692 189.31 269.456C189.834 268.221 190.601 267.103 191.566 266.17C192.53 265.238 193.673 264.509 194.925 264.028C196.177 263.547 197.513 263.323 198.853 263.369H248.881Z" fill="#F2F2F2"/>
<path d="M250.109 283.204C250.109 283.408 250.028 283.604 249.884 283.748C249.74 283.892 249.545 283.973 249.341 283.973H197.962C196.58 283.974 195.21 283.703 193.933 283.174C192.655 282.645 191.494 281.869 190.516 280.891C189.538 279.913 188.763 278.752 188.233 277.473C187.704 276.195 187.432 274.825 187.432 273.441C187.432 272.057 187.704 270.686 188.233 269.408C188.763 268.13 189.538 266.968 190.516 265.99C191.494 265.012 192.655 264.236 193.933 263.707C195.21 263.179 196.58 262.907 197.962 262.908H249.341C249.545 262.908 249.74 262.989 249.884 263.133C250.028 263.278 250.109 263.473 250.109 263.677C250.109 263.881 250.028 264.076 249.884 264.221C249.74 264.365 249.545 264.446 249.341 264.446H197.962C195.58 264.448 193.297 265.397 191.613 267.083C189.93 268.77 188.984 271.056 188.984 273.441C188.984 275.825 189.93 278.111 191.613 279.798C193.297 281.485 195.58 282.433 197.962 282.436H249.341C249.545 282.436 249.74 282.517 249.884 282.661C250.028 282.805 250.109 283 250.109 283.204Z" fill="#3F3D56"/>
<path d="M248.882 267.982H195.121C195.101 267.982 195.081 267.979 195.062 267.971C195.044 267.963 195.027 267.952 195.012 267.938C194.998 267.923 194.986 267.906 194.979 267.888C194.971 267.869 194.967 267.849 194.967 267.829C194.967 267.808 194.971 267.788 194.979 267.769C194.986 267.751 194.998 267.734 195.012 267.719C195.027 267.705 195.044 267.694 195.062 267.686C195.081 267.679 195.101 267.675 195.121 267.675H248.882C248.922 267.675 248.961 267.691 248.99 267.72C249.018 267.749 249.034 267.788 249.034 267.829C249.034 267.869 249.018 267.908 248.99 267.937C248.961 267.966 248.922 267.982 248.882 267.982Z" fill="#CCCCCC"/>
<path d="M248.882 271.673H195.121C195.101 271.673 195.081 271.669 195.062 271.661C195.044 271.654 195.027 271.642 195.012 271.628C194.998 271.614 194.986 271.597 194.979 271.578C194.971 271.559 194.967 271.539 194.967 271.519C194.967 271.499 194.971 271.479 194.979 271.46C194.986 271.441 194.998 271.424 195.012 271.41C195.027 271.396 195.044 271.384 195.062 271.377C195.081 271.369 195.101 271.365 195.121 271.365H248.882C248.922 271.366 248.961 271.382 248.99 271.411C249.018 271.439 249.034 271.478 249.034 271.519C249.034 271.56 249.018 271.599 248.99 271.627C248.961 271.656 248.922 271.672 248.882 271.673Z" fill="#CCCCCC"/>
<path d="M248.882 275.362H195.121C195.101 275.362 195.081 275.358 195.062 275.351C195.044 275.343 195.027 275.332 195.012 275.318C194.998 275.303 194.986 275.286 194.979 275.268C194.971 275.249 194.967 275.229 194.967 275.208C194.967 275.188 194.971 275.168 194.979 275.149C194.986 275.131 194.998 275.114 195.012 275.099C195.027 275.085 195.044 275.074 195.062 275.066C195.081 275.058 195.101 275.055 195.121 275.055H248.882C248.922 275.055 248.961 275.071 248.99 275.1C249.018 275.129 249.034 275.168 249.034 275.208C249.034 275.249 249.018 275.288 248.99 275.317C248.961 275.346 248.922 275.362 248.882 275.362Z" fill="#CCCCCC"/>
<path d="M248.882 279.053H195.121C195.101 279.053 195.081 279.049 195.062 279.041C195.044 279.034 195.027 279.022 195.012 279.008C194.998 278.994 194.986 278.977 194.979 278.958C194.971 278.939 194.967 278.919 194.967 278.899C194.967 278.879 194.971 278.859 194.979 278.84C194.986 278.821 194.998 278.804 195.012 278.79C195.027 278.776 195.044 278.764 195.062 278.757C195.081 278.749 195.101 278.745 195.121 278.745H248.882C248.922 278.745 248.961 278.762 248.99 278.791C249.018 278.819 249.034 278.858 249.034 278.899C249.034 278.939 249.018 278.978 248.99 279.007C248.961 279.036 248.922 279.052 248.882 279.053Z" fill="#CCCCCC"/>
<path d="M181.438 132.906V5.46191C181.439 4.01383 182.015 2.62553 183.037 1.60158C184.06 0.577632 185.447 0.00164715 186.894 0H287.532C288.979 0.00165674 290.366 0.577645 291.388 1.60159C292.411 2.62554 292.987 4.01383 292.988 5.46191V132.906C292.987 134.354 292.411 135.743 291.388 136.767C290.366 137.791 288.979 138.367 287.532 138.368H186.894C185.447 138.367 184.06 137.791 183.037 136.767C182.015 135.743 181.439 134.354 181.438 132.906ZM186.894 1.21376C185.769 1.21502 184.69 1.663 183.894 2.45941C183.099 3.25582 182.651 4.33562 182.65 5.46191V132.906C182.651 134.033 183.099 135.112 183.894 135.909C184.69 136.705 185.769 137.153 186.894 137.154H287.532C288.657 137.153 289.736 136.705 290.532 135.909C291.327 135.112 291.775 134.033 291.776 132.906V5.46191C291.775 4.33562 291.327 3.25582 290.532 2.45941C289.736 1.663 288.657 1.21502 287.532 1.21376H186.894Z" fill="#E6E6E6"/>
<path d="M242.857 58.5285V32.3601C242.858 31.6361 243.146 30.9419 243.657 30.4299C244.169 29.9179 244.862 29.63 245.586 29.6292H267.738C268.461 29.63 269.155 29.9179 269.666 30.4299C270.178 30.9419 270.465 31.6361 270.466 32.3601V58.5285C270.465 59.2525 270.178 59.9467 269.666 60.4587C269.155 60.9706 268.461 61.2586 267.738 61.2594H245.586C244.862 61.2586 244.169 60.9706 243.657 60.4587C243.146 59.9467 242.858 59.2525 242.857 58.5285Z" fill="#CE992F"/>
<path d="M199.812 70.6659V44.4976C199.813 43.7735 200.101 43.0793 200.612 42.5674C201.124 42.0554 201.817 41.7674 202.541 41.7666H224.693C225.417 41.7674 226.11 42.0554 226.621 42.5674C227.133 43.0793 227.421 43.7735 227.421 44.4976V70.6659C227.421 71.39 227.133 72.0841 226.621 72.5961C226.11 73.1081 225.417 73.3961 224.693 73.3969H202.541C201.817 73.3961 201.124 73.1081 200.612 72.5961C200.101 72.0841 199.813 71.3899 199.812 70.6659Z" fill="#CCCCCC"/>
<path d="M234.369 107.685V81.5171C234.37 80.793 234.658 80.0989 235.169 79.5869C235.681 79.0749 236.374 78.7869 237.097 78.7861H259.25C259.973 78.7869 260.667 79.0749 261.178 79.5869C261.689 80.0989 261.977 80.793 261.978 81.5171V107.685C261.977 108.409 261.689 109.104 261.178 109.616C260.667 110.128 259.973 110.416 259.25 110.416H237.097C236.374 110.416 235.681 110.128 235.169 109.616C234.658 109.104 234.37 108.409 234.369 107.685Z" fill="#FF6584"/>
<path d="M366.753 227.325H343.96C343.744 227.325 343.53 227.375 343.336 227.47L337.584 230.353C337.394 230.434 337.233 230.568 337.119 230.74C337.006 230.912 336.945 231.113 336.945 231.319C336.945 231.525 337.006 231.727 337.119 231.898C337.233 232.07 337.394 232.205 337.584 232.285L343.336 235.168C343.53 235.264 343.744 235.313 343.96 235.313H366.753C367.067 235.331 367.376 235.225 367.612 235.017C367.849 234.809 367.993 234.516 368.016 234.202V228.436C367.993 228.122 367.849 227.829 367.612 227.621C367.376 227.413 367.067 227.307 366.753 227.325Z" fill="#3F3D56"/>
<path d="M368.014 228.436V234.202C367.992 234.516 367.847 234.809 367.611 235.017C367.375 235.225 367.066 235.331 366.752 235.313H362.211V227.325H366.752C367.066 227.307 367.375 227.413 367.611 227.621C367.847 227.829 367.992 228.122 368.014 228.436Z" fill="#CE992F"/>
<path d="M366.58 184.19C367.613 183.744 368.727 183.521 369.852 183.537C370.976 183.552 372.085 183.805 373.104 184.279C374.124 184.753 375.033 185.438 375.77 186.288C376.507 187.138 377.056 188.134 377.382 189.211C377.484 189.553 377.561 189.901 377.614 190.253L409.489 206.075L416.865 201.182L426.043 211.759L414.78 220.916C413.426 222.009 411.755 222.635 410.017 222.702C408.279 222.769 406.565 222.274 405.131 221.289L372.792 198.902C372.551 199.004 372.305 199.094 372.055 199.171C370.979 199.497 369.846 199.591 368.73 199.448C367.615 199.305 366.542 198.928 365.583 198.341C364.623 197.754 363.798 196.97 363.162 196.042C362.526 195.114 362.093 194.061 361.892 192.954C361.832 192.633 361.793 192.308 361.774 191.981C361.684 190.347 362.097 188.724 362.956 187.331C363.815 185.938 365.08 184.842 366.58 184.19Z" fill="#FFB8B8"/>
<path d="M432.968 281.606H398.14C398.14 282.609 362.246 283.422 362.246 283.422C361.683 283.847 361.169 284.334 360.715 284.874C359.352 286.502 358.607 288.56 358.611 290.684V292.136C358.612 294.543 359.568 296.852 361.268 298.554C362.969 300.256 365.275 301.212 367.679 301.213H432.968C435.373 301.211 437.678 300.254 439.378 298.552C441.078 296.85 442.034 294.543 442.036 292.136V290.684C442.033 288.277 441.076 285.97 439.377 284.269C437.677 282.567 435.372 281.61 432.968 281.606Z" fill="#3F3D56"/>
<path d="M395.083 361.852H404.514V300.853H395.083V361.852Z" fill="#3F3D56"/>
<path d="M368.242 361.52C368.242 362.54 382.533 361.914 400.161 361.914C417.79 361.914 432.08 362.54 432.08 361.52C432.08 360.5 417.79 352.411 400.161 352.411C382.533 352.411 368.242 360.5 368.242 361.52Z" fill="#3F3D56"/>
<path d="M376.755 354.37L367.862 354.37L363.631 331.279L376.757 331.28L376.755 354.37Z" fill="#FFB8B8"/>
<path d="M379.024 363L350.348 362.999V362.636C350.348 361.169 350.636 359.716 351.197 358.36C351.758 357.005 352.58 355.773 353.617 354.735C354.653 353.698 355.884 352.875 357.238 352.313C358.592 351.752 360.044 351.463 361.51 351.463H361.51L379.025 351.464L379.024 363Z" fill="#2F2E41"/>
<path d="M363.453 340.052L345.723 300.252C344.243 296.897 344.079 293.108 345.265 289.638C346.45 286.168 348.898 283.272 352.12 281.528L390.578 260.884L408.127 259.39L424.315 257.917L424.432 258.115C424.581 258.367 428.061 264.385 425.709 270.984C423.924 275.989 419.282 279.899 411.912 282.604C394.709 288.919 374.836 294.315 367.09 296.342C366.748 296.43 366.428 296.589 366.151 296.809C365.875 297.029 365.648 297.306 365.486 297.62C365.323 297.931 365.227 298.272 365.202 298.621C365.178 298.971 365.226 299.322 365.344 299.652L381.816 336.698C381.988 337.168 382.05 337.671 381.997 338.169C381.944 338.666 381.777 339.145 381.51 339.568C381.243 339.991 380.883 340.347 380.457 340.609C380.03 340.87 379.55 341.03 379.052 341.077L366.744 341.974C366.64 341.984 366.536 341.989 366.432 341.989C365.802 341.988 365.185 341.805 364.656 341.462C364.128 341.118 363.71 340.628 363.453 340.052Z" fill="#2F2E41"/>
<path d="M381.109 354.37L372.216 354.37L367.984 331.279L381.11 331.28L381.109 354.37Z" fill="#FFB8B8"/>
<path d="M383.376 363L354.699 362.999V362.636C354.699 361.169 354.988 359.716 355.549 358.36C356.11 357.005 356.932 355.773 357.968 354.735C359.005 353.698 360.235 352.875 361.59 352.313C362.944 351.752 364.395 351.463 365.861 351.463H365.862L383.377 351.464L383.376 363Z" fill="#2F2E41"/>
<path d="M368.531 342.23L350.801 302.429C349.321 299.075 349.157 295.285 350.343 291.815C351.528 288.345 353.976 285.45 357.198 283.705L395.656 263.062L413.205 261.568L429.393 260.095L429.51 260.293C429.659 260.545 433.14 266.563 430.787 273.162C429.002 278.167 424.36 282.077 416.99 284.782C399.787 291.096 379.914 296.493 372.168 298.52C371.826 298.607 371.506 298.767 371.229 298.987C370.953 299.207 370.726 299.483 370.564 299.798C370.401 300.108 370.305 300.449 370.28 300.799C370.256 301.149 370.304 301.5 370.422 301.83L386.894 338.876C387.066 339.346 387.128 339.849 387.075 340.347C387.022 340.844 386.855 341.323 386.588 341.746C386.321 342.169 385.961 342.525 385.535 342.787C385.109 343.048 384.628 343.208 384.13 343.254L371.822 344.151C371.718 344.161 371.614 344.166 371.51 344.166C370.88 344.166 370.263 343.983 369.734 343.639C369.206 343.296 368.788 342.806 368.531 342.23Z" fill="#2F2E41"/>
<path d="M359.695 220.645C352.245 210.724 346.355 199.721 342.23 188.016C341.991 187.316 342.008 186.554 342.278 185.865C342.548 185.177 343.053 184.606 343.704 184.255L369.2 170.58C369.612 170.357 370.07 170.232 370.538 170.212C371.007 170.193 371.473 170.282 371.902 170.47C372.339 170.661 372.727 170.948 373.037 171.311C373.346 171.674 373.569 172.103 373.688 172.565C376.655 183.843 382.233 194.264 389.971 202.985C390.289 203.34 390.522 203.763 390.653 204.222C390.784 204.681 390.808 205.163 390.724 205.633C390.643 206.095 390.458 206.533 390.183 206.913C389.908 207.292 389.549 207.604 389.135 207.825L363.64 221.5C362.988 221.848 362.233 221.953 361.511 221.796C360.789 221.64 360.145 221.232 359.695 220.645Z" fill="#CCCCCC"/>
<path d="M361.435 219.337C361.573 219.508 361.765 219.626 361.98 219.67C362.195 219.715 362.418 219.683 362.612 219.58L388.108 205.904C388.232 205.84 388.339 205.747 388.421 205.634C388.503 205.521 388.558 205.391 388.581 205.253C388.608 205.108 388.6 204.958 388.559 204.816C388.519 204.674 388.445 204.543 388.346 204.434C380.38 195.457 374.638 184.729 371.583 173.118C371.548 172.974 371.48 172.841 371.384 172.728C371.289 172.615 371.169 172.526 371.033 172.468C370.905 172.41 370.766 172.384 370.626 172.389C370.487 172.395 370.35 172.433 370.228 172.501L344.732 186.176C344.539 186.28 344.389 186.449 344.307 186.653C344.225 186.857 344.216 187.083 344.283 187.292C348.334 198.787 354.118 209.594 361.435 219.337Z" fill="white"/>
<path d="M444.395 216.998L424.428 224.593L419.553 211.038C418.906 209.238 418.915 207.267 419.579 205.473C420.243 203.679 421.519 202.178 423.182 201.235C424.864 200.281 426.831 199.96 428.728 200.331C430.626 200.702 432.328 201.74 433.528 203.257L444.395 216.998Z" fill="#CE992F"/>
<path d="M393.608 270.706C393.188 270.409 392.836 270.025 392.575 269.58C392.315 269.136 392.152 268.641 392.097 268.129C389.539 244.231 391.321 225.528 397.542 210.953C398.638 208.439 400.288 206.207 402.37 204.423C404.451 202.64 406.91 201.352 409.56 200.656L425.7 199.841L425.784 199.881C429.426 201.667 432.397 204.58 434.255 208.189C436.113 211.798 436.76 215.91 436.099 219.915C430.908 233.613 426.561 247.875 429.876 259.38C430.015 259.861 430.056 260.366 429.995 260.863C429.935 261.36 429.775 261.839 429.525 262.273C429.283 262.692 428.957 263.057 428.568 263.346C428.18 263.634 427.736 263.84 427.265 263.95L396.522 271.271C396.024 271.389 395.507 271.4 395.004 271.303C394.502 271.205 394.026 271.002 393.608 270.706Z" fill="#CE992F"/>
<path d="M420.313 193.806C430.154 193.806 438.131 185.821 438.131 175.97C438.131 166.12 430.154 158.135 420.313 158.135C410.473 158.135 402.496 166.12 402.496 175.97C402.496 185.821 410.473 193.806 420.313 193.806Z" fill="#FFB8B8"/>
<path d="M370.874 190.096L356.988 196.232C356.46 196.465 355.861 196.478 355.323 196.269C354.785 196.061 354.351 195.647 354.118 195.119L353.774 194.34C353.542 193.811 353.529 193.212 353.737 192.673C353.946 192.135 354.359 191.701 354.887 191.467L368.772 185.331C369.301 185.099 369.899 185.085 370.437 185.294C370.975 185.503 371.409 185.916 371.642 186.444L371.986 187.223C372.218 187.752 372.232 188.351 372.023 188.89C371.815 189.428 371.401 189.862 370.874 190.096Z" fill="#CCCCCC"/>
<path d="M375.952 199.537L362.066 205.672C361.538 205.905 360.939 205.919 360.401 205.71C359.863 205.501 359.43 205.087 359.196 204.559L358.853 203.78C358.62 203.252 358.607 202.652 358.815 202.114C359.024 201.575 359.437 201.141 359.965 200.908L373.851 194.772C374.379 194.539 374.977 194.526 375.515 194.734C376.053 194.943 376.487 195.357 376.72 195.885L377.064 196.664C377.296 197.192 377.31 197.792 377.101 198.33C376.893 198.869 376.479 199.303 375.952 199.537Z" fill="#CCCCCC"/>
<path d="M386.66 236.41L355.702 211.962C355.456 212.049 355.205 212.123 354.951 212.184C353.858 212.44 352.724 212.463 351.622 212.252C350.52 212.04 349.474 211.599 348.554 210.956C347.627 210.313 346.849 209.48 346.27 208.511C345.691 207.543 345.325 206.462 345.198 205.34C344.99 203.548 345.394 201.738 346.343 200.203C347.292 198.669 348.732 197.501 350.427 196.889C351.486 196.509 352.612 196.357 353.734 196.443C354.855 196.529 355.945 196.852 356.933 197.389C357.921 197.926 358.785 198.666 359.467 199.561C360.149 200.456 360.635 201.485 360.893 202.58C360.972 202.927 361.028 203.28 361.059 203.635L391.876 221.431L399.545 217.012L408.041 228.145L396.134 236.641C394.74 237.628 393.065 238.138 391.358 238.096C389.652 238.054 388.004 237.463 386.66 236.41Z" fill="#FFB8B8"/>
<path d="M411.818 231.613L394.154 219.589L402.455 207.82C403.558 206.257 405.176 205.135 407.025 204.651C408.874 204.168 410.835 204.354 412.56 205.177C414.305 206.009 415.695 207.439 416.479 209.208C417.263 210.977 417.39 212.968 416.836 214.822L411.818 231.613Z" fill="#CE992F"/>
<path d="M413.781 173.314C409.201 176.451 403.188 179.676 398.511 176.335C395.44 174.141 394.472 170.079 395.718 166.514C397.957 160.102 404.11 157.28 409.994 155.117C417.644 152.304 425.973 150.067 433.869 152.081C441.766 154.095 448.745 161.748 447.319 169.78C446.173 176.239 440.087 181.613 440.951 188.116C441.82 194.66 449.173 198.105 455.664 199.274C462.155 200.444 469.418 200.82 474.083 205.487C480.034 211.441 478.548 222.083 472.948 228.369C467.349 234.655 458.899 237.504 450.711 239.441C439.862 242.008 428.129 243.356 417.825 239.097C407.522 234.838 399.504 223.372 402.489 212.621C403.75 208.079 406.72 204.241 409.59 200.505C412.46 196.768 415.367 192.861 416.461 188.277C417.374 184.456 416.699 180.021 414.168 177.155C413.707 176.654 413.418 176.019 413.34 175.342C413.263 174.666 413.401 173.982 413.737 173.389L413.781 173.314Z" fill="#2F2E41"/>
<path d="M79.1246 259.971C74.5334 261.587 69.6039 261.991 64.8112 261.146C60.0184 260.301 55.5238 258.235 51.7604 255.146C42.176 247.093 39.171 233.826 36.7259 221.542C34.3152 209.43 31.9046 197.319 29.4939 185.207L44.6349 195.643C55.5234 203.148 66.6572 210.894 74.1963 221.765C81.7355 232.636 85.0263 247.475 78.9689 259.238" fill="#E6E6E6"/>
<path d="M77.8297 303.962C79.3622 292.788 80.938 281.47 79.863 270.176C78.9083 260.146 75.8515 250.35 69.628 242.317C66.3246 238.062 62.305 234.415 57.7499 231.542C56.562 230.792 55.4688 232.676 56.6514 233.424C64.5331 238.41 70.6293 245.773 74.061 254.451C77.8513 264.102 78.46 274.622 77.8068 284.873C77.4118 291.073 76.5747 297.232 75.7311 303.383C75.6646 303.661 75.7061 303.954 75.8472 304.203C75.9883 304.451 76.2184 304.637 76.4911 304.723C76.7694 304.798 77.0659 304.76 77.3165 304.617C77.5671 304.475 77.7515 304.239 77.8297 303.962H77.8297Z" fill="#F2F2F2"/>
<path d="M63.0704 284.189C61.1013 287.185 58.3947 289.623 55.2113 291.267C52.0279 292.912 48.4749 293.708 44.8948 293.579C35.6941 293.142 28.0236 286.714 21.1187 280.611L0.695312 262.561L14.2122 261.913C23.9327 261.447 33.904 261.013 43.1625 264.014C52.421 267.014 60.9596 274.236 62.6526 283.829" fill="#E6E6E6"/>
<path d="M82.1617 310.385C74.7857 297.32 66.2301 282.8 50.9428 278.159C46.6922 276.873 42.2352 276.413 37.8117 276.802C36.4176 276.922 36.7657 279.074 38.1573 278.954C45.572 278.337 52.9724 280.297 59.1125 284.503C65.0211 288.529 69.6216 294.126 73.5154 300.062C75.9005 303.697 78.0369 307.487 80.1737 311.272C80.8565 312.482 82.8525 311.609 82.1617 310.385Z" fill="#F2F2F2"/>
<path d="M93.9797 324.137C93.7311 321.254 92.6972 318.495 90.9905 316.16C89.2838 313.825 86.9698 312.003 84.3004 310.894V303.341H71.6453V311.132C69.1073 312.296 66.9231 314.113 65.3153 316.398C63.7075 318.682 62.7337 321.353 62.4931 324.137L59.5173 358.764H96.9554L93.9797 324.137Z" fill="#F2F2F2"/>
</g>
<defs>
<clipPath id="clip0_259_1543">
<rect width="502" height="363" fill="white"/>
</clipPath>
</defs>
</svg>
